<svg width="166" height="38" viewBox="0 0 166 38" fill="none" xmlns="http://www.w3.org/2000/svg">
<rect x="0.5" y="0.5" width="165" height="37" rx="18.5" stroke="white"/>
<path d="M74.4879 17.3662V17.6162V21.0794V21.1665L74.4339 21.2347C74.0596 21.707 73.5763 22.0865 72.9897 22.3749L72.9885 22.3755C72.3986 22.6617 71.7805 22.8057 71.1368 22.8057C70.5201 22.8057 69.9388 22.6966 69.395 22.4767L69.395 22.4767C68.8547 22.2581 68.3883 21.9576 67.9992 21.5737L74.4879 17.3662ZM74.4879 17.3662H74.2379M74.4879 17.3662H74.2379M74.2379 17.3662H70.8194H70.5694V17.6162V18.6929V18.9429H70.8194H72.8465V20.6331C72.663 20.7971 72.4348 20.9358 72.1579 21.0469C71.8526 21.1672 71.5132 21.229 71.1368 21.229C70.611 21.229 70.1426 21.114 69.726 20.888C69.3144 20.6591 68.9893 20.3372 68.7481 19.9174C68.5084 19.4966 68.3858 19.0148 68.3858 18.4654C68.3858 17.6708 68.6421 17.0186 69.1506 16.4913C69.6632 15.9636 70.2865 15.7017 71.0365 15.7017C71.417 15.7017 71.7857 15.7794 72.1446 15.9361L72.1446 15.9361L72.1465 15.9369C72.5096 16.092 72.7939 16.2878 73.0071 16.5199L73.182 16.7103L73.3664 16.5292L74.1292 15.7799L74.3013 15.6108L74.1384 15.4327C73.7633 15.0231 73.3005 14.7034 72.7544 14.4723C72.2107 14.2406 71.6373 14.125 71.0365 14.125C70.2376 14.125 69.5051 14.3168 68.8449 14.703C68.19 15.0845 67.6756 15.6092 67.305 16.2734L67.5176 16.392L67.305 16.2734C66.9342 16.938 66.75 17.6703 66.75 18.4654C66.75 19.0768 66.8595 19.6531 67.0805 20.1919L67.0805 20.1919M74.2379 17.3662L67.0805 20.1919M67.0805 20.1919L67.0811 20.1933M67.0805 20.1919L67.0811 20.1933M67.0811 20.1933C67.3045 20.7285 67.6101 21.1898 67.9992 21.5737L67.0811 20.1933Z" fill="#EDD580" stroke="#EDD580" stroke-width="0.5"/>
<path d="M83.1693 18.2267L83.3273 18.4204C83.5998 18.1981 83.8138 17.9293 83.9671 17.6155C84.1254 17.2954 84.2043 16.9523 84.2043 16.5894C84.2043 16.227 84.1256 15.8856 83.9671 15.5689C83.814 15.2518 83.6001 14.981 83.3273 14.7584L83.3273 14.7584L83.3252 14.7567C82.8795 14.4013 82.3015 14.236 81.6159 14.236H78.821H78.571V14.486V22.4447V22.6947H78.821H79.9623H80.2123V22.4447V18.9429H80.7511L83.5156 22.5955L83.5906 22.6947H83.7149H85.0957H85.5972L85.2953 22.2942L82.6589 18.7969C82.9016 18.7118 83.125 18.5861 83.3277 18.4201L83.1693 18.2267ZM83.1693 18.2267C82.9686 18.3911 82.7454 18.5109 82.4999 18.586L83.7428 15.6792C83.8838 15.9604 83.9543 16.2638 83.9543 16.5894C83.9543 16.915 83.8838 17.2203 83.7428 17.5052C83.6054 17.7864 83.4143 18.0268 83.1693 18.2267ZM82.3414 17.1394L82.3414 17.1394C82.489 16.9922 82.563 16.8145 82.563 16.5894L82.3414 17.1394ZM82.3414 17.1394C82.208 17.2724 81.9674 17.3662 81.5602 17.3662H80.2123M82.3414 17.1394L80.2123 17.3662M80.2123 17.3662V15.8182H81.5602C81.9734 15.8182 82.2127 15.9112 82.3414 16.0394L80.2123 17.3662Z" fill="#EDD580" stroke="#EDD580" stroke-width="0.5"/>
<path d="M90.4248 22.2394L90.3266 22.4693C90.8525 22.6939 91.4112 22.8057 92.0005 22.8057C92.7846 22.8057 93.504 22.6175 94.1531 22.2388L94.1535 22.2386C94.8047 21.857 95.317 21.3323 95.6874 20.6684C96.0584 20.0035 96.2424 19.2674 96.2424 18.4654C96.2424 17.6633 96.0584 16.9272 95.6874 16.2623C95.317 15.5985 94.8047 15.0755 94.1533 14.6975C93.5043 14.3151 92.7848 14.125 92.0005 14.125C91.4112 14.125 90.8525 14.2368 90.3266 14.4614L90.3266 14.4615C89.8046 14.6844 89.3536 14.9893 88.9766 15.3769C88.5992 15.7611 88.3036 16.2223 88.0883 16.7569C87.8717 17.2948 87.764 17.8649 87.764 18.4654C87.764 19.0658 87.8717 19.636 88.0883 20.1738C88.3036 20.7084 88.5992 21.1712 88.9762 21.5589L88.9771 21.5598C89.354 21.9436 89.8049 22.2464 90.3266 22.4693L90.4248 22.2394ZM93.8504 16.4886L93.8503 16.4886L93.8515 16.4898C94.349 17.0127 94.6011 17.6652 94.6011 18.4654C94.6011 19.2701 94.3503 19.9244 93.8565 20.4471C93.3636 20.9686 92.751 21.229 92.0005 21.229C91.2499 21.229 90.6373 20.9686 90.1444 20.4471C89.6506 19.9244 89.3998 19.2701 89.3998 18.4654C89.3998 17.6647 89.6504 17.012 90.1444 16.4892C90.6416 15.9633 91.2545 15.7017 92.0005 15.7017C92.7464 15.7017 93.3571 15.9633 93.8504 16.4886Z" fill="#EDD580" stroke="#EDD580" stroke-width="0.5"/>
<path d="M102.058 22.5131L102.06 22.5141C102.522 22.7089 103.014 22.8057 103.532 22.8057C104.047 22.8057 104.535 22.7088 104.994 22.5138L104.995 22.5134C105.456 22.3153 105.854 22.0386 106.187 21.6831L106.188 21.6818C106.795 21.0242 107.089 20.1716 107.089 19.148V14.486V14.236H106.839H105.698H105.448V14.486V19.2035C105.448 19.8453 105.291 20.3002 105.012 20.6057L105.011 20.6068C104.64 21.0192 104.155 21.229 103.532 21.229C102.91 21.229 102.425 21.0192 102.053 20.6068L102.053 20.6068L102.052 20.6056C101.774 20.3002 101.616 19.8454 101.616 19.2035V14.486V14.236H101.366H100.225H99.975V14.486V19.148C99.975 20.1745 100.267 21.0274 100.871 21.6818L100.871 21.6818L100.872 21.6831C101.204 22.0382 101.6 22.3149 102.058 22.5131Z" fill="#EDD580" stroke="#EDD580" stroke-width="0.5"/>
<path d="M117.326 22.6031L117.401 22.6947H117.519H118.32H118.57V22.4447V14.486V14.236H118.32H117.179H116.929V14.486V19.6305L112.585 14.3275L112.51 14.236H112.391H111.59H111.34V14.486V22.4447V22.6947H111.59H112.731H112.981V22.4447V17.3001L117.326 22.6031Z" fill="#EDD580" stroke="#EDD580" stroke-width="0.5"/>
<path d="M128.282 17.3284L128.282 17.329C128.438 17.6804 128.516 18.0582 128.516 18.4653C128.516 18.8722 128.438 19.2542 128.281 19.6138C128.125 19.9702 127.908 20.267 127.634 20.508C127.402 20.7084 127.125 20.8606 126.795 20.9622C126.466 21.0601 126.042 21.1124 125.515 21.1124H124.568V15.8182H125.515C126.042 15.8182 126.466 15.8724 126.794 15.9736L126.794 15.9736C127.124 16.0752 127.402 16.2272 127.633 16.4276C127.908 16.6726 128.125 16.9718 128.282 17.3284ZM122.926 22.4447V22.6947H123.176H125.571C126.756 22.6947 127.73 22.4375 128.469 21.8972L128.469 21.8972L128.47 21.8962C128.996 21.5057 129.409 21.0086 129.708 20.4083L129.708 20.4083C130.008 19.8063 130.158 19.1575 130.158 18.4653C130.158 17.7763 130.006 17.1309 129.703 16.5325C129.403 15.9325 128.988 15.4339 128.459 15.0402L128.459 15.0402L128.458 15.0391C127.716 14.4954 126.745 14.236 125.571 14.236H123.176H122.926V14.486V22.4447Z" fill="#EDD580" stroke="#EDD580" stroke-width="0.5"/>
<path d="M140.171 22.6947H140.306L140.38 22.5822L142.409 19.502L144.444 22.5825L144.519 22.6947H144.653H146H146.463L146.209 22.3077L143.449 18.0943L145.752 14.6242L146.009 14.236H145.544H144.141H144.005L143.931 14.3493L142.41 16.6804L140.898 14.3499L140.825 14.236H140.689H139.285H138.821L139.077 14.6238L141.37 18.0943L138.62 22.308L138.367 22.6947H138.829H140.171Z" fill="#EDD580" stroke="#EDD580" stroke-width="0.5"/>
<path d="M24.3682 13.1973H24.9287L29.1533 23H28.3125L27.0273 20.0469H22.2695L20.9775 23H20.1367L24.3682 13.1973ZM24.6484 14.5166L22.6045 19.2471H26.6787L24.6484 14.5166ZM31.2178 18.5225V20.9834C31.473 21.4209 31.8011 21.765 32.2021 22.0156C32.6032 22.2617 33.0361 22.3848 33.501 22.3848C34.0023 22.3848 34.4831 22.2253 34.9434 21.9062C35.2533 21.6875 35.4971 21.3936 35.6748 21.0244C35.8571 20.6507 35.9482 20.2451 35.9482 19.8076C35.9482 19.3975 35.8685 19.0146 35.709 18.6592C35.554 18.3037 35.3353 18.0098 35.0527 17.7773C34.597 17.4128 34.0843 17.2305 33.5146 17.2305C32.9906 17.2305 32.5212 17.3695 32.1064 17.6475C31.6963 17.9209 31.4001 18.2126 31.2178 18.5225ZM33.4873 23.1367C33.0042 23.1367 32.5622 23.041 32.1611 22.8496C31.7601 22.6536 31.4365 22.3916 31.1904 22.0635V23H30.418V13.0605H31.2178V17.4697C31.8376 16.8089 32.6077 16.4785 33.5283 16.4785C34.2939 16.4785 34.9707 16.7155 35.5586 17.1895C35.9277 17.5039 36.2171 17.889 36.4268 18.3447C36.641 18.7959 36.748 19.2835 36.748 19.8076C36.748 20.3773 36.6273 20.9014 36.3857 21.3799C36.1442 21.8538 35.8115 22.2389 35.3877 22.5352C34.8271 22.9362 34.1937 23.1367 33.4873 23.1367ZM43.0781 21.6396C43.5521 21.1383 43.7891 20.5277 43.7891 19.8076C43.7891 19.0876 43.5521 18.4792 43.0781 17.9824C42.6042 17.4811 42.0094 17.2305 41.2939 17.2305C40.5785 17.2305 39.9837 17.4811 39.5098 17.9824C39.0404 18.4792 38.8057 19.0876 38.8057 19.8076C38.8057 20.5277 39.0404 21.1383 39.5098 21.6396C39.9837 22.1364 40.5785 22.3848 41.2939 22.3848C42.0094 22.3848 42.6042 22.1364 43.0781 21.6396ZM44.165 18.1396C44.4476 18.6455 44.5889 19.2015 44.5889 19.8076C44.5889 20.4137 44.4476 20.972 44.165 21.4824C43.887 21.9883 43.4951 22.3916 42.9893 22.6924C42.4834 22.9886 41.9183 23.1367 41.2939 23.1367C40.6696 23.1367 40.1045 22.9886 39.5986 22.6924C39.0973 22.3916 38.7054 21.9883 38.4229 21.4824C38.1449 20.972 38.0059 20.4137 38.0059 19.8076C38.0059 19.2015 38.1449 18.6455 38.4229 18.1396C38.7054 17.6292 39.0973 17.2259 39.5986 16.9297C40.1045 16.6289 40.6696 16.4785 41.2939 16.4785C41.9183 16.4785 42.4834 16.6289 42.9893 16.9297C43.4951 17.2259 43.887 17.6292 44.165 18.1396ZM51.1855 23V22.1318C50.9531 22.4326 50.6432 22.6764 50.2559 22.8633C49.873 23.0456 49.4652 23.1367 49.0322 23.1367C48.5081 23.1367 48.0365 23.0205 47.6172 22.7881C47.1979 22.5557 46.8721 22.2344 46.6396 21.8242C46.389 21.373 46.2637 20.7715 46.2637 20.0195V16.6152H47.0566V19.8896C47.0566 20.6279 47.1797 21.1794 47.4258 21.5439C47.599 21.8037 47.8245 22.0088 48.1025 22.1592C48.3805 22.3096 48.6904 22.3848 49.0322 22.3848C49.4652 22.3848 49.8753 22.264 50.2627 22.0225C50.6501 21.7764 50.9486 21.4528 51.1582 21.0518V16.6152H51.958V23H51.1855ZM57.9873 16.6152V17.374H55.8135V20.874C55.8135 21.348 55.9069 21.7012 56.0938 21.9336C56.3353 22.2344 56.6908 22.3848 57.1602 22.3848C57.4245 22.3848 57.6523 22.3574 57.8438 22.3027L57.9873 23.0273C57.7594 23.1003 57.4837 23.1367 57.1602 23.1367C56.3991 23.1367 55.8294 22.8952 55.4512 22.4121C55.1595 22.0475 55.0137 21.5257 55.0137 20.8467V17.374H53.2227V16.6152H55.0137V14.8789H55.8135V16.6152H57.9873Z" fill="white"/>
</svg>
