<svg width="84" height="84" viewBox="0 0 84 84" fill="none" xmlns="http://www.w3.org/2000/svg">
<path d="M0 84C0 75.5131 3.37142 67.3737 9.37258 61.3726C15.3737 55.3714 23.5131 52 32 52C40.4869 52 48.6263 55.3714 54.6274 61.3726C60.6286 67.3737 64 75.5131 64 84H56C56 77.6348 53.4714 71.5303 48.9706 67.0294C44.4697 62.5286 38.3652 60 32 60C25.6348 60 19.5303 62.5286 15.0294 67.0294C10.5286 71.5303 8 77.6348 8 84H0ZM32 48C18.74 48 8 37.26 8 24C8 10.74 18.74 0 32 0C45.26 0 56 10.74 56 24C56 37.26 45.26 48 32 48ZM32 40C40.84 40 48 32.84 48 24C48 15.16 40.84 8 32 8C23.16 8 16 15.16 16 24C16 32.84 23.16 40 32 40ZM65.136 54.812C70.7573 57.3437 75.5279 61.445 78.8743 66.6228C82.2208 71.8007 84.0006 77.8349 84 84H76C76.0009 79.3759 74.6662 74.85 72.1563 70.9663C69.6465 67.0827 66.0683 64.0066 61.852 62.108L65.132 54.812H65.136ZM62.384 9.652C66.4141 11.3132 69.8599 14.1342 72.2841 17.7569C74.7083 21.3797 76.0016 25.641 76 30C76.0017 35.4893 73.9508 40.7809 70.2502 44.8353C66.5496 48.8897 61.4667 51.4139 56 51.912V43.86C58.9638 43.4355 61.7134 42.0721 63.8452 39.9698C65.9771 37.8676 67.3788 35.1373 67.8446 32.1797C68.3105 29.2222 67.8159 26.1932 66.4335 23.5374C65.0512 20.8816 62.8538 18.739 60.164 17.424L62.384 9.652Z" fill="#937206"/>
</svg>
