<svg width="20" height="18" viewBox="0 0 20 18" fill="none" xmlns="http://www.w3.org/2000/svg">
<path d="M4.84917 14.9572C5.0595 14.1269 5.80134 13.5134 6.68421 13.5134C7.73065 13.5134 8.57895 14.3753 8.57895 15.4385C8.57895 16.5017 7.73065 17.3636 6.68421 17.3636C5.80134 17.3636 5.0595 16.7501 4.84917 15.9198H1.47368C1.21208 15.9198 1 15.7043 1 15.4385C1 15.1727 1.21208 14.9572 1.47368 14.9572H4.84917ZM9.58601 8.21925C9.79634 7.38893 10.5382 6.7754 11.4211 6.7754C12.4675 6.7754 13.3158 7.63731 13.3158 8.70053C13.3158 9.76376 12.4675 10.6257 11.4211 10.6257C10.5382 10.6257 9.79634 10.0121 9.58601 9.18182H1.47368C1.21208 9.18182 1 8.96634 1 8.70053C1 8.43473 1.21208 8.21925 1.47368 8.21925H9.58601ZM5.79653 2.44385C6.00687 1.61353 6.74871 1 7.63158 1C8.67801 1 9.52632 1.86191 9.52632 2.92513C9.52632 3.98836 8.67801 4.85027 7.63158 4.85027C6.74871 4.85027 6.00687 4.23674 5.79653 3.40642H1.47368C1.21208 3.40642 1 3.19094 1 2.92513C1 2.65933 1.21208 2.44385 1.47368 2.44385H5.79653ZM11.8947 3.40642C11.6331 3.40642 11.4211 3.19094 11.4211 2.92513C11.4211 2.65933 11.6331 2.44385 11.8947 2.44385H18.5263C18.7879 2.44385 19 2.65933 19 2.92513C19 3.19094 18.7879 3.40642 18.5263 3.40642H11.8947ZM15.6842 9.18182C15.4226 9.18182 15.2105 8.96634 15.2105 8.70053C15.2105 8.43473 15.4226 8.21925 15.6842 8.21925H18.5263C18.7879 8.21925 19 8.43473 19 8.70053C19 8.96634 18.7879 9.18182 18.5263 9.18182H15.6842ZM10.9474 15.9198C10.6858 15.9198 10.4737 15.7043 10.4737 15.4385C10.4737 15.1727 10.6858 14.9572 10.9474 14.9572H18.5263C18.7879 14.9572 19 15.1727 19 15.4385C19 15.7043 18.7879 15.9198 18.5263 15.9198H10.9474ZM7.63158 3.8877C8.1548 3.8877 8.57895 3.45674 8.57895 2.92513C8.57895 2.39352 8.1548 1.96257 7.63158 1.96257C7.10836 1.96257 6.68421 2.39352 6.68421 2.92513C6.68421 3.45674 7.10836 3.8877 7.63158 3.8877ZM11.4211 9.6631C11.9443 9.6631 12.3684 9.23215 12.3684 8.70053C12.3684 8.16892 11.9443 7.73797 11.4211 7.73797C10.8978 7.73797 10.4737 8.16892 10.4737 8.70053C10.4737 9.23215 10.8978 9.6631 11.4211 9.6631ZM6.68421 16.4011C7.20743 16.4011 7.63158 15.9701 7.63158 15.4385C7.63158 14.9069 7.20743 14.4759 6.68421 14.4759C6.16099 14.4759 5.73684 14.9069 5.73684 15.4385C5.73684 15.9701 6.16099 16.4011 6.68421 16.4011Z" fill="white" stroke="white" stroke-width="0.3"/>
</svg>
