<svg width="42" height="39" viewBox="0 0 42 39" fill="none" xmlns="http://www.w3.org/2000/svg">
<path d="M15 35.625C15.3913 36.9581 16.6144 37.8737 18.0038 37.8737C19.3931 37.8737 20.6162 36.9581 21.0075 35.625" stroke="#040404" stroke-width="1.5" stroke-linecap="round" stroke-linejoin="round"/>
<path d="M18 7.5V4.125" stroke="#040404" stroke-width="1.5" stroke-linecap="round" stroke-linejoin="round"/>
<path fill-rule="evenodd" clip-rule="evenodd" d="M18 7.5C24.2132 7.5 29.25 12.5368 29.25 18.75C29.25 29.319 31.5 31.125 31.5 31.125H4.5C4.5 31.125 6.75 28.251 6.75 18.75C6.75 12.5368 11.7868 7.5 18 7.5Z" stroke="#040404" stroke-width="1.5" stroke-linecap="round" stroke-linejoin="round"/>
<rect x="26" width="16" height="16" rx="8" fill="#006845"/>
<path fill-rule="evenodd" clip-rule="evenodd" d="M37.1998 4.7998L32.907 10.9321C32.7921 11.0972 32.6048 11.1971 32.4037 11.2004C32.2025 11.2037 32.0121 11.1101 31.8918 10.9489L30.7998 9.49314" fill="#006845"/>
<path d="M37.1998 4.7998L32.907 10.9321C32.7921 11.0973 32.6048 11.1971 32.4037 11.2004C32.2025 11.2037 32.0121 11.1101 31.8918 10.9489L30.7998 9.49314" stroke="white" stroke-linecap="round" stroke-linejoin="round"/>
</svg>
