<svg width="10" height="20" viewBox="0 0 10 20" fill="none" xmlns="http://www.w3.org/2000/svg">
<path fill-rule="evenodd" clip-rule="evenodd" d="M6.65405 10.0013L0.385335 2.71329C-0.0605255 2.19494 -0.00175616 1.41328 0.516602 0.967423C1.03496 0.521562 1.81661 0.580332 2.26247 1.09869L8.89694 8.81192C8.89701 8.812 8.89708 8.81208 8.89715 8.81216C8.89728 8.81232 8.89741 8.81247 8.89755 8.81262C9.19241 9.15527 9.33301 9.58512 9.33301 10.0013C9.33301 10.4175 9.19241 10.8473 8.89755 11.19C8.89741 11.1901 8.89728 11.1903 8.89715 11.1904C8.89708 11.1905 8.89701 11.1906 8.89694 11.1907L2.26247 18.9039C1.81661 19.4223 1.03496 19.481 0.516601 19.0352C-0.00175692 18.5893 -0.0605262 17.8077 0.385334 17.2893L6.65405 10.0013ZM7.02041 10.4272L7.02101 10.4279Z" fill="white"/>
</svg>
