<svg width="10" height="20" viewBox="0 0 10 20" fill="none" xmlns="http://www.w3.org/2000/svg">
<path fill-rule="evenodd" clip-rule="evenodd" d="M2.76489 10.0007L9.03361 17.2887C9.47947 17.807 9.4207 18.5887 8.90234 19.0345C8.38399 19.4804 7.60233 19.4216 7.15647 18.9033L0.522005 11.19C0.521934 11.19 0.521864 11.1899 0.521794 11.1898C0.521662 11.1896 0.52153 11.1895 0.521399 11.1893C0.226539 10.8467 0.0859376 10.4168 0.0859376 10.0007C0.0859376 9.58447 0.226539 9.15462 0.521399 8.81197C0.521531 8.81182 0.521662 8.81166 0.521794 8.81151C0.521864 8.81143 0.521935 8.81135 0.522005 8.81126L7.15647 1.09804C7.60233 0.57968 8.38399 0.520909 8.90234 0.96677C9.4207 1.41263 9.47947 2.19429 9.03361 2.71264L2.76489 10.0007ZM2.39854 9.57473L2.39793 9.57402Z" fill="white"/>
</svg>
