<svg width="28" height="14" viewBox="0 0 28 14" fill="none" xmlns="http://www.w3.org/2000/svg">
<path fill-rule="evenodd" clip-rule="evenodd" d="M14 4.01843L3.06799 13.4215C2.29045 14.0903 1.11797 14.0021 0.449182 13.2246C-0.21961 12.4471 -0.131454 11.2746 0.646082 10.6058L12.2159 0.654101C12.216 0.653995 12.2162 0.65389 12.2163 0.653784C12.2165 0.653587 12.2167 0.653389 12.217 0.653192C12.731 0.210901 13.3757 0 14 0C14.6243 0 15.269 0.210901 15.783 0.653192C15.7833 0.653389 15.7835 0.653587 15.7837 0.653784C15.7838 0.65389 15.784 0.653995 15.7841 0.654101L27.3539 10.6058C28.1315 11.2746 28.2196 12.4471 27.5508 13.2246C26.882 14.0021 25.7095 14.0903 24.932 13.4215L14 4.01843ZM14.6389 3.4689L14.6399 3.46799Z" fill="white"/>
</svg>
