<svg width="48" height="35" viewBox="0 0 48 35" fill="none" xmlns="http://www.w3.org/2000/svg">
<path d="M9.292 34.0001C13.8715 34.0001 17.584 30.3844 17.584 25.9241C17.584 21.4639 13.8715 17.8481 9.292 17.8481C4.71245 17.8481 1 21.4639 1 25.9241C1 30.3844 4.71245 34.0001 9.292 34.0001Z" stroke="black" stroke-width="2" stroke-miterlimit="10" stroke-linecap="round" stroke-linejoin="round"/>
<path d="M1.604 22.9L11.443 2.02301C11.443 2.02301 19.382 -1.72099 21.389 5.11601L17.585 26.44" stroke="black" stroke-width="2" stroke-miterlimit="10" stroke-linecap="round" stroke-linejoin="round"/>
<path d="M38.7071 34.0001C43.2872 34.0001 47.0001 30.3844 47.0001 25.9241C47.0001 21.4639 43.2872 17.8481 38.7071 17.8481C34.127 17.8481 30.4141 21.4639 30.4141 25.9241C30.4141 30.3844 34.127 34.0001 38.7071 34.0001Z" stroke="black" stroke-width="2" stroke-miterlimit="10" stroke-linecap="round" stroke-linejoin="round"/>
<path d="M46.3958 22.9L36.5578 2.02301C36.5578 2.02301 28.6178 -1.72099 26.6118 5.11601L30.4148 26.441" stroke="black" stroke-width="2" stroke-miterlimit="10" stroke-linecap="round" stroke-linejoin="round"/>
<path d="M20.9912 9.75488H27.0092" stroke="black" stroke-width="2" stroke-miterlimit="10" stroke-linecap="round" stroke-linejoin="round"/>
<path d="M18.8188 19.0332H29.1798" stroke="black" stroke-width="2" stroke-miterlimit="10" stroke-linecap="round" stroke-linejoin="round"/>
</svg>
