<svg width="38" height="37" viewBox="0 0 38 37" fill="none" xmlns="http://www.w3.org/2000/svg">
<path d="M37.96 13.8212C37.865 13.5286 37.6117 13.3149 37.3073 13.271L25.1584 11.5053L19.7248 0.496828C19.5885 0.220697 19.3077 0.0458984 18.9999 0.0458984C18.6921 0.0458984 18.4109 0.220697 18.2745 0.496828L12.8418 11.5053L0.692086 13.271C0.387665 13.3154 0.134756 13.529 0.0393352 13.8212C-0.0556641 14.1142 0.0237131 14.4351 0.244111 14.6504L9.03554 23.2193L6.96034 35.3197C6.90883 35.6229 7.03338 35.9298 7.28207 36.1105C7.5316 36.2916 7.86177 36.3149 8.13368 36.1722L18.9999 30.4587L29.8665 36.1717C29.9852 36.2338 30.114 36.2646 30.2427 36.2646C30.4099 36.2646 30.5771 36.2127 30.7181 36.1101C30.9668 35.9294 31.0918 35.6224 31.0399 35.3193L28.9642 23.2193L37.7557 14.6504C37.9761 14.4351 38.0555 14.1142 37.96 13.8212ZM27.5308 22.3576C27.3404 22.5434 27.2538 22.8111 27.2982 23.0733L29.1686 33.9779L19.3761 28.8294C19.2583 28.7673 19.1291 28.7365 18.9999 28.7365C18.8707 28.7365 18.7415 28.7673 18.6237 28.8294L8.83119 33.9779L10.7016 23.0733C10.7464 22.8111 10.6594 22.5434 10.4685 22.3576L2.54605 14.6356L13.495 13.0447C13.7585 13.0063 13.9856 12.8412 14.1038 12.6022L18.9999 2.68139L23.8968 12.6022C24.0146 12.8412 24.2417 13.0063 24.5052 13.0447L35.4537 14.6356L27.5308 22.3576Z" fill="black"/>
</svg>
