<svg width="38" height="37" viewBox="0 0 38 37" fill="none" xmlns="http://www.w3.org/2000/svg">
<path d="M37.9603 13.8213C37.8653 13.5287 37.612 13.3151 37.3076 13.2712L25.1585 11.5054L19.725 0.496832C19.5886 0.220698 19.3078 0.0458984 19 0.0458984C18.6922 0.0458984 18.411 0.220698 18.2746 0.496832L12.8419 11.5054L0.692031 13.2712C0.387608 13.3155 0.134697 13.5291 0.0392745 13.8213C-0.0557257 14.1143 0.0236523 14.4352 0.244052 14.6506L9.03556 23.2196L6.96034 35.32C6.90883 35.6232 7.03338 35.9301 7.28207 36.1108C7.53161 36.292 7.86178 36.3152 8.13369 36.1725L19 30.459L29.8667 36.1721C29.9854 36.2341 30.1142 36.265 30.2429 36.265C30.4101 36.265 30.5773 36.213 30.7184 36.1104C30.9671 35.9297 31.092 35.6228 31.0401 35.3196L28.9645 23.2196L37.756 14.6506C37.9764 14.4352 38.0557 14.1143 37.9603 13.8213ZM27.531 22.3578C27.3406 22.5436 27.254 22.8113 27.2984 23.0735L29.1688 33.9782L19.3762 28.8296C19.2584 28.7676 19.1292 28.7367 19 28.7367C18.8708 28.7367 18.7416 28.7676 18.6238 28.8296L8.83121 33.9782L10.7017 23.0735C10.7464 22.8113 10.6594 22.5436 10.4686 22.3578L2.54601 14.6358L13.4951 13.0448C13.7585 13.0064 13.9857 12.8413 14.1039 12.6024L19 2.68141L23.8969 12.6024C24.0147 12.8413 24.2419 13.0064 24.5054 13.0448L35.454 14.6358L27.531 22.3578Z" fill="black"/>
</svg>
