<svg width="18" height="16" viewBox="0 0 18 16" fill="none" xmlns="http://www.w3.org/2000/svg">
<path fill-rule="evenodd" clip-rule="evenodd" d="M1.5 5.5C1.5 4.67157 2.17157 4 3 4H15C15.8284 4 16.5 4.67157 16.5 5.5V13.5C16.5 14.3284 15.8284 15 15 15H3C2.17157 15 1.5 14.3284 1.5 13.5V5.5Z" stroke="#737373" stroke-width="1.5" stroke-linecap="round" stroke-linejoin="round"/>
<path d="M4.5 7.5H13.5" stroke="#737373" stroke-width="1.5" stroke-linecap="round" stroke-linejoin="round"/>
<path d="M4.5 11.5H13.5" stroke="#737373" stroke-width="1.5" stroke-linecap="round" stroke-linejoin="round"/>
<path fill-rule="evenodd" clip-rule="evenodd" d="M11.228 1.68333C11.0917 1.27517 10.7096 0.999944 10.2793 1H7.72067C7.29036 0.999944 6.90826 1.27517 6.772 1.68333L6 4H12L11.228 1.68333Z" stroke="#737373" stroke-width="1.5" stroke-linecap="round" stroke-linejoin="round"/>
<path d="M3.5 4V3" stroke="#737373" stroke-width="1.5" stroke-linecap="round" stroke-linejoin="round"/>
<path d="M14.5 4V3" stroke="#737373" stroke-width="1.5" stroke-linecap="round" stroke-linejoin="round"/>
</svg>
