<svg width="16" height="16" viewBox="0 0 16 16" fill="none" xmlns="http://www.w3.org/2000/svg">
<path fill-rule="evenodd" clip-rule="evenodd" d="M1.4375 4.6875C1.4375 3.85907 2.10907 3.1875 2.9375 3.1875H13.0625C13.8909 3.1875 14.5625 3.85907 14.5625 4.6875V13.0625C14.5625 13.8909 13.8909 14.5625 13.0625 14.5625H2.9375C2.10907 14.5625 1.4375 13.8909 1.4375 13.0625V4.6875Z" stroke="#937206" stroke-width="1.5" stroke-linecap="round" stroke-linejoin="round"/>
<path d="M1.4375 6.6875H14.5625" stroke="#937206" stroke-width="1.5" stroke-linecap="round" stroke-linejoin="round"/>
<path d="M4.9375 4.5V1.4375" stroke="#937206" stroke-width="1.5" stroke-linecap="round" stroke-linejoin="round"/>
<path d="M11.0625 4.5V1.4375" stroke="#937206" stroke-width="1.5" stroke-linecap="round" stroke-linejoin="round"/>
<path d="M4.28125 8.875C4.16044 8.875 4.0625 8.97294 4.0625 9.09375C4.0625 9.21456 4.16044 9.3125 4.28125 9.3125C4.40206 9.3125 4.5 9.21456 4.5 9.09375C4.5 8.97294 4.40206 8.875 4.28125 8.875" stroke="#937206" stroke-width="1.5" stroke-linecap="round" stroke-linejoin="round"/>
<path d="M4.28125 11.9375C4.16044 11.9375 4.0625 12.0354 4.0625 12.1562C4.0625 12.2771 4.16044 12.375 4.28125 12.375C4.40206 12.375 4.5 12.2771 4.5 12.1562C4.5 12.0354 4.40206 11.9375 4.28125 11.9375" stroke="#937206" stroke-width="1.5" stroke-linecap="round" stroke-linejoin="round"/>
<path d="M8 8.875C7.87919 8.875 7.78125 8.97294 7.78125 9.09375C7.78125 9.21456 7.87919 9.3125 8 9.3125C8.12081 9.3125 8.21875 9.21456 8.21875 9.09375C8.21875 8.97294 8.12081 8.875 8 8.875" stroke="#937206" stroke-width="1.5" stroke-linecap="round" stroke-linejoin="round"/>
<path d="M8 11.9375C7.87919 11.9375 7.78125 12.0354 7.78125 12.1562C7.78125 12.2771 7.87919 12.375 8 12.375C8.12081 12.375 8.21875 12.2771 8.21875 12.1562C8.21875 12.0354 8.12081 11.9375 8 11.9375" stroke="#937206" stroke-width="1.5" stroke-linecap="round" stroke-linejoin="round"/>
<path d="M11.7187 8.875C11.5979 8.875 11.5 8.97294 11.5 9.09375C11.5 9.21456 11.5979 9.3125 11.7187 9.3125C11.8396 9.3125 11.9375 9.21456 11.9375 9.09375C11.9375 8.97294 11.8396 8.875 11.7187 8.875" stroke="#937206" stroke-width="1.5" stroke-linecap="round" stroke-linejoin="round"/>
<path d="M11.7187 11.9375C11.5979 11.9375 11.5 12.0354 11.5 12.1562C11.5 12.2771 11.5979 12.375 11.7187 12.375C11.8396 12.375 11.9375 12.2771 11.9375 12.1562C11.9375 12.0354 11.8396 11.9375 11.7187 11.9375" stroke="#937206" stroke-width="1.5" stroke-linecap="round" stroke-linejoin="round"/>
</svg>
