<svg width="38" height="35" viewBox="0 0 38 35" fill="none" xmlns="http://www.w3.org/2000/svg">
<path d="M5.31571 33.9584C5.40388 33.9974 5.49899 34.0173 5.59502 34.0166C5.77717 34.0166 5.95227 33.9444 6.08382 33.815L10.95 29.0393H20.115C20.5678 29.0393 21.0161 28.9478 21.4344 28.7699C21.8527 28.5921 22.2328 28.3314 22.553 28.0027C22.8731 27.6741 23.1271 27.2839 23.3004 26.8545C23.4736 26.4251 23.5628 25.9649 23.5628 25.5001V20.1734C23.5628 19.9809 23.4883 19.7963 23.3557 19.6602C23.2231 19.5241 23.0433 19.4477 22.8558 19.4477C22.6683 19.4477 22.4884 19.5241 22.3559 19.6602C22.2233 19.7963 22.1488 19.9809 22.1488 20.1734V25.5136C22.1488 26.0673 21.9345 26.5983 21.5531 26.9898C21.1717 27.3813 20.6544 27.6013 20.115 27.6013H10.662C10.4807 27.6019 10.3063 27.6722 10.1732 27.7984L6.29331 31.6064V28.336C6.29216 28.1439 6.21731 27.9599 6.08496 27.8241C5.95262 27.6882 5.77345 27.6114 5.58629 27.6102H3.44343C3.17598 27.6096 2.91127 27.5549 2.66446 27.4492C2.41765 27.3434 2.19357 27.1888 2.00507 26.994C1.81657 26.7993 1.66733 26.5683 1.56591 26.3142C1.46449 26.0602 1.41288 25.7881 1.41403 25.5136V15.0752C1.41231 14.8001 1.46346 14.5273 1.56457 14.2725C1.66568 14.0177 1.81475 13.7859 2.00325 13.5903C2.19176 13.3947 2.41599 13.2392 2.66312 13.1327C2.91024 13.0262 3.17541 12.9708 3.44343 12.9696H11.7705C11.958 12.9696 12.1378 12.8931 12.2704 12.757C12.403 12.6209 12.4775 12.4363 12.4775 12.2438C12.4775 12.0513 12.403 11.8667 12.2704 11.7306C12.1378 11.5945 11.958 11.5181 11.7705 11.5181H3.44343C2.52977 11.5193 1.65393 11.8927 1.00829 12.5563C0.362648 13.2199 -7.31977e-07 14.1194 0 15.0573V25.5136C-7.31977e-07 26.4515 0.362648 27.351 1.00829 28.0146C1.65393 28.6782 2.52977 29.0516 3.44343 29.0528H4.88801V33.3133C4.89042 33.4519 4.93217 33.5867 5.00814 33.7013C5.08411 33.8159 5.191 33.9052 5.31571 33.9584Z" fill="black"/>
<path d="M26.9409 17.6243L31.8463 22.4403C31.9468 22.5385 32.073 22.6044 32.2095 22.6298C32.346 22.6553 32.4867 22.6393 32.6144 22.5837C32.7428 22.531 32.8529 22.4402 32.9307 22.3229C33.0085 22.2055 33.0503 22.067 33.0509 21.9251V17.6243H34.5085C35.4345 17.6243 36.3226 17.2467 36.9774 16.5746C37.6321 15.9025 38 14.9909 38 14.0403V3.5616C37.9942 2.61495 37.6238 1.70909 36.9697 1.0418C36.3155 0.374504 35.4308 -1.84891e-05 34.5085 6.84583e-10H17.7148C16.7933 0.00709423 15.912 0.387823 15.2629 1.05919C14.6137 1.73055 14.2495 2.6381 14.2495 3.584V14.0627C14.2495 15.0086 14.6137 15.9162 15.2629 16.5875C15.912 17.2589 16.7933 17.6396 17.7148 17.6467L26.9409 17.6243ZM15.6592 14.0403V3.5616C15.6603 3.00234 15.8773 2.46632 16.2625 2.07086C16.6478 1.67539 17.1699 1.4527 17.7148 1.45152H34.4911C35.0367 1.45152 35.56 1.67369 35.9461 2.06928C36.3323 2.46486 36.5499 3.00156 36.551 3.5616V14.0627C36.5487 14.6224 36.3308 15.1584 35.9449 15.5537C35.5589 15.9491 35.0363 16.1716 34.4911 16.1728H32.3089C32.1283 16.1831 31.9584 16.2641 31.8342 16.3991C31.71 16.5341 31.6409 16.7129 31.6412 16.8986V20.2272L27.7133 16.3789C27.5802 16.2527 27.4058 16.1824 27.2245 16.1818H17.7148C17.1688 16.1794 16.646 15.9551 16.2607 15.5579C15.8755 15.1608 15.6592 14.6232 15.6592 14.0627V14.0403Z" fill="black"/>
</svg>
