<svg width="58" height="48" viewBox="0 0 58 48" fill="none" xmlns="http://www.w3.org/2000/svg">
<path fill-rule="evenodd" clip-rule="evenodd" d="M0.875 21.75C0.875 20.9216 1.54657 20.25 2.375 20.25H55.625C56.4534 20.25 57.125 20.9216 57.125 21.75V45C57.125 45.8284 56.4534 46.5 55.625 46.5H2.375C1.54657 46.5 0.875 45.8284 0.875 45V21.75Z" stroke="black" stroke-width="1.5" stroke-linecap="round" stroke-linejoin="round"/>
<path d="M56.8248 22.5275L49.6248 1.5H42.1248C42.1248 5.6425 36.2498 9 28.9998 9C21.7498 9 15.8748 5.6425 15.8748 1.5H8.3748L1.1748 22.5275" stroke="black" stroke-width="1.5" stroke-linecap="round" stroke-linejoin="round"/>
<path fill-rule="evenodd" clip-rule="evenodd" d="M6.5 39H0.875V27.75H6.5C7.53553 27.75 8.375 28.5895 8.375 29.625V37.125C8.375 38.1605 7.53553 39 6.5 39Z" stroke="black" stroke-width="1.5" stroke-linecap="round" stroke-linejoin="round"/>
<path fill-rule="evenodd" clip-rule="evenodd" d="M51.5 39H57.125V27.75H51.5C50.4645 27.75 49.625 28.5895 49.625 29.625V37.125C49.625 38.1605 50.4645 39 51.5 39Z" stroke="black" stroke-width="1.5" stroke-linecap="round" stroke-linejoin="round"/>
<path d="M19.625 31.5H38.375" stroke="black" stroke-width="1.5" stroke-linecap="round" stroke-linejoin="round"/>
</svg>
