<svg width="30" height="30" viewBox="0 0 30 30" fill="none" xmlns="http://www.w3.org/2000/svg">
<path d="M10.5 8.45H19.65C20.45 8.45 21.1 7.8 21.1 7V3.75C21.1 2.95 20.45 2.3 19.65 2.3H18.1C17.8 1 16.55 0 15.1 0C13.65 0 12.4 1 12.1 2.35H10.5C9.7 2.35 9.05 3 9.05 3.8V7.05C9.1 7.8 9.75 8.45 10.5 8.45ZM10.6 3.85H12.8C13 3.85 13.2 3.75 13.35 3.65C13.5 3.5 13.55 3.3 13.55 3.1V3.05C13.55 2.2 14.25 1.5 15.15 1.5C16 1.5 16.7 2.2 16.75 3.05C16.75 3.1 16.75 3.1 16.75 3.1C16.75 3.5 17.1 3.85 17.5 3.85H19.6V6.95H10.6V3.85ZM11.65 11.8H21.5C21.9 11.8 22.25 12.15 22.25 12.55C22.25 12.95 21.9 13.3 21.5 13.3H11.65C11.25 13.3 10.9 12.95 10.9 12.55C10.9 12.15 11.25 11.8 11.65 11.8ZM7.95 17.9C7.95 17.5 8.3 17.15 8.7 17.15H21.5C21.9 17.15 22.25 17.5 22.25 17.9C22.25 18.3 21.9 18.65 21.5 18.65H8.7C8.3 18.65 7.95 18.3 7.95 17.9ZM17.35 22.55C17.75 22.55 18.1 22.9 18.1 23.3C18.1 23.7 17.75 24.05 17.35 24.05H8.7C8.3 24.05 7.95 23.7 7.95 23.3C7.95 22.9 8.3 22.55 8.7 22.55H17.35ZM26.2 5.4V29.25C26.2 29.65 25.85 30 25.45 30H4.75C4.35 30 4 29.65 4 29.25V5.4C4 5 4.35 4.65 4.75 4.65H8.1V6.15H5.5V28.5H24.7V6.15H22.1V4.65H25.45C25.85 4.65 26.2 5 26.2 5.4Z" fill="black"/>
</svg>
