<svg width="16" height="18" viewBox="0 0 16 18" fill="none" xmlns="http://www.w3.org/2000/svg">
<path d="M1.16724 5.24465L14.8612 2.33398" stroke="#937206" stroke-width="1.5" stroke-linecap="round" stroke-linejoin="round"/>
<path fill-rule="evenodd" clip-rule="evenodd" d="M9.06662 1.52163L6.13329 2.14497C5.87313 2.19969 5.64547 2.35575 5.50061 2.57867C5.35575 2.80158 5.30562 3.07301 5.36129 3.33297L5.56929 4.31163L10.46 3.27163L10.252 2.29363C10.1972 2.03404 10.0415 1.80685 9.81923 1.66206C9.59692 1.51727 9.32619 1.46675 9.06662 1.52163Z" stroke="#937206" stroke-width="1.5" stroke-linecap="round" stroke-linejoin="round"/>
<path d="M7.16724 13V8" stroke="#937206" stroke-width="1.5" stroke-linecap="round" stroke-linejoin="round"/>
<path d="M10.1672 13V8" stroke="#937206" stroke-width="1.5" stroke-linecap="round" stroke-linejoin="round"/>
<path d="M12.4172 5H14.1672L13.2439 15.5827C13.2008 16.1024 12.7655 16.5018 12.2439 16.5H5.08724C4.56722 16.4997 4.13422 16.1009 4.09124 15.5827L3.3999 7.25133" stroke="#937206" stroke-width="1.5" stroke-linecap="round" stroke-linejoin="round"/>
</svg>
