<svg width="25" height="30" viewBox="0 0 25 30" fill="none" xmlns="http://www.w3.org/2000/svg">
<path d="M2.84516 28.802C3.22532 29.1831 3.67716 29.4852 4.17465 29.6908C4.67213 29.8964 5.2054 30.0015 5.7437 30H5.75758L18.5057 29.9583C19.5919 29.9529 20.6319 29.518 21.3987 28.7487C22.1655 27.9794 22.5969 26.9381 22.5988 25.8519V8.18712H23.5152C23.7065 8.18712 23.8899 8.11114 24.0252 7.97587C24.1605 7.84061 24.2364 7.65716 24.2364 7.46587V4.03505C24.2364 3.84376 24.1605 3.66031 24.0252 3.52505C23.8899 3.38979 23.7065 3.3138 23.5152 3.3138H17.0205V0.721253C17.0205 0.529965 16.9445 0.346511 16.8092 0.21125C16.674 0.075989 16.4905 0 16.2992 0H7.93811C7.74682 0 7.56337 0.075989 7.42811 0.21125C7.29285 0.346511 7.21686 0.529965 7.21686 0.721253V3.3138H0.721253C0.529965 3.3138 0.346511 3.38979 0.21125 3.52505C0.0759891 3.66031 0 3.84376 0 4.03505V7.46587C0 7.65716 0.0759891 7.84061 0.21125 7.97587C0.346511 8.11114 0.529965 8.18712 0.721253 8.18712H1.63761V25.8939C1.6361 26.4345 1.74208 26.9699 1.94939 27.4692C2.1567 27.9684 2.46119 28.4215 2.84516 28.802ZM21.1569 25.8519C21.1557 26.5565 20.8758 27.2321 20.3783 27.7312C19.8809 28.2302 19.2062 28.5123 18.5016 28.5158L5.75344 28.5575H5.74442C5.39461 28.5575 5.04823 28.4885 4.72505 28.3546C4.40188 28.2208 4.10824 28.0245 3.86091 27.7771C3.61357 27.5298 3.41738 27.2361 3.28353 26.9129C3.14969 26.5897 3.08081 26.2433 3.08083 25.8935V8.18676H21.1569V25.8519ZM8.65937 1.44251H15.578V3.3138H8.65937V1.44251ZM1.44251 4.7563H22.7945V6.74462H1.44251V4.7563Z" fill="black"/>
<path d="M12.1185 23.7871C12.3098 23.7871 12.4932 23.7111 12.6285 23.5758C12.7637 23.4405 12.8397 23.2571 12.8397 23.0658V12.1403C12.8397 11.949 12.7637 11.7655 12.6285 11.6303C12.4932 11.495 12.3098 11.419 12.1185 11.419C11.9272 11.419 11.7437 11.495 11.6085 11.6303C11.4732 11.7655 11.3972 11.949 11.3972 12.1403V23.0658C11.3972 23.2571 11.4732 23.4405 11.6085 23.5758C11.7437 23.7111 11.9272 23.7871 12.1185 23.7871Z" fill="black"/>
<path d="M7.75958 23.7871C7.95087 23.7871 8.13432 23.7111 8.26959 23.5758C8.40485 23.4405 8.48084 23.2571 8.48084 23.0658V12.1403C8.48084 11.949 8.40485 11.7655 8.26959 11.6303C8.13432 11.495 7.95087 11.419 7.75958 11.419C7.56829 11.419 7.38484 11.495 7.24958 11.6303C7.11432 11.7655 7.03833 11.949 7.03833 12.1403V23.0658C7.03833 23.2571 7.11432 23.4405 7.24958 23.5758C7.38484 23.7111 7.56829 23.7871 7.75958 23.7871Z" fill="black"/>
<path d="M16.4774 23.7871C16.6686 23.7871 16.8521 23.7111 16.9874 23.5758C17.1226 23.4405 17.1986 23.2571 17.1986 23.0658V12.1403C17.1986 11.949 17.1226 11.7655 16.9874 11.6303C16.8521 11.495 16.6686 11.419 16.4774 11.419C16.2861 11.419 16.1026 11.495 15.9674 11.6303C15.8321 11.7655 15.7561 11.949 15.7561 12.1403V23.0658C15.7561 23.2571 15.8321 23.4405 15.9674 23.5758C16.1026 23.7111 16.2861 23.7871 16.4774 23.7871Z" fill="black"/>
</svg>
