<svg width="28" height="28" viewBox="0 0 28 28" fill="none" xmlns="http://www.w3.org/2000/svg">
<path d="M13.9998 27.3337C6.63584 27.3337 0.666504 21.3643 0.666504 14.0003C0.666504 6.63633 6.63584 0.666992 13.9998 0.666992C21.3638 0.666992 27.3332 6.63633 27.3332 14.0003C27.3332 21.3643 21.3638 27.3337 13.9998 27.3337ZM13.9998 24.667C16.8288 24.667 19.5419 23.5432 21.5423 21.5428C23.5427 19.5424 24.6665 16.8293 24.6665 14.0003C24.6665 11.1713 23.5427 8.45824 21.5423 6.45785C19.5419 4.45747 16.8288 3.33366 13.9998 3.33366C11.1709 3.33366 8.45775 4.45747 6.45737 6.45785C4.45698 8.45824 3.33317 11.1713 3.33317 14.0003C3.33317 16.8293 4.45698 19.5424 6.45737 21.5428C8.45775 23.5432 11.1709 24.667 13.9998 24.667ZM19.9998 8.00033L16.6665 16.667L7.99984 20.0003L11.3332 11.3337L19.9998 8.00033ZM13.9998 15.3337C14.3535 15.3337 14.6926 15.1932 14.9426 14.9431C15.1927 14.6931 15.3332 14.3539 15.3332 14.0003C15.3332 13.6467 15.1927 13.3076 14.9426 13.0575C14.6926 12.8075 14.3535 12.667 13.9998 12.667C13.6462 12.667 13.3071 12.8075 13.057 13.0575C12.807 13.3076 12.6665 13.6467 12.6665 14.0003C12.6665 14.3539 12.807 14.6931 13.057 14.9431C13.3071 15.1932 13.6462 15.3337 13.9998 15.3337Z" fill="#FFFFFF"/>
</svg>
