<svg width="21" height="24" viewBox="0 0 21 24" fill="none" xmlns="http://www.w3.org/2000/svg">
<path d="M7.3457 17.5586C7.43555 17.3516 7.48047 17.1318 7.48047 16.8994C7.48047 16.667 7.43555 16.4492 7.3457 16.2461C7.25586 16.041 7.13086 15.8672 6.9707 15.7246C6.83398 15.6055 6.6709 15.5166 6.48145 15.458C6.29199 15.3994 6.05469 15.3701 5.76953 15.3701H5.13965V18.4287H5.76953C6.05469 18.4287 6.29199 18.4004 6.48145 18.3438C6.6709 18.2852 6.83398 18.1963 6.9707 18.0771C7.13086 17.9365 7.25586 17.7637 7.3457 17.5586ZM5.79883 19H4.53906V14.7988H5.79883C6.39844 14.7988 6.87891 14.9316 7.24023 15.1973C7.50195 15.3926 7.70703 15.6396 7.85547 15.9385C8.00586 16.2354 8.08105 16.5557 8.08105 16.8994C8.08105 17.2451 8.00684 17.5674 7.8584 17.8662C7.70996 18.165 7.50586 18.4111 7.24609 18.6045C6.88672 18.8682 6.4043 19 5.79883 19ZM8.78418 17.752C8.67676 17.4844 8.62305 17.2002 8.62305 16.8994C8.62305 16.5986 8.67676 16.3145 8.78418 16.0469C8.8916 15.7793 9.03809 15.5508 9.22363 15.3613C9.40918 15.1699 9.63184 15.0186 9.8916 14.9072C10.1514 14.7959 10.4277 14.7402 10.7207 14.7402C11.1113 14.7402 11.4668 14.835 11.7871 15.0244C12.1094 15.2119 12.3623 15.4707 12.5459 15.8008C12.7295 16.1309 12.8213 16.4971 12.8213 16.8994C12.8213 17.3018 12.7295 17.668 12.5459 17.998C12.3623 18.3281 12.1094 18.5879 11.7871 18.7773C11.4668 18.9648 11.1113 19.0586 10.7207 19.0586C10.4277 19.0586 10.1514 19.0029 9.8916 18.8916C9.63184 18.7803 9.40918 18.6299 9.22363 18.4404C9.03809 18.249 8.8916 18.0195 8.78418 17.752ZM9.2207 16.8994C9.2207 17.3545 9.36328 17.7334 9.64844 18.0361C9.93359 18.3389 10.291 18.4902 10.7207 18.4902C11.1504 18.4902 11.5078 18.3389 11.793 18.0361C12.0781 17.7334 12.2207 17.3545 12.2207 16.8994C12.2207 16.4463 12.0771 16.0684 11.79 15.7656C11.5049 15.4609 11.1484 15.3086 10.7207 15.3086C10.293 15.3086 9.93555 15.4609 9.64844 15.7656C9.36328 16.0684 9.2207 16.4463 9.2207 16.8994ZM13.3633 16.8994C13.3633 16.501 13.4551 16.1367 13.6387 15.8066C13.8223 15.4766 14.0762 15.2168 14.4004 15.0273C14.7266 14.8359 15.0889 14.7402 15.4873 14.7402C15.7861 14.7402 16.0703 14.7979 16.3398 14.9131C16.6113 15.0283 16.8389 15.1865 17.0225 15.3877L16.6211 15.7832C16.4941 15.6445 16.3281 15.5312 16.123 15.4434C15.918 15.3535 15.7061 15.3086 15.4873 15.3086C15.0576 15.3086 14.6953 15.4609 14.4004 15.7656C14.1074 16.0703 13.9609 16.4482 13.9609 16.8994C13.9609 17.21 14.0303 17.4873 14.1689 17.7314C14.3076 17.9736 14.4961 18.1611 14.7344 18.2939C14.9746 18.4248 15.2432 18.4902 15.54 18.4902C15.7979 18.4902 16.0283 18.4336 16.2314 18.3203C16.4365 18.2051 16.6084 18.0635 16.7471 17.8955L17.1719 18.2793C16.9883 18.5137 16.75 18.7021 16.457 18.8447C16.1641 18.9873 15.8584 19.0586 15.54 19.0586C15.2314 19.0586 14.9424 19.0039 14.6729 18.8945C14.4033 18.7852 14.1729 18.6357 13.9814 18.4463C13.79 18.2568 13.6387 18.0283 13.5273 17.7607C13.418 17.4932 13.3633 17.2061 13.3633 16.8994Z" fill="black"/>
<path d="M20.9616 7.39832C20.9345 7.32929 20.8966 7.26616 20.8424 7.20867L14.2038 0.172458C14.1549 0.120618 14.0954 0.0746797 14.025 0.045937C13.9599 0.0171943 13.8895 0 13.8191 0H0.541914C0.243861 0 0 0.258684 0 0.574854V23.4251C0 23.7413 0.243861 24 0.541914 24H20.4571C20.7551 24 20.999 23.7413 20.999 23.4251V7.61698C21.0043 7.5423 20.9881 7.47327 20.961 7.39859L20.9616 7.39832ZM14.3664 1.96592L19.157 7.04776H14.3664V1.96592ZM19.921 22.8558H1.08969V1.15521H13.2831V7.62235C13.2831 7.93852 13.5269 8.19721 13.825 8.19721H19.9215L19.921 22.8558Z" fill="#040404"/>
</svg>
