<svg width="18" height="18" viewBox="0 0 18 18" fill="none" xmlns="http://www.w3.org/2000/svg">
<path fill-rule="evenodd" clip-rule="evenodd" d="M2.24432 0C1.00951 0 0 0.976932 0 2.15618V15.8437C0 17.0231 1.00955 18 2.24432 18H15.7473C16.9882 18 18 17.0231 18 15.8437V2.15618C18 0.976786 16.9882 0 15.7473 0H2.24432ZM2.24432 0.906728H15.7473C16.47 0.906728 17.0528 1.47205 17.0528 2.15633V15.8438C17.0528 16.5281 16.47 17.0934 15.7473 17.0934H2.24432C1.53225 17.0934 0.947214 16.5281 0.947214 15.8438V2.15633C0.947214 1.47205 1.53209 0.906728 2.24432 0.906728Z" fill="white"/>
<path fill-rule="evenodd" clip-rule="evenodd" d="M3.26006 3.94395C3.13271 3.94138 3.0097 3.98804 2.91867 4.07336C2.82764 4.15868 2.77637 4.27539 2.77637 4.39739C2.77637 4.51924 2.82763 4.6361 2.91867 4.72127C3.0097 4.8066 3.13271 4.85326 3.26006 4.85069H14.7319C14.8593 4.85326 14.9823 4.8066 15.0733 4.72127C15.1644 4.6361 15.2156 4.51924 15.2156 4.39739C15.2156 4.2754 15.1644 4.15868 15.0733 4.07336C14.9823 3.98804 14.8593 3.94138 14.7319 3.94395H3.26006Z" fill="white"/>
<path fill-rule="evenodd" clip-rule="evenodd" d="M3.25976 13.2779C3.13256 13.2754 3.00954 13.322 2.91851 13.4073C2.82764 13.4927 2.77637 13.6094 2.77637 13.7312C2.77637 13.8531 2.82764 13.9698 2.91851 14.0551C3.00954 14.1404 3.13256 14.1871 3.25976 14.1845H14.7316C14.8588 14.1871 14.9818 14.1404 15.0729 14.0551C15.1638 13.9698 15.215 13.8531 15.215 13.7312C15.215 13.6094 15.1638 13.4927 15.0729 13.4073C14.9818 13.322 14.8588 13.2754 14.7316 13.2779H3.25976Z" fill="white"/>
<path fill-rule="evenodd" clip-rule="evenodd" d="M3.25976 10.0489C3.13256 10.0464 3.00954 10.093 2.91851 10.1783C2.82764 10.2637 2.77637 10.3804 2.77637 10.5022C2.77637 10.6241 2.82764 10.7409 2.91851 10.8261C3.00954 10.9114 3.13256 10.9581 3.25976 10.9557H11.8197C11.9469 10.9581 12.0699 10.9114 12.1609 10.8261C12.2518 10.7409 12.3031 10.6241 12.3031 10.5022C12.3031 10.3804 12.2518 10.2637 12.1609 10.1783C12.0699 10.093 11.9469 10.0464 11.8197 10.0489H3.25976Z" fill="white"/>
<path fill-rule="evenodd" clip-rule="evenodd" d="M3.26006 6.9C3.13271 6.89743 3.0097 6.94409 2.91867 7.02942C2.82764 7.11459 2.77637 7.23145 2.77637 7.3533C2.77637 7.47529 2.82763 7.59201 2.91867 7.67733C3.0097 7.76265 3.13271 7.80931 3.26006 7.80674H9.5627C9.69005 7.80931 9.81307 7.76266 9.9041 7.67733C9.99513 7.59201 10.0464 7.4753 10.0464 7.3533C10.0464 7.23145 9.99513 7.11459 9.9041 7.02942C9.81307 6.94409 9.69005 6.89744 9.5627 6.9H3.26006Z" fill="white"/>
</svg>
