<svg width="56" height="80" viewBox="0 0 56 80" fill="none" xmlns="http://www.w3.org/2000/svg">
<path d="M50.165 80H5.83314C2.58325 80 0 77.3608 0 74.2268V5.7732C0 2.5567 2.66658 0 5.83314 0H50.165C53.4149 0 55.9981 2.63918 55.9981 5.7732V74.2268C56.0814 77.3608 53.4149 80 50.165 80ZM5.83314 1.56701C3.49988 1.56701 1.66661 3.46392 1.66661 5.69072V74.1443C1.66661 76.4536 3.58321 78.268 5.83314 78.268H50.165C52.4982 78.268 54.3315 76.3711 54.3315 74.1443V5.69072C54.3315 3.38144 52.4149 1.56701 50.165 1.56701H5.83314Z" fill="#007BB5" fill-opacity="0.9"/>
<path d="M46.4985 12.2062H9.58306C9.08308 12.2062 8.74976 11.8764 8.74976 11.3815C8.74976 10.8867 9.08308 10.5568 9.58306 10.5568H46.5818C47.0818 10.5568 47.4151 10.8867 47.4151 11.3815C47.3318 11.8764 46.9985 12.2062 46.4985 12.2062Z" fill="#007BB5"/>
<path d="M46.4985 21.196H9.58306C9.08308 21.196 8.74976 20.8661 8.74976 20.3713C8.74976 19.8764 9.08308 19.5465 9.58306 19.5465H46.5818C47.0818 19.5465 47.4151 19.8764 47.4151 20.3713C47.3318 20.7836 46.9985 21.196 46.4985 21.196Z" fill="#007BB5"/>
<path d="M46.4985 30.1031H9.58306C9.08308 30.1031 8.74976 29.7732 8.74976 29.2784C8.74976 28.7835 9.08308 28.4536 9.58306 28.4536H46.5818C47.0818 28.4536 47.4151 28.7835 47.4151 29.2784C47.4151 29.7732 46.9985 30.1031 46.4985 30.1031Z" fill="#007BB5"/>
<path d="M46.4985 39.0103H9.58306C9.08308 39.0103 8.74976 38.6804 8.74976 38.1856C8.74976 37.6907 9.08308 37.3608 9.58306 37.3608H46.5818C47.0818 37.3608 47.4151 37.6907 47.4151 38.1856C47.3318 38.6804 46.9985 39.0103 46.4985 39.0103Z" fill="#007BB5"/>
<path d="M33.1656 47.9176H9.58306C9.08308 47.9176 8.74976 47.5877 8.74976 47.0928C8.74976 46.598 9.08308 46.2681 9.58306 46.2681H33.1656C33.6656 46.2681 33.9989 46.598 33.9989 47.0928C33.9989 47.5877 33.5822 47.9176 33.1656 47.9176Z" fill="#007BB5"/>
<path d="M12.9997 70.6804H9.4165V58.1443H13.083C17.4996 58.1443 19.7495 60.701 19.7495 64.4123C19.7495 68.1237 17.3329 70.6804 12.9997 70.6804ZM13.1664 59.7113H11.1664V69.1958H13.083C16.1663 69.1958 17.9995 67.6288 17.9995 64.4948C17.9995 61.2783 16.0829 59.7113 13.1664 59.7113Z" fill="#007BB5"/>
<path d="M27.6657 70.9279C24.0824 70.9279 21.8325 68.2887 21.8325 64.4124C21.8325 60.5361 24.1658 57.897 27.6657 57.897C31.2489 57.897 33.4988 60.5361 33.4988 64.4124C33.4988 68.2887 31.2489 70.9279 27.6657 70.9279ZM27.6657 59.464C25.1657 59.464 23.5825 61.3609 23.5825 64.4124C23.5825 67.464 25.1657 69.3609 27.6657 69.3609C30.1656 69.3609 31.7488 67.464 31.7488 64.4124C31.7488 61.3609 30.1656 59.464 27.6657 59.464Z" fill="#007BB5"/>
<path d="M41.4152 70.9279C37.832 70.9279 35.582 68.2887 35.582 64.4124C35.582 60.5361 37.9153 57.897 41.4985 57.897C42.9984 57.897 44.1651 58.3093 45.0817 58.9691L44.8317 60.7011C43.9151 60.0413 42.8318 59.464 41.4985 59.464C38.9153 59.464 37.4153 61.3609 37.4153 64.4124C37.4153 67.464 38.9986 69.3609 41.4985 69.3609C42.8318 69.3609 44.0817 68.866 45.0817 68.1238L45.3317 69.7733C44.2484 70.4331 42.8318 70.9279 41.4152 70.9279Z" fill="#007BB5"/>
</svg>
