<svg width="18" height="18" viewBox="0 0 18 18" fill="none" xmlns="http://www.w3.org/2000/svg">
<path fill-rule="evenodd" clip-rule="evenodd" d="M2.24432 0C1.00951 0 0 0.976932 0 2.15618V15.8437C0 17.0231 1.00955 18 2.24432 18H15.7473C16.9882 18 18 17.0231 18 15.8437V2.15618C18 0.976786 16.9882 0 15.7473 0H2.24432ZM2.24432 0.906728H15.7473C16.47 0.906728 17.0528 1.47205 17.0528 2.15633V15.8438C17.0528 16.5281 16.47 17.0934 15.7473 17.0934H2.24432C1.53225 17.0934 0.947214 16.5281 0.947214 15.8438V2.15633C0.947214 1.47205 1.53209 0.906728 2.24432 0.906728Z" fill="black"/>
<path fill-rule="evenodd" clip-rule="evenodd" d="M3.26006 3.94419C3.13271 3.94162 3.0097 3.98828 2.91867 4.07361C2.82764 4.15893 2.77637 4.27564 2.77637 4.39763C2.77637 4.51948 2.82763 4.63634 2.91867 4.72152C3.0097 4.80684 3.13271 4.8535 3.26006 4.85093H14.7319C14.8593 4.8535 14.9823 4.80684 15.0733 4.72152C15.1644 4.63634 15.2156 4.51948 15.2156 4.39763C15.2156 4.27564 15.1644 4.15893 15.0733 4.07361C14.9823 3.98828 14.8593 3.94162 14.7319 3.94419H3.26006Z" fill="black"/>
<path fill-rule="evenodd" clip-rule="evenodd" d="M3.25976 13.2779C3.13256 13.2754 3.00954 13.322 2.91851 13.4073C2.82764 13.4927 2.77637 13.6094 2.77637 13.7312C2.77637 13.8531 2.82764 13.9698 2.91851 14.0551C3.00954 14.1404 3.13256 14.1871 3.25976 14.1845H14.7316C14.8588 14.1871 14.9818 14.1404 15.0729 14.0551C15.1638 13.9698 15.215 13.8531 15.215 13.7312C15.215 13.6094 15.1638 13.4927 15.0729 13.4073C14.9818 13.322 14.8588 13.2754 14.7316 13.2779H3.25976Z" fill="black"/>
<path fill-rule="evenodd" clip-rule="evenodd" d="M3.25976 10.0487C3.13256 10.0461 3.00954 10.0928 2.91851 10.1781C2.82764 10.2634 2.77637 10.3801 2.77637 10.502C2.77637 10.6238 2.82764 10.7407 2.91851 10.8259C3.00954 10.9112 3.13256 10.9578 3.25976 10.9554H11.8197C11.9469 10.9578 12.0699 10.9112 12.1609 10.8259C12.2518 10.7407 12.3031 10.6238 12.3031 10.502C12.3031 10.3801 12.2518 10.2634 12.1609 10.1781C12.0699 10.0928 11.9469 10.0461 11.8197 10.0487H3.25976Z" fill="black"/>
<path fill-rule="evenodd" clip-rule="evenodd" d="M3.26006 6.90025C3.13271 6.89768 3.0097 6.94433 2.91867 7.02966C2.82764 7.11484 2.77637 7.23169 2.77637 7.35355C2.77637 7.47554 2.82763 7.59225 2.91867 7.67757C3.0097 7.7629 3.13271 7.80955 3.26006 7.80699H9.5627C9.69005 7.80955 9.81307 7.7629 9.9041 7.67757C9.99513 7.59225 10.0464 7.47554 10.0464 7.35355C10.0464 7.2317 9.99513 7.11484 9.9041 7.02966C9.81307 6.94434 9.69005 6.89768 9.5627 6.90025H3.26006Z" fill="black"/>
</svg>
