<svg width="30" height="29" viewBox="0 0 30 29" fill="none" xmlns="http://www.w3.org/2000/svg">
<path d="M27.8543 2.14351C24.9972 -0.714505 20.3429 -0.714505 17.4829 2.14351C16.4495 3.18055 15.7927 4.45467 15.506 5.78851C14.3025 5.36839 13.0123 5.13809 11.6686 5.13809C5.23421 5.13809 0 10.374 0 16.8073C0 19.0084 0.609983 21.1392 1.77369 22.9971L0.689996 26.9725C0.626742 27.2025 0.693252 27.4494 0.859995 27.6194C1.02999 27.7894 1.27673 27.8529 1.50671 27.7894L5.4841 26.7057C7.33781 27.8695 9.46822 28.4799 11.6685 28.4799C18.1029 28.4799 23.3371 23.244 23.3371 16.8077C23.3371 16.0707 23.2638 15.3471 23.1304 14.6433C24.854 14.5366 26.5443 13.8329 27.8545 12.5223C30.7151 9.66097 30.7151 5.00561 27.8547 2.14414L27.8543 2.14351ZM11.6683 27.1452C9.62786 27.1452 7.65765 26.5516 5.96398 25.4278C5.85072 25.3545 5.72398 25.3177 5.59399 25.3177C5.53399 25.3177 5.47724 25.3245 5.41724 25.341L2.28332 26.1947L3.1368 23.0598C3.1868 22.873 3.1568 22.6762 3.05006 22.5162C1.9266 20.822 1.3331 18.8477 1.3331 16.8069C1.3331 11.1076 5.96721 6.47223 11.6682 6.47223C12.9617 6.47223 14.2019 6.7123 15.3456 7.14916C15.2988 9.0902 16.0058 11.0442 17.4825 12.5216C18.6827 13.7189 20.1964 14.4091 21.7631 14.6027C21.9199 15.3131 22.0031 16.0533 22.0031 16.8071C22.0034 22.5099 17.366 27.1453 11.6681 27.1453L11.6683 27.1452ZM18.4259 11.5777C16.0856 9.23664 16.0856 5.42781 18.4259 3.08741C19.5961 1.91686 21.1331 1.33319 22.67 1.33319C24.207 1.33319 25.744 1.91685 26.9142 3.08741C29.2513 5.42852 29.2513 9.23735 26.9142 11.5777C24.5738 13.9189 20.7661 13.9189 18.4258 11.5777H18.4259Z" fill="white"/>
<path d="M25.1435 5.3279L21.6097 8.86613L20.1927 7.44873C19.9327 7.18865 19.5125 7.18865 19.2492 7.44873C18.9892 7.7123 18.9892 8.13239 19.2492 8.39251L21.1361 10.28C21.2629 10.4033 21.4296 10.4768 21.6096 10.4768C21.7863 10.4768 21.9531 10.4035 22.0796 10.28L26.0869 6.27145C26.3469 6.01137 26.3469 5.58779 26.0869 5.32767C25.8269 5.06782 25.4037 5.06782 25.1434 5.3279L25.1435 5.3279Z" fill="white"/>
<circle cx="11.75" cy="16.75" r="1.25" fill="white"/>
<circle cx="16.75" cy="16.75" r="1.25" fill="white"/>
<circle cx="6.75" cy="16.75" r="1.25" fill="white"/>
</svg>
