<svg width="18" height="11" viewBox="0 0 18 11" fill="none" xmlns="http://www.w3.org/2000/svg">
<path d="M10.9281 6.51385C10.9219 6.52457 10.9155 6.53545 10.9092 6.54616C10.5254 7.17391 9.82047 7.59461 9.0104 7.59718C7.91986 7.60075 7.02334 6.86295 6.82418 5.86908C6.81983 5.84797 6.81631 5.82654 6.81246 5.80511C6.81095 5.79666 6.80928 5.78855 6.80793 5.78043C6.70156 5.1282 6.90878 4.44006 7.43091 3.93249C8.08673 3.29485 9.04878 3.1406 9.85418 3.46923C9.86038 3.47183 9.86674 3.47459 9.87294 3.47718C9.89388 3.48579 9.91448 3.49472 9.93509 3.50397C10.5345 3.7714 10.9852 4.28822 11.1492 4.92132C11.2779 5.40437 11.2291 5.92021 11.0025 6.37728C11.0001 6.38199 10.9976 6.38654 10.9953 6.39125C10.9832 6.41528 10.971 6.43898 10.9577 6.46253C10.9484 6.47958 10.9381 6.49662 10.9281 6.51384L10.9281 6.51385ZM17.7466 6.20909C17.7466 6.20909 17.5821 6.38899 17.1579 6.80823C15.9443 8.00814 14.6112 9.06406 13.0831 9.87183C11.8983 10.4982 10.649 10.9316 9.28693 10.9932C9.19094 10.9976 9.09512 10.9995 8.99998 11C8.90466 10.9998 8.80901 10.9977 8.71302 10.9932C7.35061 10.9318 6.10149 10.4983 4.91683 9.87183C3.38875 9.06402 2.05567 8.00831 0.84202 6.80823C0.417874 6.38899 0.253355 6.20909 0.253355 6.20909C-0.0987589 5.82378 -0.0816735 5.2089 0.291046 4.84241C0.291046 4.84241 1.90403 3.25717 3.2182 2.3112C4.32932 1.5112 5.50442 0.820484 6.82142 0.37946C7.53771 0.139478 8.26205 0.001459 9.0003 0C9.7382 0.00146132 10.4628 0.139478 11.1792 0.37946C12.4962 0.820609 13.6711 1.51149 14.7824 2.3112C16.0966 3.25717 17.7095 4.84241 17.7095 4.84241C18.0816 5.20888 18.0987 5.82393 17.7466 6.20909H17.7466ZM12.9998 5.56709C12.9993 5.54241 12.9991 5.51432 12.9996 5.50425V5.49516C12.9998 5.46609 12.9998 5.43703 12.9995 5.40812C12.9995 5.40488 12.9996 5.40163 12.9996 5.39806C13.0219 3.25134 11.2402 1.49485 9.02148 1.47585H8.9997C8.9925 1.47585 8.98513 1.47569 8.97793 1.47585C6.75904 1.49501 4.97752 3.25154 4.99978 5.39806C4.99978 5.4013 4.99995 5.40455 4.99995 5.40812C4.99944 5.43703 4.99944 5.46609 4.99978 5.49516V5.50425C4.99995 5.51432 4.99995 5.54273 4.99961 5.56709L4.99978 5.58966C4.99978 5.59924 5.00028 5.60849 5.00045 5.61807C5.00028 5.6408 4.99944 5.6637 4.99978 5.68675C5.02155 7.8013 6.82585 9.52894 8.99967 9.52046C11.1735 9.5289 12.9778 7.80113 12.9996 5.68675C12.9997 5.66369 12.9991 5.64096 12.9989 5.61807C12.9991 5.60849 12.9994 5.59924 12.9996 5.58966C12.9997 5.56709 12.9997 5.56709 12.9997 5.56709H12.9998Z" fill="#645D57"/>
</svg>
