<svg width="14" height="13" viewBox="0 0 14 13" fill="none" xmlns="http://www.w3.org/2000/svg">
<path d="M7.00083 1.01932C8.56683 -0.38668 10.9868 -0.340013 12.4955 1.17132C14.0035 2.68332 14.0555 5.09132 12.6528 6.66199L6.9995 12.3233L1.3475 6.66199C-0.0551666 5.09132 -0.00249976 2.67932 1.50483 1.17132C3.01483 -0.338013 5.43017 -0.38868 7.00083 1.01932ZM11.5515 2.11332C10.5515 1.11199 8.93817 1.07132 7.8915 2.01132L7.0015 2.80999L6.11083 2.01199C5.06083 1.07065 3.45083 1.11199 2.44817 2.11465C1.45483 3.10799 1.40483 4.69799 2.32017 5.74865L7.00017 10.436L11.6802 5.74932C12.5962 4.69799 12.5462 3.10999 11.5515 2.11332Z" fill="#D1CFC9"/>
</svg>
