<svg width="11" height="16" viewBox="0 0 11 16" fill="none" xmlns="http://www.w3.org/2000/svg">
<path d="M3.72486 9.35849C3.72619 9.67455 3.82671 9.98221 4.01223 10.2381C4.19774 10.494 4.4589 10.6852 4.75888 10.7847V12.1397H5.7097V10.7847C6.00949 10.6849 6.27045 10.4936 6.45591 10.2378C6.64138 9.98196 6.74203 9.67446 6.74372 9.35849C6.74372 8.95817 6.5847 8.57423 6.30162 8.29116C6.01855 8.00809 5.63462 7.84906 5.23429 7.84906C4.83397 7.84906 4.45003 8.00809 4.16696 8.29116C3.88388 8.57423 3.72486 8.95817 3.72486 9.35849ZM5.23429 8.79988C5.38245 8.79988 5.52453 8.85874 5.62929 8.9635C5.73405 9.06826 5.7929 9.21034 5.7929 9.35849C5.79227 9.50645 5.73322 9.64817 5.6286 9.7528C5.52397 9.85742 5.38225 9.91647 5.23429 9.9171C5.08614 9.9171 4.94405 9.85825 4.83929 9.75349C4.73453 9.64873 4.67568 9.50664 4.67568 9.35849C4.67568 9.28473 4.69029 9.2117 4.71866 9.14362C4.74703 9.07553 4.78859 9.01374 4.84097 8.96181C4.89335 8.90987 4.95549 8.86882 5.02382 8.84103C5.09214 8.81324 5.16529 8.79926 5.23904 8.79988H5.23429ZM9.45358 6.20888L9.16833 6.11856V1.80419L7.96553 0.603776L5.16298 0L2.24395 0.615658L1.08632 1.77329V6.17561L0.976976 6.21126L0 7.18824V9.92898C0.0028935 11.0998 0.336145 12.246 0.96143 13.2359C1.58671 14.2257 2.47865 15.019 3.5347 15.5246L4.55683 16H6.25405L7.12168 15.5507C8.13114 15.03 8.97757 14.2411 9.56801 13.2708C10.1584 12.3004 10.47 11.1861 10.4686 10.0502V7.19774L9.45358 6.20888ZM2.27485 1.82321L5.1606 1.21468L7.9798 1.82321V5.74536L5.99495 5.12494H4.30248L2.27485 5.78815V1.82321ZM9.28005 10.0621C9.28172 10.9799 9.03033 11.8804 8.55352 12.6646C8.0767 13.4488 7.39293 14.0863 6.57733 14.5072L5.42208 15.1062L4.04576 14.4502C3.19379 14.0416 2.47424 13.4012 1.9697 12.6024C1.46516 11.8035 1.19606 10.8786 1.19329 9.93374V7.39741L5.14396 6.10667L9.2848 7.40217L9.28005 10.0621Z" fill="#A3A3A3"/>
</svg>
