<svg width="76" height="63" viewBox="0 0 76 63" fill="none" xmlns="http://www.w3.org/2000/svg">
<path d="M33.1012 7.62097L32.2429 8.13413L32.2441 8.1361L33.1012 7.62097ZM31.3844 4.74951L30.5257 5.26202L30.5261 5.26267L31.3844 4.74951ZM19.5 8.92707C18.9477 8.92707 18.5 9.37479 18.5 9.92707C18.5 10.4794 18.9477 10.9271 19.5 10.9271V8.92707ZM67.3188 8.92707H37.1564V10.9271H67.3188V8.92707ZM37.1564 8.92707C35.8668 8.92707 34.637 8.2352 33.9583 7.10585L32.2441 8.1361C33.2821 9.86333 35.1604 10.9271 37.1564 10.9271V8.92707ZM33.9595 7.10781L32.2427 4.23635L30.5261 5.26267L32.2429 8.13413L33.9595 7.10781ZM32.2431 4.237C30.6879 1.63131 27.8473 0.00024122 24.7984 0.00024122V2.00024C27.1367 2.00024 29.3281 3.25551 30.5257 5.26202L32.2431 4.237ZM24.7984 0.00024122H8.68119V2.00024H24.7984V0.00024122ZM8.68119 0.00024122C3.89116 0.00024122 -4.64916e-06 3.91951 -4.64916e-06 8.72195H2C2 5.01415 5.00563 2.00024 8.68119 2.00024V0.00024122ZM-4.64916e-06 8.72195V54.2785H2V8.72195H-4.64916e-06ZM-4.64916e-06 54.2785C-4.64916e-06 59.081 3.89116 63.0002 8.68119 63.0002V61.0002C5.00563 61.0002 2 57.9863 2 54.2785H-4.64916e-06ZM8.68119 63.0002H67.3188V61.0002H8.68119V63.0002ZM67.3188 63.0002C72.1088 63.0002 76 59.081 76 54.2785H74C74 57.9863 70.9944 61.0002 67.3188 61.0002V63.0002ZM76 54.2785V17.6488H74V54.2785H76ZM76 17.6488C76 12.8463 72.1088 8.92707 67.3188 8.92707V10.9271C70.9944 10.9271 74 13.941 74 17.6488H76ZM37.1564 8.92707H19.5V10.9271H37.1564V8.92707Z" fill="#BAB8B2"/>
</svg>
