<svg width="20" height="16" viewBox="0 0 20 16" fill="none" xmlns="http://www.w3.org/2000/svg">
<path d="M8.86713 2.7819L8.31001 3.11675L8.31079 3.11803L8.86713 2.7819ZM8.47647 2.13193L7.9191 2.46635L7.91936 2.46678L8.47647 2.13193ZM5.77218 2.6539C5.41319 2.6539 5.12218 2.94492 5.12218 3.3039C5.12218 3.66289 5.41319 3.9539 5.77218 3.9539V2.6539ZM16.6533 2.6539H9.78989V3.9539H16.6533V2.6539ZM9.78989 2.6539C9.64404 2.6539 9.50129 2.57457 9.42348 2.44578L8.31079 3.11803C8.62363 3.63584 9.18811 3.9539 9.78989 3.9539V2.6539ZM9.42425 2.44706L9.03359 1.79708L7.91936 2.46678L8.31002 3.11675L9.42425 2.44706ZM9.03384 1.79751C8.60367 1.08056 7.82005 0.633258 6.97783 0.633258V1.93326C7.36146 1.93326 7.72287 2.1393 7.9191 2.46635L9.03384 1.79751ZM6.97783 0.633258H3.31036V1.93326H6.97783V0.633258ZM3.31036 0.633258C1.9882 0.633258 0.912499 1.70896 0.912499 3.03112H2.2125C2.2125 2.42693 2.70617 1.93326 3.31036 1.93326V0.633258ZM0.912499 3.03112V13.3431H2.2125V3.03112H0.912499ZM0.912499 13.3431C0.912499 14.6653 1.9882 15.741 3.31036 15.741V14.441C2.70617 14.441 2.2125 13.9473 2.2125 13.3431H0.912499ZM3.31036 15.741H16.6533V14.441H3.31036V15.741ZM16.6533 15.741C17.9755 15.741 19.0512 14.6653 19.0512 13.3431H17.7512C17.7512 13.9473 17.2575 14.441 16.6533 14.441V15.741ZM19.0512 13.3431V5.05176H17.7512V13.3431H19.0512ZM19.0512 5.05176C19.0512 3.7296 17.9755 2.6539 16.6533 2.6539V3.9539C17.2575 3.9539 17.7512 4.44757 17.7512 5.05176H19.0512ZM9.78989 2.6539H5.77218V3.9539H9.78989V2.6539Z" fill="black"/>
</svg>
