<svg width="30" height="30" viewBox="0 0 30 30" fill="none" xmlns="http://www.w3.org/2000/svg">
<rect width="30" height="30" rx="4" fill="black" fill-opacity="0.4"/>
<path d="M23.3394 6.00066C23.3147 6.00116 23.2911 6.00342 23.268 6.00681L23.2714 6.00631H18.2107H18.2017C17.8466 6.00631 17.5591 6.29382 17.5591 6.64889C17.5591 7.00396 17.8466 7.29147 18.2017 7.29147H18.2112H21.8005L17.7566 11.3356C17.6407 11.452 17.5692 11.6119 17.5692 11.7891C17.5692 12.1442 17.8573 12.4317 18.2124 12.4317C18.3891 12.4317 18.5495 12.3602 18.6653 12.2449L22.7092 8.20082V11.7903V11.7993C22.7092 12.1544 22.9967 12.4419 23.3518 12.4419C23.7069 12.4419 23.9943 12.1544 23.9943 11.7993V11.7898V11.7903V6.72749C23.9977 6.70212 24 6.67235 24 6.64258C24 6.2875 23.7125 6 23.3574 6C23.3513 6 23.3445 6 23.3384 6.0005L23.3394 6.00066ZM6.63352 17.5661C6.28234 17.5718 6 17.857 6 18.2087V18.2182V18.2177V23.3593V23.3609V23.3626C6 23.3811 6.00113 23.3997 6.00276 23.4177L6.00226 23.4149C6.00276 23.42 6.00276 23.4228 6.00276 23.4256V23.4233C6.0044 23.4424 6.00728 23.4588 6.01005 23.4751L6.00955 23.4712C6.01118 23.4814 6.01231 23.4875 6.01344 23.4932L6.01294 23.4893C6.0265 23.5517 6.04722 23.6075 6.07423 23.6581L6.07259 23.6547C6.07649 23.6631 6.07938 23.6677 6.08214 23.6722L6.08051 23.6688C6.09005 23.6856 6.09797 23.6992 6.10701 23.7126L6.10538 23.7104C6.10927 23.7171 6.11216 23.721 6.11492 23.7249L6.11329 23.7227C6.14934 23.7739 6.19041 23.8184 6.23713 23.8561L6.23826 23.8572C6.23989 23.8583 6.24165 23.8606 6.24391 23.8622L6.24442 23.8627C6.34904 23.9455 6.48192 23.9966 6.62649 24H6.627H6.63428H6.64219H11.7829H11.7919C12.147 24 12.4345 23.7125 12.4345 23.3574C12.4345 23.0023 12.147 22.7148 11.7919 22.7148H11.7824H8.19373L12.237 18.6707C12.3568 18.5537 12.4312 18.391 12.4312 18.2104C12.4312 17.8553 12.1437 17.5678 11.7886 17.5678C11.7825 17.5678 11.7757 17.5678 11.7696 17.5683H11.7707C11.5974 17.5733 11.4415 17.6466 11.329 17.7619L7.28503 21.8073V18.2172V18.2088C7.28503 17.8537 6.99691 17.5662 6.64248 17.5662H6.63231H6.63281L6.63352 17.5661Z" fill="white"/>
</svg>
