<svg width="28" height="26" viewBox="0 0 28 26" fill="none" xmlns="http://www.w3.org/2000/svg">
<path d="M11.7002 1.75C11.7002 2.7165 12.4837 3.5 13.4502 3.5C14.4167 3.5 15.2002 2.7165 15.2002 1.75C15.2002 0.783502 14.4167 0 13.4502 0C12.4837 0 11.7002 0.783502 11.7002 1.75Z" fill="black"/>
<path d="M24 1.75C24 2.7165 24.7835 3.5 25.75 3.5C26.7165 3.5 27.5 2.7165 27.5 1.75C27.5 0.783502 26.7165 0 25.75 0C24.7835 0 24 0.783502 24 1.75Z" fill="black"/>
<path d="M0 1.75C0 2.7165 0.783502 3.5 1.75 3.5C2.7165 3.5 3.5 2.7165 3.5 1.75C3.5 0.783502 2.7165 0 1.75 0C0.783502 0 0 0.783502 0 1.75Z" fill="black"/>
<path d="M11.7002 12.75C11.7002 13.7165 12.4837 14.5 13.4502 14.5C14.4167 14.5 15.2002 13.7165 15.2002 12.75C15.2002 11.7835 14.4167 11 13.4502 11C12.4837 11 11.7002 11.7835 11.7002 12.75Z" fill="black"/>
<path d="M23.5 12.75C23.5 13.7165 24.2835 14.5 25.25 14.5C26.2165 14.5 27 13.7165 27 12.75C27 11.7835 26.2165 11 25.25 11C24.2835 11 23.5 11.7835 23.5 12.75Z" fill="black"/>
<path d="M0 12.75C0 13.7165 0.783502 14.5 1.75 14.5C2.7165 14.5 3.5 13.7165 3.5 12.75C3.5 11.7835 2.7165 11 1.75 11C0.783502 11 0 11.7835 0 12.75Z" fill="black"/>
<path d="M11.7002 23.75C11.7002 24.7165 12.4837 25.5 13.4502 25.5C14.4167 25.5 15.2002 24.7165 15.2002 23.75C15.2002 22.7835 14.4167 22 13.4502 22C12.4837 22 11.7002 22.7835 11.7002 23.75Z" fill="black"/>
<path d="M23.5 23.75C23.5 24.7165 24.2835 25.5 25.25 25.5C26.2165 25.5 27 24.7165 27 23.75C27 22.7835 26.2165 22 25.25 22C24.2835 22 23.5 22.7835 23.5 23.75Z" fill="black"/>
<path d="M0 23.75C0 24.7165 0.783502 25.5 1.75 25.5C2.7165 25.5 3.5 24.7165 3.5 23.75C3.5 22.7835 2.7165 22 1.75 22C0.783502 22 0 22.7835 0 23.75Z" fill="black"/>
</svg>
