<svg width="20" height="20" viewBox="0 0 20 20" fill="none" xmlns="http://www.w3.org/2000/svg">
<path d="M9.99971 1.86212L11.5766 0.285275C11.7768 0.0850238 12.1232 0.0812227 12.3187 0.276752L19.8525 7.81053C20.0482 8.00624 20.0441 8.35265 19.844 8.55272L18.2672 10.1296C18.0669 10.3298 17.7205 10.3336 17.525 10.1381L9.96673 2.57985C9.79599 2.35918 9.7994 2.0623 9.99965 1.86206L9.99971 1.86212ZM11.4158 18.5956L12.9259 14.1992L16.7804 10.3448L9.73583 3.30018L5.90646 7.12955L1.51007 8.63971C1.13812 8.71819 1.00878 9.1898 1.27785 9.45887L10.5972 18.7783C10.8657 19.097 11.3129 18.9433 11.4158 18.5958L11.4158 18.5956ZM1.03218 17.9231C0.731891 18.2234 0.70124 18.7434 1.01911 19.0613L1.04351 19.0857C1.33698 19.3792 1.85641 19.3979 2.18167 19.0726L6.0112 15.2434L4.88594 14.1182L1.05657 17.9475L1.03218 17.9231Z" fill="#E8E6DF"/>
</svg>
