<svg width="187" height="38" viewBox="0 0 187 38" fill="none" xmlns="http://www.w3.org/2000/svg">
<g filter="url(#filter0_d_3712_232865)">
<path d="M16.3591 23.5531V17.93H10.5638V16.4904H17.8725V23.9222C17.1015 24.9147 16.1089 25.7104 14.8949 26.3092C13.6809 26.8998 12.4053 27.1951 11.0683 27.1951C9.33747 27.1951 7.77892 26.8055 6.39264 26.0262C5.01455 25.2388 3.93588 24.156 3.1566 22.7779C2.38553 21.3998 2 19.8495 2 18.1269C2 16.4453 2.37733 14.9154 3.132 13.5374C3.89486 12.1511 4.95303 11.0601 6.30651 10.2644C7.66818 9.46053 9.18161 9.05859 10.8468 9.05859C12.1018 9.05859 13.2871 9.29648 14.4027 9.77224C15.5265 10.248 16.474 10.9083 17.245 11.7532L16.2115 12.7868C15.5798 12.0814 14.7924 11.5236 13.849 11.1134C12.9139 10.7033 11.9132 10.4982 10.8468 10.4982C9.46051 10.4982 8.20547 10.8386 7.08168 11.5195C5.95788 12.2003 5.08018 13.1231 4.44856 14.2879C3.82514 15.4527 3.51343 16.7324 3.51343 18.1269C3.51343 19.546 3.82924 20.8379 4.46086 22.0027C5.09248 23.1593 5.97839 24.078 7.11859 24.7589C8.26699 25.4315 9.55894 25.7678 10.9944 25.7678C12.0444 25.7678 13.037 25.571 13.9721 25.1772C14.9072 24.7835 15.7029 24.2421 16.3591 23.5531Z" fill="white"/>
<path d="M42.7012 26.949H40.8924L34.0881 17.93H31.1105V26.949H29.5971V9.30468H35.6262C37.0617 9.30468 38.2019 9.68611 39.0468 10.449C39.4815 10.8427 39.8219 11.3144 40.068 11.864C40.3141 12.4136 40.4372 13.0001 40.4372 13.6235C40.4372 14.2469 40.3141 14.8334 40.068 15.383C39.8219 15.9326 39.4815 16.4043 39.0468 16.798C38.2839 17.5116 37.2339 17.889 35.8969 17.93L42.7012 26.949ZM31.1105 16.4904H35.5524C36.6515 16.4904 37.4636 16.2402 37.9886 15.7398C38.612 15.1656 38.9237 14.4602 38.9237 13.6235C38.9237 12.7868 38.612 12.0814 37.9886 11.5072C37.4554 10.9986 36.6433 10.7443 35.5524 10.7443H31.1105V16.4904Z" fill="white"/>
<path d="M51.9525 21.7074C51.5096 20.5836 51.2881 19.3901 51.2881 18.1269C51.2881 16.8636 51.5096 15.6701 51.9525 14.5463C52.4037 13.4225 53.0148 12.4628 53.7859 11.6671C54.5651 10.8632 55.4962 10.2275 56.5789 9.75994C57.6617 9.29238 58.8183 9.05859 60.0487 9.05859C61.6893 9.05859 63.1781 9.45643 64.5152 10.2521C65.8605 11.0396 66.9145 12.1265 67.6774 13.5128C68.4403 14.899 68.8217 16.4371 68.8217 18.1269C68.8217 19.8167 68.4403 21.3547 67.6774 22.741C66.9145 24.1273 65.8605 25.2182 64.5152 26.0139C63.1781 26.8014 61.6893 27.1951 60.0487 27.1951C58.8183 27.1951 57.6617 26.9614 56.5789 26.4938C55.4962 26.0262 54.5651 25.3946 53.7859 24.5989C53.0148 23.795 52.4037 22.8312 51.9525 21.7074ZM52.8015 18.1269C52.8015 19.1604 52.982 20.1448 53.3429 21.0799C53.7038 22.015 54.196 22.8271 54.8194 23.5161C55.451 24.2052 56.218 24.7548 57.1203 25.1649C58.0308 25.5669 59.007 25.7678 60.0487 25.7678C61.435 25.7678 62.686 25.4233 63.8016 24.7343C64.9171 24.0452 65.7784 23.1183 66.3855 21.9535C67.0007 20.7887 67.3083 19.5131 67.3083 18.1269C67.3083 16.7406 67.0007 15.4691 66.3855 14.3125C65.7784 13.1477 64.9171 12.2208 63.8016 11.5318C62.686 10.8427 61.435 10.4982 60.0487 10.4982C58.6625 10.4982 57.4115 10.8427 56.2959 11.5318C55.1803 12.2208 54.319 13.1477 53.712 14.3125C53.105 15.4691 52.8015 16.7406 52.8015 18.1269Z" fill="white"/>
<path d="M86.8214 27.1951C85.5664 27.1951 84.4057 26.908 83.3393 26.3338C82.2729 25.7596 81.428 24.9804 80.8046 23.996C80.1156 22.905 79.7711 21.5393 79.7711 19.8987V9.30468H81.2845V19.9725C81.2845 21.326 81.5429 22.417 82.0597 23.2455C82.56 24.0247 83.2286 24.6399 84.0653 25.0911C84.902 25.5423 85.8207 25.7678 86.8214 25.7678C87.8222 25.7678 88.7409 25.5423 89.5776 25.0911C90.4143 24.6399 91.0828 24.0247 91.5832 23.2455C92.1082 22.4006 92.3707 21.3096 92.3707 19.9725V9.30468H93.8841V19.8987C93.8841 21.5393 93.5396 22.905 92.8505 23.996C92.2271 24.9804 91.3822 25.7596 90.3158 26.3338C89.2495 26.908 88.0847 27.1951 86.8214 27.1951Z" fill="white"/>
<path d="M105.965 26.949V9.30468H106.974L118.823 23.996V9.30468H120.337V26.949H119.328L107.479 12.2577V26.949H105.965Z" fill="white"/>
<path d="M145.042 21.449C145.535 20.4155 145.781 19.3081 145.781 18.1269C145.781 16.9457 145.535 15.8424 145.042 14.817C144.558 13.7834 143.882 12.9221 143.012 12.2331C141.749 11.2406 139.961 10.7443 137.648 10.7443H134.19V25.5094H137.648C139.961 25.5094 141.749 25.0132 143.012 24.0206C143.882 23.3316 144.558 22.4744 145.042 21.449ZM146.359 14.0787C146.982 15.3256 147.294 16.675 147.294 18.1269C147.294 19.5788 146.982 20.9322 146.359 22.1873C145.736 23.4423 144.878 24.4759 143.787 25.288C142.278 26.3954 140.256 26.949 137.721 26.949H132.677V9.30468H137.721C140.248 9.30468 142.27 9.86247 143.787 10.9781C144.878 11.7901 145.736 12.8237 146.359 14.0787Z" fill="white"/>
<path d="M182.85 1L172.695 16.8856L184.294 35H176.887L168.782 22.0781L160.677 35H153.294L164.823 16.8856L154.715 1H162.121L168.782 11.7406L175.467 1H182.85Z" fill="white"/>
</g>
<defs>
<filter id="filter0_d_3712_232865" x="0" y="0" width="186.294" height="38" filterUnits="userSpaceOnUse" color-interpolation-filters="sRGB">
<feFlood flood-opacity="0" result="BackgroundImageFix"/>
<feColorMatrix in="SourceAlpha" type="matrix" values="0 0 0 0 0 0 0 0 0 0 0 0 0 0 0 0 0 0 127 0" result="hardAlpha"/>
<feOffset dy="1"/>
<feGaussianBlur stdDeviation="1"/>
<feComposite in2="hardAlpha" operator="out"/>
<feColorMatrix type="matrix" values="0 0 0 0 0 0 0 0 0 0 0 0 0 0 0 0 0 0 0.25 0"/>
<feBlend mode="normal" in2="BackgroundImageFix" result="effect1_dropShadow_3712_232865"/>
<feBlend mode="normal" in="SourceGraphic" in2="effect1_dropShadow_3712_232865" result="shape"/>
</filter>
</defs>
</svg>
