<svg width="14" height="14" viewBox="0 0 14 14" fill="none" xmlns="http://www.w3.org/2000/svg">
<path d="M7.00002 13.8926C6.83736 13.8926 6.6871 13.8067 6.60439 13.6667L5.91957 12.5083C4.50705 10.1202 3.17279 7.86465 2.71941 6.95468C2.3999 6.29957 2.23877 5.59883 2.23877 4.86852C2.23892 2.24321 4.37471 0.107422 7.00002 0.107422C9.62549 0.107422 11.7613 2.24321 11.7613 4.86852C11.7613 5.59821 11.6003 6.29896 11.2828 6.951C11.2796 6.95743 11.2763 6.96371 11.2731 6.96999C10.8125 7.88977 9.48534 10.1335 8.08063 12.5084L7.39566 13.6668C7.3131 13.8067 7.16269 13.8926 7.00002 13.8926ZM7.00002 1.02643C4.88139 1.02643 3.15794 2.75004 3.15794 4.86852C3.15794 5.45791 3.28767 6.02326 3.54361 6.54863C3.98045 7.42491 5.3677 9.77022 6.70915 12.038L7.00002 12.53L7.28951 12.0405C8.63173 9.7716 10.0194 7.42536 10.4581 6.54495C10.46 6.54158 10.4616 6.53806 10.4635 6.53469C10.715 6.013 10.8424 5.45255 10.8424 4.86867C10.8423 2.75004 9.11865 1.02643 7.00002 1.02643Z" fill="white"/>
<path d="M7.00015 6.93813C5.76315 6.93813 4.75684 5.93181 4.75684 4.69482C4.75684 3.45783 5.76315 2.45166 7.00015 2.45166C8.23698 2.45166 9.24345 3.45798 9.24345 4.69497C9.24345 5.93196 8.23698 6.93813 7.00015 6.93813ZM7.00015 3.37067C6.26999 3.37067 5.67585 3.96466 5.67585 4.69497C5.67585 5.42528 6.26984 6.01927 7.00015 6.01927C7.73045 6.01927 8.32444 5.42528 8.32444 4.69497C8.32444 3.96466 7.73045 3.37067 7.00015 3.37067Z" fill="white"/>
</svg>
