<svg width="18" height="15" viewBox="0 0 18 15" fill="none" xmlns="http://www.w3.org/2000/svg">
<path d="M7.9408 2.42405L7.38368 2.7589L7.38445 2.76018L7.9408 2.42405ZM7.5696 1.80645L7.01223 2.14087L7.01248 2.1413L7.5696 1.80645ZM5 2.27005C4.64101 2.27005 4.35 2.56107 4.35 2.92005C4.35 3.27904 4.64101 3.57005 5 3.57005V2.27005ZM15.3392 2.27005H8.8176V3.57005H15.3392V2.27005ZM8.8176 2.27005C8.69037 2.27005 8.56523 2.20061 8.49714 2.08793L7.38445 2.76018C7.68757 3.26189 8.23443 3.57005 8.8176 3.57005V2.27005ZM8.49791 2.08921L8.12671 1.47161L7.01248 2.1413L7.38368 2.7589L8.49791 2.08921ZM8.12697 1.47203C7.7124 0.78108 6.95729 0.350052 6.1456 0.350052V1.65005C6.49871 1.65005 6.8316 1.83982 7.01223 2.14087L8.12697 1.47203ZM6.1456 0.350052H2.6608V1.65005H6.1456V0.350052ZM2.6608 0.350052C1.38661 0.350052 0.349999 1.38667 0.349999 2.66085H1.65C1.65 2.10464 2.10458 1.65005 2.6608 1.65005V0.350052ZM0.349999 2.66085V12.4593H1.65V2.66085H0.349999ZM0.349999 12.4593C0.349999 13.7334 1.38661 14.7701 2.6608 14.7701V13.4701C2.10458 13.4701 1.65 13.0155 1.65 12.4593H0.349999ZM2.6608 14.7701H15.3392V13.4701H2.6608V14.7701ZM15.3392 14.7701C16.6134 14.7701 17.65 13.7334 17.65 12.4593H16.35C16.35 13.0155 15.8954 13.4701 15.3392 13.4701V14.7701ZM17.65 12.4593V4.58085H16.35V12.4593H17.65ZM17.65 4.58085C17.65 3.30667 16.6134 2.27005 15.3392 2.27005V3.57005C15.8954 3.57005 16.35 4.02464 16.35 4.58085H17.65ZM8.8176 2.27005H5V3.57005H8.8176V2.27005Z" fill="#D1CFC9"/>
</svg>
