<svg width="18" height="17" viewBox="0 0 18 17" fill="none" xmlns="http://www.w3.org/2000/svg">
<path d="M3.84917 13.9572C4.0595 13.1269 4.80134 12.5134 5.68421 12.5134C6.73065 12.5134 7.57895 13.3753 7.57895 14.4385C7.57895 15.5017 6.73065 16.3636 5.68421 16.3636C4.80134 16.3636 4.0595 15.7501 3.84917 14.9198H0.473684C0.212076 14.9198 0 14.7043 0 14.4385C0 14.1727 0.212076 13.9572 0.473684 13.9572H3.84917ZM8.58601 7.21925C8.79634 6.38893 9.53818 5.7754 10.4211 5.7754C11.4675 5.7754 12.3158 6.63731 12.3158 7.70053C12.3158 8.76376 11.4675 9.62567 10.4211 9.62567C9.53818 9.62567 8.79634 9.01214 8.58601 8.18182H0.473684C0.212076 8.18182 0 7.96634 0 7.70053C0 7.43473 0.212076 7.21925 0.473684 7.21925H8.58601ZM4.79653 1.44385C5.00687 0.613527 5.74871 0 6.63158 0C7.67801 0 8.52632 0.861912 8.52632 1.92513C8.52632 2.98836 7.67801 3.85027 6.63158 3.85027C5.74871 3.85027 5.00687 3.23674 4.79653 2.40642H0.473684C0.212076 2.40642 0 2.19094 0 1.92513C0 1.65933 0.212076 1.44385 0.473684 1.44385H4.79653ZM10.8947 2.40642C10.6331 2.40642 10.4211 2.19094 10.4211 1.92513C10.4211 1.65933 10.6331 1.44385 10.8947 1.44385H17.5263C17.7879 1.44385 18 1.65933 18 1.92513C18 2.19094 17.7879 2.40642 17.5263 2.40642H10.8947ZM14.6842 8.18182C14.4226 8.18182 14.2105 7.96634 14.2105 7.70053C14.2105 7.43473 14.4226 7.21925 14.6842 7.21925H17.5263C17.7879 7.21925 18 7.43473 18 7.70053C18 7.96634 17.7879 8.18182 17.5263 8.18182H14.6842ZM9.94737 14.9198C9.68576 14.9198 9.47368 14.7043 9.47368 14.4385C9.47368 14.1727 9.68576 13.9572 9.94737 13.9572H17.5263C17.7879 13.9572 18 14.1727 18 14.4385C18 14.7043 17.7879 14.9198 17.5263 14.9198H9.94737ZM6.63158 2.8877C7.1548 2.8877 7.57895 2.45674 7.57895 1.92513C7.57895 1.39352 7.1548 0.962567 6.63158 0.962567C6.10836 0.962567 5.68421 1.39352 5.68421 1.92513C5.68421 2.45674 6.10836 2.8877 6.63158 2.8877ZM10.4211 8.6631C10.9443 8.6631 11.3684 8.23215 11.3684 7.70053C11.3684 7.16892 10.9443 6.73797 10.4211 6.73797C9.89784 6.73797 9.47368 7.16892 9.47368 7.70053C9.47368 8.23215 9.89784 8.6631 10.4211 8.6631ZM5.68421 15.4011C6.20743 15.4011 6.63158 14.9701 6.63158 14.4385C6.63158 13.9069 6.20743 13.4759 5.68421 13.4759C5.16099 13.4759 4.73684 13.9069 4.73684 14.4385C4.73684 14.9701 5.16099 15.4011 5.68421 15.4011Z" fill="#040404"/>
</svg>
