<svg width="32" height="32" viewBox="0 0 32 32" fill="none" xmlns="http://www.w3.org/2000/svg">
<path d="M16 1C7.72381 1 1 7.73207 1 16.0053C1 24.2786 7.72381 31 16 31C24.2762 31 31 24.2786 31 16.0053C31 7.73207 24.2762 1 16 1ZM16 2.37379C23.5392 2.37379 29.6364 8.46875 29.6364 16.0053C29.6364 23.5419 23.5392 29.6262 16 29.6262C8.46077 29.6262 2.36364 23.5419 2.36364 16.0053C2.36364 8.46875 8.46077 2.37379 16 2.37379ZM16 8.50797C15.6234 8.50797 15.3182 8.81311 15.3182 9.18954C15.3182 9.56597 15.6234 9.87113 16 9.87113C16.3766 9.87113 16.6818 9.56597 16.6818 9.18954C16.6818 8.81311 16.3766 8.50797 16 8.50797ZM15.9254 13.1552C15.756 13.1738 15.5996 13.2552 15.4872 13.3834C15.3748 13.5115 15.3145 13.677 15.3182 13.8474V22.8211C15.3169 22.9114 15.3336 23.0011 15.3673 23.0849C15.401 23.1687 15.451 23.245 15.5144 23.3093C15.5779 23.3736 15.6535 23.4247 15.7368 23.4595C15.8202 23.4944 15.9096 23.5124 16 23.5124C16.0904 23.5124 16.1798 23.4944 16.2632 23.4595C16.3465 23.4247 16.4221 23.3736 16.4856 23.3093C16.549 23.245 16.599 23.1687 16.6327 23.0849C16.6664 23.0011 16.6831 22.9114 16.6818 22.8211V13.8474C16.6839 13.7504 16.6652 13.6541 16.6271 13.5648C16.5889 13.4756 16.5321 13.3955 16.4605 13.33C16.3889 13.2645 16.3041 13.215 16.2119 13.1848C16.1196 13.1547 16.0219 13.1446 15.9254 13.1552Z" fill="#937206" stroke="#937206" stroke-width="0.6"/>
</svg>
