<svg width="36" height="36" viewBox="0 0 36 36" fill="none" xmlns="http://www.w3.org/2000/svg">
<path d="M18 0C8.06858 0 0 8.07848 0 18.0064C0 27.9343 8.06858 36 18 36C27.9315 36 36 27.9343 36 18.0064C36 8.07848 27.9315 0 18 0H18ZM18 1.64855C27.0471 1.64855 34.3636 8.9625 34.3636 18.0064C34.3636 27.0503 27.0471 34.3515 18 34.3515C8.95292 34.3515 1.63636 27.0503 1.63636 18.0064C1.63636 8.9625 8.95292 1.64855 18 1.64855H18ZM18 9.00956C17.5481 9.00956 17.1818 9.37573 17.1818 9.82745C17.1818 10.2792 17.5481 10.6454 18 10.6454C18.4519 10.6454 18.8182 10.2792 18.8182 9.82745C18.8182 9.37573 18.4519 9.00956 18 9.00956ZM17.9105 13.0863C17.7072 13.1086 17.5196 13.2063 17.3847 13.36C17.2498 13.5138 17.1774 13.7125 17.1818 13.9169V26.1853C17.1803 26.2937 17.2003 26.4013 17.2407 26.5019C17.2812 26.6024 17.3412 26.694 17.4173 26.7712C17.4935 26.8483 17.5842 26.9096 17.6842 26.9515C17.7842 26.9933 17.8916 27.0148 18 27.0148C18.1084 27.0148 18.2158 26.9933 18.3158 26.9515C18.4158 26.9096 18.5065 26.8483 18.5827 26.7712C18.6588 26.694 18.7188 26.6024 18.7593 26.5019C18.7997 26.4013 18.8197 26.2937 18.8182 26.1853V13.9169C18.8207 13.8005 18.7983 13.6849 18.7525 13.5778C18.7067 13.4707 18.6386 13.3746 18.5526 13.296C18.4667 13.2173 18.365 13.158 18.2542 13.1218C18.1435 13.0856 18.0263 13.0735 17.9105 13.0863Z" fill="black"/>
</svg>
