<svg width="80" height="70" viewBox="0 0 80 70" fill="none" xmlns="http://www.w3.org/2000/svg">
<path d="M19.7997 6.4834C19.3082 6.4834 18.9062 6.88374 18.9062 7.37316V41.7366C18.9062 42.226 19.3082 42.6264 19.7997 42.6264C20.2912 42.6264 20.6931 42.226 20.6931 41.7366V7.37316C20.6931 6.88374 20.2965 6.4834 19.7997 6.4834Z" fill="#040404"/>
<path d="M27.2841 36.7534C26.7926 36.7534 26.3906 37.1538 26.3906 37.6432V41.7356C26.3906 42.225 26.7926 42.6253 27.2841 42.6253C27.7755 42.6253 28.1775 42.225 28.1775 41.7356V37.6432C28.1775 37.1491 27.7755 36.7534 27.2841 36.7534Z" fill="#040404"/>
<path d="M27.2841 6.4834C26.7926 6.4834 26.3906 6.88374 26.3906 7.37316V32.81C26.3906 33.2994 26.7926 33.6998 27.2841 33.6998C27.7755 33.6998 28.1775 33.2994 28.1775 32.81V7.37316C28.1775 6.88374 27.7755 6.4834 27.2841 6.4834Z" fill="#040404"/>
<path d="M34.7724 36.7534C34.2809 36.7534 33.8789 37.1538 33.8789 37.6432V41.7356C33.8789 42.225 34.2809 42.6253 34.7724 42.6253C35.2638 42.6253 35.6658 42.225 35.6658 41.7356V37.6432C35.6658 37.1491 35.2638 36.7534 34.7724 36.7534Z" fill="#040404"/>
<path d="M34.7724 6.4834C34.2809 6.4834 33.8789 6.88374 33.8789 7.37316V32.81C33.8789 33.2994 34.2809 33.6998 34.7724 33.6998C35.2638 33.6998 35.6658 33.2994 35.6658 32.81V7.37316C35.6658 6.88374 35.2638 6.4834 34.7724 6.4834Z" fill="#040404"/>
<path d="M42.2489 6.4834C41.7575 6.4834 41.3555 6.88374 41.3555 7.37316V41.7366C41.3555 42.226 41.7575 42.6264 42.2489 42.6264C42.7404 42.6264 43.1424 42.226 43.1424 41.7366V7.37316C43.1424 6.88374 42.7451 6.4834 42.2489 6.4834Z" fill="#040404"/>
<path d="M12.3192 36.7534C11.8278 36.7534 11.4258 37.1538 11.4258 37.6432V41.7356C11.4258 42.225 11.8278 42.6253 12.3192 42.6253C12.8107 42.6253 13.2127 42.225 13.2127 41.7356V37.6432C13.2127 37.1491 12.8107 36.7534 12.3192 36.7534Z" fill="#040404"/>
<path d="M12.3192 6.4834C11.8278 6.4834 11.4258 6.88374 11.4258 7.37316V32.81C11.4258 33.2994 11.8278 33.6998 12.3192 33.6998C12.8107 33.6998 13.2127 33.2994 13.2127 32.81V7.37316C13.2127 6.88374 12.8107 6.4834 12.3192 6.4834Z" fill="#040404"/>
<path d="M79.7413 49.6375L67.1789 37.1269C68.3301 35.2583 68.9458 33.1083 68.9458 30.8592C68.9458 27.6512 67.6898 24.6361 65.4121 22.3625C65.3326 22.2834 65.2531 22.2043 65.169 22.1251V0.889764C65.169 0.400339 64.767 0 64.2755 0H5.25664C4.76519 0 4.36319 0.400339 4.36319 0.889764V48.2132C4.36319 48.7026 4.76519 49.1029 5.25664 49.1029H64.2755C64.767 49.1029 65.169 48.7026 65.169 48.2132V43.1021L75.7362 53.6257C75.9051 53.7939 76.1335 53.8877 76.3665 53.8877C76.6049 53.8877 76.8333 53.7939 76.9969 53.6257L79.7367 50.8972C79.9057 50.7289 79.9998 50.5015 79.9998 50.2694C80.0045 50.032 79.9104 49.8046 79.7414 49.637L79.7413 49.6375ZM64.1511 38.0958C62.1457 40.0928 59.5154 41.0863 56.8845 41.0863C54.2542 41.0863 51.6233 40.0881 49.618 38.0958C45.6128 34.1071 45.6128 27.6121 49.618 23.6228C51.5585 21.6903 54.1394 20.6276 56.8845 20.6276C59.629 20.6276 62.2105 21.6903 64.1511 23.6228C68.1569 27.6167 68.1569 34.1065 64.1511 38.0958ZM63.3818 47.324H6.14991V1.78017H63.3818V20.7362C61.7985 19.7228 60.0016 19.095 58.1058 18.9074V7.37096C58.1058 6.88154 57.7038 6.4812 57.2124 6.4812C56.7209 6.4812 56.3189 6.88154 56.3189 7.37096V18.8582C54.2789 18.952 52.3331 19.5452 50.621 20.5832V7.37096C50.621 6.88154 50.219 6.4812 49.7276 6.4812C49.2361 6.4812 48.8341 6.88154 48.8341 7.37096V21.9079C48.6705 22.0561 48.5063 22.2091 48.348 22.3627C46.0696 24.6316 44.8142 27.6468 44.8142 30.8594C44.8142 34.0674 46.0702 37.0877 48.348 39.3561C50.6263 41.625 53.6539 42.8753 56.8799 42.8753C59.1335 42.8753 61.297 42.2622 63.1735 41.1156L63.3819 41.3231L63.3818 47.324ZM76.3709 51.7382L64.6425 40.0582C64.9056 39.836 65.1634 39.6033 65.4118 39.3565C65.6601 39.1092 65.8932 38.8525 66.1216 38.5905L77.85 50.2705L76.3709 51.7382Z" fill="#040404"/>
<path d="M0.160843 69.693C0.152603 69.6977 0.144362 69.7012 0.134945 69.7024C0.125528 69.7036 0.116111 69.7048 0.106694 69.7048C0.0766764 69.7048 0.0525445 69.6971 0.0337103 69.6813C0.0160528 69.6643 0.0078125 69.6414 0.0078125 69.6133C0.0078125 69.584 0.0160524 69.5611 0.0337103 69.5453C0.0525445 69.5283 0.0766764 69.5195 0.106694 69.5195C0.116111 69.5195 0.125528 69.5213 0.134945 69.5242C0.144362 69.526 0.152602 69.5289 0.160843 69.5336V69.5711C0.152603 69.5653 0.144362 69.5606 0.134945 69.557C0.126705 69.5541 0.118464 69.5524 0.109047 69.5524C0.0931556 69.5524 0.0807958 69.5582 0.0713787 69.5688C0.0619616 69.5799 0.0572531 69.5946 0.0572531 69.6133C0.0572531 69.6321 0.0619616 69.6473 0.0713787 69.6579C0.0807958 69.6672 0.0931556 69.6719 0.109047 69.6719C0.118464 69.6719 0.126705 69.6713 0.134945 69.6696C0.144362 69.6667 0.152602 69.662 0.160843 69.6555V69.693Z" fill="#040404"/>
<path d="M0.294193 69.6041C0.290662 69.6029 0.28713 69.6017 0.282421 69.6017C0.27889 69.6005 0.275947 69.5993 0.273004 69.5993C0.261822 69.5993 0.252993 69.6035 0.247107 69.6111C0.240632 69.6176 0.237689 69.6276 0.237689 69.6418V69.7031H0.195312V69.5687H0.237689V69.5899C0.243575 69.5805 0.250049 69.5746 0.256524 69.571C0.264175 69.5663 0.273004 69.564 0.282421 69.564H0.28713C0.288307 69.564 0.290662 69.5651 0.294193 69.5663V69.6041Z" fill="#040404"/>
<path d="M0.456109 69.6347V69.6465H0.354875C0.356052 69.6577 0.360172 69.6654 0.366646 69.6701C0.372532 69.6748 0.38136 69.6772 0.392544 69.6772C0.401961 69.6772 0.411378 69.6766 0.420795 69.6748C0.430212 69.6719 0.439629 69.6672 0.449047 69.6607V69.696C0.439629 69.6996 0.429036 69.7019 0.418442 69.7031C0.409025 69.7043 0.398431 69.7055 0.387837 69.7055C0.364294 69.7055 0.34546 69.7002 0.331334 69.689C0.318386 69.6766 0.3125 69.6583 0.3125 69.6347C0.3125 69.6129 0.318386 69.5958 0.331334 69.5828C0.343694 69.5705 0.361939 69.564 0.385483 69.564C0.40726 69.564 0.424328 69.5705 0.437277 69.5828C0.449637 69.5958 0.456112 69.6129 0.456112 69.6347L0.456109 69.6347ZM0.411377 69.6206C0.411377 69.6129 0.409023 69.6064 0.404315 69.6017C0.399606 69.5958 0.393132 69.5923 0.38548 69.5923C0.37724 69.5923 0.370178 69.5946 0.364293 69.5993C0.359584 69.6041 0.356053 69.6111 0.354875 69.6206L0.411377 69.6206Z" fill="#040404"/>
<path d="M0.547192 69.6418C0.537774 69.6418 0.530711 69.6436 0.526004 69.6465C0.521295 69.6501 0.518941 69.6548 0.518941 69.6607C0.518941 69.6654 0.520118 69.6695 0.52365 69.6725C0.528358 69.676 0.533655 69.6772 0.54013 69.6772C0.547782 69.6772 0.554256 69.6748 0.558964 69.6701C0.56485 69.6642 0.568382 69.6559 0.568382 69.6465V69.6418H0.547192ZM0.613111 69.6253V69.7031H0.568379V69.6819C0.561905 69.6913 0.554842 69.6978 0.547192 69.7008C0.540717 69.7037 0.533066 69.7055 0.523649 69.7055C0.509523 69.7055 0.497751 69.7019 0.488334 69.6937C0.480094 69.686 0.476562 69.676 0.476562 69.663C0.476562 69.6477 0.481271 69.6359 0.490688 69.6276C0.501282 69.62 0.518939 69.6159 0.542482 69.6159H0.56838V69.6135C0.56838 69.6058 0.564849 69.6005 0.558963 69.597C0.554254 69.594 0.546014 69.5923 0.53542 69.5923C0.526003 69.5923 0.517175 69.594 0.509522 69.597C0.501282 69.5988 0.49422 69.6011 0.488335 69.6041V69.571C0.495986 69.5699 0.504815 69.5681 0.514232 69.5663C0.52365 69.5651 0.533067 69.564 0.542484 69.564C0.567203 69.564 0.58545 69.5687 0.596633 69.5781C0.607227 69.5875 0.613114 69.6035 0.613114 69.6253L0.613111 69.6253Z" fill="#040404"/>
<path d="M0.702639 69.5273V69.5672H0.747371V69.5977H0.702639V69.6539C0.702639 69.6604 0.703228 69.6651 0.704994 69.668C0.707936 69.6698 0.713234 69.6704 0.721474 69.6704H0.742662V69.7008H0.704994C0.689102 69.7008 0.677331 69.6979 0.669679 69.6915C0.663204 69.6838 0.660262 69.6715 0.660262 69.6539V69.5977H0.636719V69.5672H0.660262V69.5273L0.702639 69.5273Z" fill="#040404"/>
<path d="M0.913141 69.6347V69.6465H0.811906C0.813083 69.6577 0.817203 69.6654 0.823677 69.6701C0.829563 69.6748 0.838392 69.6772 0.849575 69.6772C0.858992 69.6772 0.868409 69.6766 0.877826 69.6748C0.887244 69.6719 0.896661 69.6672 0.906078 69.6607V69.696C0.896661 69.6996 0.886067 69.7019 0.875473 69.7031C0.866056 69.7043 0.855462 69.7055 0.844868 69.7055C0.821325 69.7055 0.802491 69.7002 0.788365 69.689C0.775417 69.6766 0.769531 69.6583 0.769531 69.6347C0.769531 69.6129 0.775417 69.5958 0.788365 69.5828C0.800725 69.5705 0.81897 69.564 0.842515 69.564C0.864291 69.564 0.88136 69.5705 0.894309 69.5828C0.906669 69.5958 0.913143 69.6129 0.913143 69.6347L0.913141 69.6347ZM0.868409 69.6206C0.868409 69.6129 0.866054 69.6064 0.861346 69.6017C0.856637 69.5958 0.850163 69.5923 0.842512 69.5923C0.834272 69.5923 0.827209 69.5946 0.821324 69.5993C0.816615 69.6041 0.813084 69.6111 0.811907 69.6206L0.868409 69.6206Z" fill="#040404"/>
<path d="M1.03483 69.5903V69.5176H1.0772V69.7051H1.03483V69.6864C1.02835 69.6946 1.02129 69.6999 1.01364 69.7028C1.00716 69.7057 0.999513 69.7075 0.990096 69.7075C0.972439 69.7075 0.958313 69.7016 0.947719 69.6887C0.938302 69.6764 0.933594 69.6594 0.933594 69.6372C0.933594 69.6172 0.938302 69.6008 0.947719 69.5879C0.958314 69.5738 0.972439 69.5668 0.990096 69.5668C0.999513 69.5668 1.00716 69.5692 1.01364 69.5738C1.02129 69.5774 1.02835 69.5826 1.03483 69.5903V69.5903ZM1.00658 69.677C1.01599 69.677 1.02306 69.6741 1.02776 69.6676C1.03247 69.6618 1.03483 69.6512 1.03483 69.6372C1.03483 69.6248 1.03247 69.6155 1.02776 69.609C1.02305 69.6032 1.01599 69.5996 1.00658 69.5996C0.997159 69.5996 0.990095 69.6032 0.985388 69.609C0.980679 69.6155 0.978325 69.6248 0.978325 69.6372C0.978325 69.6512 0.980679 69.6618 0.985388 69.6676C0.990096 69.6741 0.997159 69.677 1.00658 69.677Z" fill="#040404"/>
<path d="M1.27766 69.677C1.28708 69.677 1.29414 69.6741 1.29885 69.6676C1.30356 69.6618 1.30591 69.6512 1.30591 69.6372C1.30591 69.6248 1.30356 69.6155 1.29885 69.609C1.29414 69.6032 1.28708 69.5996 1.27766 69.5996C1.26824 69.5996 1.26118 69.6032 1.25647 69.609C1.25176 69.6155 1.24941 69.6248 1.24941 69.6372C1.24941 69.65 1.25176 69.66 1.25647 69.6676C1.26118 69.6741 1.26824 69.677 1.27766 69.677ZM1.24941 69.5903C1.25529 69.5826 1.26177 69.5774 1.26824 69.5738C1.27589 69.5692 1.28472 69.5668 1.29414 69.5668C1.31121 69.5668 1.32475 69.5738 1.33416 69.5879C1.34476 69.6008 1.35064 69.6172 1.35064 69.6372C1.35064 69.6594 1.34476 69.6764 1.33416 69.6887C1.32475 69.7016 1.31121 69.7075 1.29414 69.7075C1.28472 69.7075 1.2759 69.7057 1.26824 69.7028C1.26177 69.6999 1.25529 69.6946 1.24941 69.6864V69.7051H1.20703V69.5176H1.24941V69.5903Z" fill="#040404"/>
<path d="M1.36719 69.5679H1.41192L1.44723 69.6593L1.47784 69.5679H1.52257L1.46372 69.7132C1.45901 69.7285 1.45253 69.7396 1.44488 69.7461C1.43664 69.7519 1.42664 69.7554 1.41428 69.7554H1.39073V69.7273H1.4025C1.41016 69.7273 1.41545 69.7255 1.41899 69.7226C1.42193 69.7209 1.42428 69.7168 1.42605 69.7109L1.4284 69.7062L1.36719 69.5679Z" fill="#040404"/>
<path d="M1.75839 69.5289V69.5664C1.74898 69.5617 1.73956 69.5588 1.73014 69.557C1.72073 69.5541 1.71131 69.5524 1.70189 69.5524C1.69071 69.5524 1.68188 69.5541 1.67599 69.557C1.67129 69.5606 1.66893 69.5653 1.66893 69.5711C1.66893 69.5758 1.67011 69.5799 1.67364 69.5828C1.67835 69.5864 1.68541 69.5887 1.69483 69.5899L1.71366 69.5946C1.73367 69.5981 1.7478 69.6039 1.75604 69.6133C1.76546 69.6215 1.77016 69.6321 1.77016 69.6461C1.77016 69.6667 1.76369 69.6813 1.75133 69.6907C1.74015 69.7001 1.7219 69.7048 1.69718 69.7048C1.686 69.7048 1.67482 69.7036 1.66422 69.7024C1.65304 69.7012 1.64127 69.6977 1.62891 69.693V69.6532C1.64127 69.6596 1.65245 69.6643 1.66187 69.6672C1.67246 69.6708 1.68364 69.6719 1.69483 69.6719C1.70424 69.6719 1.71131 69.6708 1.71601 69.6672C1.7219 69.6643 1.72543 69.6596 1.72543 69.6532C1.72543 69.6473 1.72308 69.6426 1.71837 69.6391C1.71484 69.6362 1.70777 69.6338 1.69718 69.6321L1.6807 69.6274C1.66187 69.6245 1.64833 69.6192 1.64068 69.611C1.63244 69.6016 1.62891 69.5899 1.62891 69.5758C1.62891 69.557 1.6342 69.543 1.64539 69.5336C1.65598 69.5242 1.67246 69.5195 1.69483 69.5195C1.70424 69.5195 1.71425 69.5207 1.72543 69.5219C1.73603 69.5236 1.74721 69.526 1.75839 69.5289H1.75839Z" fill="#040404"/>
<path d="M1.91855 69.6692H1.84557L1.83379 69.702H1.78906L1.85498 69.5215H1.90913L1.9774 69.702H1.93032L1.91855 69.6692ZM1.85734 69.6364H1.90678L1.88323 69.5637L1.85734 69.6364Z" fill="#040404"/>
<path d="M2.00782 69.5215H2.06667L2.10669 69.6176L2.14907 69.5215H2.20793V69.702H2.16319V69.5707L2.12082 69.6668H2.09257L2.05019 69.5707V69.702H2.00781L2.00782 69.5215Z" fill="#040404"/>
<path d="M2.38458 69.5567V69.6668H2.40106C2.42107 69.6668 2.43637 69.6622 2.44579 69.6528C2.45521 69.6434 2.45991 69.6305 2.45991 69.6129C2.45991 69.5942 2.45521 69.5801 2.44579 69.5707C2.43637 69.5613 2.42107 69.5567 2.40106 69.5567L2.38458 69.5567ZM2.33984 69.5215H2.38693C2.41518 69.5215 2.43519 69.5238 2.44814 69.5285C2.46227 69.532 2.47404 69.5379 2.48346 69.5473C2.49111 69.5567 2.49758 69.5672 2.50229 69.5778C2.507 69.5871 2.50935 69.5989 2.50935 69.6129C2.50935 69.6258 2.507 69.6375 2.50229 69.6481C2.49758 69.6592 2.49111 69.6686 2.48346 69.6762C2.47404 69.6856 2.46227 69.6926 2.44814 69.6973C2.43519 69.7008 2.41518 69.702 2.38693 69.702H2.33984V69.5215Z" fill="#040404"/>
<path d="M2.67877 69.6347V69.6465H2.57753C2.57871 69.6577 2.58283 69.6654 2.5893 69.6701C2.59519 69.6748 2.60402 69.6772 2.6152 69.6772C2.62462 69.6772 2.63403 69.6766 2.64345 69.6748C2.65287 69.6719 2.66229 69.6672 2.6717 69.6607V69.696C2.66229 69.6996 2.65169 69.7019 2.6411 69.7031C2.63168 69.7043 2.62109 69.7055 2.61049 69.7055C2.58695 69.7055 2.56812 69.7002 2.55399 69.689C2.54104 69.6766 2.53516 69.6583 2.53516 69.6347C2.53516 69.6129 2.54104 69.5958 2.55399 69.5828C2.56635 69.5705 2.5846 69.564 2.60814 69.564C2.62992 69.564 2.64698 69.5705 2.65993 69.5828C2.67229 69.5958 2.67877 69.6129 2.67877 69.6347L2.67877 69.6347ZM2.63403 69.6206C2.63403 69.6129 2.63168 69.6064 2.62697 69.6017C2.62226 69.5958 2.61579 69.5923 2.60814 69.5923C2.5999 69.5923 2.59283 69.5946 2.58695 69.5993C2.58224 69.6041 2.57871 69.6111 2.57753 69.6206L2.63403 69.6206Z" fill="#040404"/>
<path d="M2.81458 69.571V69.6041C2.80516 69.6011 2.79574 69.5988 2.78633 69.597C2.77809 69.594 2.77043 69.5923 2.76278 69.5923C2.75454 69.5923 2.74866 69.594 2.74395 69.597C2.74042 69.5988 2.73924 69.6017 2.73924 69.6064C2.73924 69.61 2.73983 69.6123 2.74159 69.6135C2.74454 69.6153 2.74983 69.617 2.75807 69.6182H2.76749C2.78927 69.6217 2.80398 69.6265 2.81222 69.6324C2.81988 69.6388 2.824 69.6489 2.824 69.663C2.824 69.6772 2.81811 69.6884 2.80751 69.696C2.79633 69.7025 2.78044 69.7055 2.76043 69.7055C2.75101 69.7055 2.74159 69.7043 2.73218 69.7031C2.72276 69.7031 2.71217 69.7019 2.70157 69.6984V69.6654C2.71099 69.6701 2.71923 69.6736 2.72747 69.6748C2.73689 69.6766 2.74631 69.6772 2.75572 69.6772C2.76514 69.6772 2.77102 69.6766 2.77456 69.6748C2.77926 69.6719 2.78162 69.6677 2.78162 69.663C2.78162 69.6601 2.77985 69.6577 2.77691 69.6559C2.77338 69.6548 2.76808 69.653 2.76043 69.6512L2.75337 69.6489C2.73277 69.6477 2.71864 69.6436 2.71099 69.6371C2.70275 69.6312 2.69922 69.6206 2.69922 69.6064C2.69922 69.5923 2.70393 69.5822 2.71334 69.5758C2.72394 69.5681 2.73983 69.564 2.76043 69.564C2.76808 69.564 2.77573 69.5651 2.78397 69.5663C2.79339 69.5681 2.8034 69.5699 2.81458 69.571L2.81458 69.571Z" fill="#040404"/>
<path d="M2.85938 69.5715H2.90122V69.7051H2.85938V69.5715ZM2.85938 69.5176H2.90122V69.5527H2.85938V69.5176Z" fill="#040404"/>
<path d="M3.03873 69.6788C3.03226 69.6871 3.0252 69.6929 3.01755 69.6976C3.01107 69.7011 3.00342 69.7023 2.994 69.7023C2.97635 69.7023 2.96222 69.6964 2.95163 69.6835C2.94221 69.6695 2.9375 69.6531 2.9375 69.6343C2.9375 69.6144 2.94221 69.598 2.95163 69.5851C2.96222 69.571 2.97635 69.564 2.994 69.564C3.00342 69.564 3.01107 69.5663 3.01755 69.571C3.0252 69.5745 3.03226 69.5798 3.03873 69.5874V69.5687H3.08111V69.6882C3.08111 69.7099 3.07405 69.7263 3.05992 69.7375C3.04697 69.7498 3.02755 69.7562 3.00107 69.7562C2.99283 69.7562 2.98517 69.755 2.97752 69.7539C2.96928 69.7521 2.96163 69.7498 2.95398 69.7468V69.714C2.96163 69.7187 2.96869 69.7216 2.97517 69.7234C2.98282 69.7263 2.98988 69.7281 2.99636 69.7281C3.01048 69.7281 3.02049 69.7246 3.02696 69.7187C3.03461 69.7123 3.03873 69.7023 3.03873 69.6882L3.03873 69.6788ZM3.01048 69.5968C3.00106 69.5968 2.994 69.6003 2.98929 69.6062C2.98459 69.6126 2.98223 69.622 2.98223 69.6343C2.98223 69.6472 2.98459 69.6566 2.98929 69.6624C2.994 69.6689 3.00107 69.6718 3.01048 69.6718C3.0199 69.6718 3.02696 69.6689 3.03167 69.6624C3.03638 69.6548 3.03873 69.6454 3.03873 69.6343C3.03873 69.622 3.03638 69.6126 3.03167 69.6062C3.02696 69.6003 3.0199 69.5968 3.01048 69.5968Z" fill="#040404"/>
<path d="M3.25764 69.6206V69.7031H3.21291V69.6394C3.21291 69.6288 3.21173 69.6206 3.21056 69.6159V69.6064C3.20879 69.6035 3.20644 69.6011 3.20349 69.5993C3.19996 69.5982 3.19643 69.597 3.19172 69.597C3.18348 69.597 3.17642 69.6011 3.17053 69.6088C3.16583 69.6153 3.16347 69.6247 3.16347 69.6371V69.7031H3.12109V69.5687H3.16347V69.5876C3.16936 69.5799 3.17642 69.5746 3.18466 69.571C3.19231 69.5663 3.19996 69.564 3.2082 69.564C3.2235 69.564 3.23528 69.5687 3.24352 69.5781C3.25293 69.5875 3.25764 69.6017 3.25764 69.6206Z" fill="#040404"/>
<path d="M3.40442 69.571V69.6041C3.395 69.6011 3.38559 69.5988 3.37617 69.597C3.36793 69.594 3.36028 69.5923 3.35263 69.5923C3.34439 69.5923 3.3385 69.594 3.33379 69.597C3.33026 69.5988 3.32908 69.6017 3.32908 69.6064C3.32908 69.61 3.32967 69.6123 3.33144 69.6135C3.33438 69.6153 3.33968 69.617 3.34792 69.6182H3.35734C3.37911 69.6217 3.39383 69.6265 3.40207 69.6324C3.40972 69.6388 3.41384 69.6489 3.41384 69.663C3.41384 69.6772 3.40795 69.6884 3.39736 69.696C3.38618 69.7025 3.37028 69.7055 3.35027 69.7055C3.34086 69.7055 3.33144 69.7043 3.32202 69.7031C3.3126 69.7031 3.30201 69.7019 3.29142 69.6984V69.6654C3.30083 69.6701 3.30907 69.6736 3.31731 69.6748C3.32673 69.6766 3.33615 69.6772 3.34557 69.6772C3.35498 69.6772 3.36087 69.6766 3.3644 69.6748C3.36911 69.6719 3.37146 69.6677 3.37146 69.663C3.37146 69.6601 3.3697 69.6577 3.36675 69.6559C3.36322 69.6548 3.35793 69.653 3.35027 69.6512L3.34321 69.6489C3.32261 69.6477 3.30849 69.6436 3.30083 69.6371C3.29259 69.6312 3.28906 69.6206 3.28906 69.6064C3.28906 69.5923 3.29377 69.5822 3.30319 69.5758C3.31378 69.5681 3.32967 69.564 3.35027 69.564C3.35793 69.564 3.36558 69.5651 3.37382 69.5663C3.38323 69.5681 3.39324 69.5699 3.40442 69.571L3.40442 69.571Z" fill="#040404"/>
<path d="M0.105942 69.7588V69.7869H0.0800446C0.0753361 69.7869 0.0712161 69.7887 0.0682732 69.7916C0.0647419 69.7934 0.0635647 69.7975 0.0635647 69.8033V69.8127H0.101233V69.8432H0.0635647V69.9464H0.0211877V69.8432H0V69.8127H0.0211877V69.8033C0.0211877 69.7881 0.0247191 69.777 0.0329591 69.7705C0.0423762 69.7629 0.0553251 69.7588 0.072981 69.7588H0.105942Z" fill="#040404"/>
<path d="M0.22388 69.8511C0.220349 69.85 0.216818 69.8488 0.212109 69.8488C0.208577 69.8476 0.205635 69.8464 0.202692 69.8464C0.191509 69.8464 0.182681 69.8505 0.176794 69.8582C0.17032 69.8647 0.167377 69.8747 0.167377 69.8889V69.9502H0.125V69.8158H0.167377V69.837C0.173263 69.8275 0.179737 69.8216 0.186211 69.8181C0.193863 69.8134 0.202692 69.811 0.212109 69.811H0.216818C0.217995 69.811 0.220349 69.8122 0.22388 69.8134V69.8511Z" fill="#040404"/>
<path d="M0.311265 69.8417C0.301847 69.8417 0.294784 69.8458 0.290077 69.8535C0.285368 69.86 0.283014 69.8694 0.283014 69.8818C0.283014 69.8959 0.285368 69.9066 0.290077 69.9124C0.294785 69.9189 0.301848 69.9219 0.311265 69.9219C0.320681 69.9219 0.327745 69.9189 0.332452 69.9124C0.338338 69.9066 0.341869 69.8959 0.341869 69.8818C0.341869 69.8694 0.338338 69.86 0.332452 69.8535C0.327744 69.8458 0.320681 69.8417 0.311265 69.8417ZM0.311265 69.811C0.334807 69.811 0.352465 69.8175 0.365414 69.8299C0.379539 69.8429 0.386601 69.86 0.386601 69.8818C0.386601 69.9042 0.379539 69.9213 0.365414 69.9337C0.352465 69.9466 0.334809 69.9525 0.311265 69.9525C0.28772 69.9525 0.269477 69.9466 0.257115 69.9337C0.244167 69.9213 0.238281 69.9042 0.238281 69.8818C0.238281 69.86 0.244167 69.8429 0.257115 69.8299C0.269475 69.8175 0.28772 69.811 0.311265 69.811Z" fill="#040404"/>
<path d="M0.54665 69.837C0.552536 69.8293 0.55901 69.8228 0.565484 69.8181C0.573136 69.8134 0.581965 69.811 0.591382 69.811C0.606685 69.811 0.618457 69.8158 0.626697 69.8252C0.634348 69.8346 0.638468 69.8488 0.638468 69.8676V69.9502H0.596091V69.8794V69.8771V69.8724C0.596091 69.8629 0.594326 69.8558 0.591383 69.8511C0.587852 69.8464 0.583143 69.8441 0.577257 69.8441C0.569017 69.8441 0.563132 69.8482 0.558423 69.8558C0.553714 69.8623 0.55136 69.8718 0.55136 69.8842V69.9502H0.508983V69.8794C0.508983 69.8653 0.507217 69.8558 0.504275 69.8511C0.500743 69.8464 0.496035 69.8441 0.490149 69.8441C0.481909 69.8441 0.476023 69.8482 0.471315 69.8558C0.466606 69.8623 0.464252 69.8718 0.464252 69.8842V69.9502H0.421875V69.8158H0.464252V69.8346C0.470138 69.827 0.476612 69.8217 0.483086 69.8181C0.488972 69.8134 0.497212 69.811 0.506629 69.811C0.516046 69.811 0.523697 69.8134 0.530172 69.8181C0.537823 69.8228 0.54312 69.8293 0.546652 69.837L0.54665 69.837Z" fill="#040404"/>
<path d="M0.812014 69.7729V69.8128H0.856746V69.8433H0.812014V69.8996C0.812014 69.906 0.812603 69.9107 0.814369 69.9136C0.817311 69.9154 0.822609 69.916 0.830849 69.916H0.852037V69.9464H0.814369C0.798477 69.9464 0.786706 69.9435 0.779054 69.9371C0.772579 69.9294 0.769637 69.9171 0.769637 69.8996V69.8433H0.746094V69.8128H0.769637V69.7729L0.812014 69.7729Z" fill="#040404"/>
<path d="M1.01936 69.8643V69.9464H0.974629V69.8831C0.974629 69.8725 0.973451 69.8643 0.972274 69.8596V69.8502C0.970509 69.8473 0.968154 69.845 0.965211 69.8432C0.96168 69.842 0.958149 69.8408 0.95344 69.8408C0.9452 69.8408 0.938138 69.845 0.932252 69.8526C0.927544 69.859 0.925189 69.8684 0.925189 69.8807V69.9464H0.882812V69.7588H0.925189V69.8315C0.931075 69.8239 0.938138 69.8186 0.946377 69.8151C0.954029 69.8104 0.96168 69.808 0.96992 69.808C0.985222 69.808 0.996995 69.8127 1.00523 69.8221C1.01465 69.8315 1.01936 69.8455 1.01936 69.8643Z" fill="#040404"/>
<path d="M1.19439 69.8818V69.8936H1.09316C1.09433 69.9048 1.09845 69.9125 1.10493 69.9172C1.11081 69.9219 1.11964 69.9242 1.13083 69.9242C1.14024 69.9242 1.14966 69.9237 1.15908 69.9219C1.16849 69.9189 1.17791 69.9142 1.18733 69.9077V69.9431C1.17791 69.9467 1.16732 69.949 1.15672 69.9502C1.14731 69.9514 1.13671 69.9525 1.12612 69.9525C1.10258 69.9525 1.08374 69.9472 1.06962 69.936C1.05667 69.9237 1.05078 69.9054 1.05078 69.8818C1.05078 69.86 1.05667 69.8429 1.06962 69.8299C1.08198 69.8175 1.10022 69.811 1.12376 69.811C1.14554 69.811 1.16261 69.8175 1.17556 69.8299C1.18792 69.8429 1.19439 69.86 1.19439 69.8818L1.19439 69.8818ZM1.14966 69.8676C1.14966 69.86 1.1473 69.8535 1.1426 69.8488C1.13789 69.8429 1.13141 69.8393 1.12376 69.8393C1.11552 69.8393 1.10846 69.8417 1.10257 69.8464C1.09787 69.8511 1.09433 69.8582 1.09316 69.8676L1.14966 69.8676Z" fill="#040404"/>
<path d="M1.3125 69.7666H1.36429L1.43021 69.8909V69.7666H1.47259V69.9471H1.4208L1.35488 69.8229V69.9471H1.3125V69.7666Z" fill="#040404"/>
<path d="M1.5847 69.8417C1.57528 69.8417 1.56822 69.8458 1.56351 69.8535C1.55881 69.86 1.55645 69.8694 1.55645 69.8818C1.55645 69.8959 1.55881 69.9066 1.56351 69.9124C1.56822 69.9189 1.57529 69.9219 1.5847 69.9219C1.59412 69.9219 1.60118 69.9189 1.60589 69.9124C1.61178 69.9066 1.61531 69.8959 1.61531 69.8818C1.61531 69.8694 1.61178 69.86 1.60589 69.8535C1.60118 69.8458 1.59412 69.8417 1.5847 69.8417ZM1.5847 69.811C1.60824 69.811 1.6259 69.8175 1.63885 69.8299C1.65298 69.8429 1.66004 69.86 1.66004 69.8818C1.66004 69.9042 1.65298 69.9213 1.63885 69.9337C1.6259 69.9466 1.60825 69.9525 1.5847 69.9525C1.56116 69.9525 1.54291 69.9466 1.53055 69.9337C1.5176 69.9213 1.51172 69.9042 1.51172 69.8818C1.51172 69.86 1.5176 69.8429 1.53055 69.8299C1.54291 69.8175 1.56116 69.811 1.5847 69.811Z" fill="#040404"/>
<path d="M1.69141 69.8955V69.813H1.73614V69.8248V69.8531V69.8743V69.8979C1.73614 69.9026 1.73673 69.9067 1.73849 69.9097C1.73967 69.9132 1.74202 69.9156 1.74556 69.9168C1.7485 69.9185 1.75144 69.9191 1.75497 69.9191C1.76439 69.9191 1.77145 69.9162 1.77616 69.9097C1.78205 69.902 1.78558 69.892 1.78558 69.879V69.813H1.82795V69.9474H1.78558V69.9286C1.77734 69.9368 1.76969 69.9421 1.76203 69.9451C1.75556 69.948 1.7485 69.9498 1.74085 69.9498C1.72496 69.9498 1.7126 69.9451 1.70318 69.9356C1.69494 69.9262 1.69141 69.9132 1.69141 69.8955H1.69141Z" fill="#040404"/>
<path d="M2.00374 69.8676V69.9502H1.959V69.8865C1.959 69.8759 1.95783 69.8676 1.95665 69.8629V69.8535C1.95488 69.8505 1.95253 69.8482 1.94959 69.8464C1.94605 69.8452 1.94252 69.8441 1.93782 69.8441C1.92958 69.8441 1.92251 69.8482 1.91663 69.8558C1.91192 69.8623 1.90956 69.8718 1.90956 69.8841V69.9502H1.86719V69.8158H1.90956V69.8346C1.91545 69.827 1.92251 69.8216 1.93075 69.8181C1.9384 69.8134 1.94605 69.811 1.95429 69.811C1.9696 69.811 1.98137 69.8158 1.98961 69.8252C1.99903 69.8346 2.00374 69.8488 2.00374 69.8676Z" fill="#040404"/>
<path d="M2.13281 69.7666H2.20815C2.23169 69.7666 2.24935 69.7725 2.2623 69.783C2.27466 69.7924 2.28113 69.8065 2.28113 69.8252C2.28113 69.844 2.27466 69.8592 2.2623 69.8698C2.24935 69.8791 2.23169 69.8838 2.20815 69.8838H2.17754V69.9471H2.13281V69.7666ZM2.17754 69.8018V69.851H2.20344C2.21286 69.851 2.21992 69.8498 2.22463 69.8463C2.22934 69.8416 2.23169 69.8346 2.23169 69.8252C2.23169 69.8176 2.22934 69.8123 2.22463 69.8088C2.21992 69.8041 2.21286 69.8018 2.20344 69.8018L2.17754 69.8018Z" fill="#040404"/>
<path d="M2.41138 69.8511C2.40785 69.85 2.40432 69.8488 2.39961 69.8488C2.39608 69.8476 2.39313 69.8464 2.39019 69.8464C2.37901 69.8464 2.37018 69.8505 2.36429 69.8582C2.35782 69.8647 2.35488 69.8747 2.35488 69.8889V69.9502H2.3125V69.8158H2.35488V69.837C2.36076 69.8275 2.36724 69.8216 2.37371 69.8181C2.38136 69.8134 2.39019 69.811 2.39961 69.811H2.40432C2.40549 69.811 2.40785 69.8122 2.41138 69.8134V69.8511Z" fill="#040404"/>
<path d="M2.49876 69.8417C2.48935 69.8417 2.48228 69.8458 2.47758 69.8535C2.47287 69.86 2.47051 69.8694 2.47051 69.8818C2.47051 69.8959 2.47287 69.9066 2.47758 69.9124C2.48229 69.9189 2.48935 69.9219 2.49876 69.9219C2.50818 69.9219 2.51525 69.9189 2.51995 69.9124C2.52584 69.9066 2.52937 69.8959 2.52937 69.8818C2.52937 69.8694 2.52584 69.86 2.51995 69.8535C2.51524 69.8458 2.50818 69.8417 2.49876 69.8417ZM2.49876 69.811C2.52231 69.811 2.53996 69.8175 2.55291 69.8299C2.56704 69.8429 2.5741 69.86 2.5741 69.8818C2.5741 69.9042 2.56704 69.9213 2.55291 69.9337C2.53997 69.9466 2.52231 69.9525 2.49876 69.9525C2.47522 69.9525 2.45698 69.9466 2.44462 69.9337C2.43167 69.9213 2.42578 69.9042 2.42578 69.8818C2.42578 69.86 2.43167 69.8429 2.44462 69.8299C2.45698 69.8175 2.47522 69.811 2.49876 69.811Z" fill="#040404"/>
<path d="M2.60212 69.8127H2.64396V69.944C2.64396 69.9628 2.63931 69.9768 2.63001 69.9862C2.62188 69.9956 2.61025 70.0003 2.59514 70.0003H2.57422V69.9721H2.58119C2.58875 69.9721 2.59398 69.9698 2.59747 69.9651C2.60037 69.9616 2.60212 69.9546 2.60212 69.944L2.60212 69.8127ZM2.60212 69.7588H2.64396V69.794H2.60212V69.7588Z" fill="#040404"/>
<path d="M2.8233 69.8818V69.8936H2.72206C2.72324 69.9048 2.72736 69.9125 2.73383 69.9172C2.73972 69.9219 2.74855 69.9242 2.75973 69.9242C2.76915 69.9242 2.77857 69.9237 2.78798 69.9219C2.7974 69.9189 2.80682 69.9142 2.81623 69.9077V69.9431C2.80682 69.9467 2.79622 69.949 2.78563 69.9502C2.77621 69.9514 2.76562 69.9525 2.75502 69.9525C2.73148 69.9525 2.71265 69.9472 2.69852 69.936C2.68557 69.9237 2.67969 69.9054 2.67969 69.8818C2.67969 69.86 2.68557 69.8429 2.69852 69.8299C2.71088 69.8175 2.72913 69.811 2.75267 69.811C2.77445 69.811 2.79152 69.8175 2.80446 69.8299C2.81682 69.8429 2.8233 69.86 2.8233 69.8818L2.8233 69.8818ZM2.77856 69.8676C2.77856 69.86 2.77621 69.8535 2.7715 69.8488C2.76679 69.8429 2.76032 69.8393 2.75267 69.8393C2.74443 69.8393 2.73737 69.8417 2.73148 69.8464C2.72677 69.8511 2.72324 69.8582 2.72206 69.8676L2.77856 69.8676Z" fill="#040404"/>
<path d="M2.96537 69.8181V69.8535C2.95889 69.8505 2.95242 69.8482 2.94653 69.8464C2.94183 69.8435 2.93594 69.8417 2.93005 69.8417C2.91711 69.8417 2.90769 69.8458 2.9018 69.8535C2.89533 69.86 2.89239 69.8694 2.89239 69.8818C2.89239 69.8948 2.89533 69.9048 2.9018 69.9125C2.90769 69.9189 2.9171 69.9219 2.93005 69.9219C2.93594 69.9219 2.94241 69.9213 2.94889 69.9195C2.95477 69.9183 2.96066 69.9148 2.96537 69.9101V69.9455C2.95889 69.949 2.95183 69.9502 2.94418 69.9502C2.93771 69.9514 2.93123 69.9525 2.92535 69.9525C2.90004 69.9525 2.88061 69.9472 2.86649 69.936C2.85354 69.9237 2.84766 69.9054 2.84766 69.8818C2.84766 69.86 2.85354 69.8429 2.86649 69.8299C2.88062 69.8175 2.90004 69.811 2.92535 69.811C2.93123 69.811 2.93771 69.8122 2.94418 69.8134C2.95183 69.8152 2.9589 69.8169 2.96537 69.8181V69.8181Z" fill="#040404"/>
<path d="M3.0503 69.7729V69.8128H3.09503V69.8433H3.0503V69.8996C3.0503 69.906 3.05088 69.9107 3.05265 69.9136C3.05559 69.9154 3.06089 69.916 3.06913 69.916H3.09032V69.9464H3.05265C3.03676 69.9464 3.02499 69.9435 3.01733 69.9371C3.01086 69.9294 3.00792 69.9171 3.00792 69.8996V69.8433H2.98438V69.8128H3.00792V69.7729L3.0503 69.7729Z" fill="#040404"/>
</svg>
