<svg width="28" height="28" viewBox="0 0 28 28" fill="none" xmlns="http://www.w3.org/2000/svg">
<rect width="28" height="28" rx="14" fill="#E8E6DF"/>
<path d="M12.3402 20.0859C11.1213 21.3048 9.13289 21.3048 7.91417 20.0859C6.69528 18.867 6.69528 16.8787 7.91417 15.6599L10.6805 12.8935C11.8425 11.7316 13.7003 11.6674 14.9294 12.7249C15.0892 12.8616 15.164 13.0731 15.1256 13.28C15.0871 13.4867 14.9413 13.6573 14.743 13.7273C14.5448 13.7974 14.3241 13.7563 14.1644 13.6197C13.3908 12.9541 12.2481 12.9858 11.5105 13.7234L8.74416 16.4898C7.97063 17.2633 7.97063 18.4827 8.74416 19.2561C9.51755 20.0295 10.737 20.0295 11.5105 19.2561L14.1383 16.628C14.2478 16.5157 14.3979 16.452 14.5549 16.4509C14.7118 16.4499 14.8626 16.5119 14.9735 16.6228C15.0844 16.7337 15.1463 16.8845 15.1454 17.0414C15.1443 17.1983 15.0806 17.3483 14.9683 17.4578L12.3402 20.0859ZM17.3195 15.1066C16.1575 16.2686 14.2997 16.3327 13.0706 15.2752H13.0707C12.9513 15.174 12.8771 15.0293 12.8646 14.8732C12.8521 14.7171 12.9022 14.5625 13.004 14.4436C13.1057 14.3246 13.2507 14.251 13.4068 14.2392C13.5629 14.2273 13.7172 14.2782 13.8358 14.3804C14.6093 15.0458 15.752 15.0143 16.4897 14.2767L19.256 11.5104C20.0295 10.7368 20.0295 9.51755 19.256 8.74405C18.4826 7.97066 17.2632 7.97066 16.4897 8.74405L13.8617 11.372C13.7523 11.4847 13.6022 11.5487 13.4451 11.5498C13.288 11.5509 13.137 11.4891 13.026 11.378C12.9149 11.2669 12.853 11.1159 12.8541 10.9588C12.8551 10.8018 12.9193 10.6517 13.0318 10.5421L15.6598 7.91417C16.8787 6.69528 18.8671 6.69528 20.0858 7.91417C21.3047 9.13307 21.3047 11.1215 20.0858 12.3402L17.3195 15.1066Z" fill="#937206"/>
</svg>
