<svg width="20" height="20" viewBox="0 0 20 20" fill="none" xmlns="http://www.w3.org/2000/svg">
<path d="M17.1898 1H2.81062C2.33057 1.00068 1.87035 1.19501 1.53086 1.5407C1.19153 1.88638 1.00055 2.35489 1 2.84371V17.1563C1.00054 17.6451 1.19151 18.1136 1.53086 18.4593C1.87033 18.805 2.33057 18.9994 2.81062 19H17.1898C17.6698 18.9993 18.1299 18.805 18.4694 18.4593C18.8087 18.1136 18.9996 17.645 19 17.1563V2.84371C18.9996 2.35503 18.8088 1.8864 18.4694 1.5407C18.1299 1.19503 17.6698 1.0007 17.1898 1ZM2.81062 1.81513L17.1898 1.81526C17.4576 1.81554 17.7142 1.92403 17.9036 2.11686C18.0928 2.30969 18.1992 2.57117 18.1995 2.8437V11.0386L14.4856 7.37665C14.3309 7.22407 14.0855 7.22353 13.9301 7.37528L8.66161 12.5196L6.91213 10.6814L6.912 10.6812C6.76458 10.527 6.52469 10.5158 6.36399 10.6559L1.80022 14.6452V2.84382C1.80049 2.57116 1.90704 2.30969 2.0964 2.11684C2.28577 1.92415 2.54256 1.81565 2.81034 1.81538L2.81062 1.81513ZM1.80063 17.1562V15.7195L6.6001 11.5244L8.36179 13.3754L8.36259 13.3768L8.36393 13.3777L12.9387 18.1846H2.8107C2.54293 18.1843 2.28615 18.0759 2.09677 17.8831C1.9074 17.6903 1.80085 17.4288 1.80059 17.1561L1.80063 17.1562ZM17.1899 18.1848L14.0533 18.1846L9.21882 13.1053L14.206 8.23556L18.1992 12.1735V17.1561C18.1989 17.4288 18.0925 17.6901 17.9032 17.883C17.7139 18.0758 17.4572 18.1843 17.1895 18.1846L17.1899 18.1848Z" fill="#040404" stroke="#040404" stroke-width="0.3"/>
<path d="M5.37633 7.22958C5.87487 7.22958 6.35293 7.02788 6.70552 6.66897C7.05798 6.30993 7.25608 5.82313 7.25608 5.31548C7.25608 4.80782 7.058 4.32088 6.70552 3.96198C6.35293 3.60295 5.87487 3.40137 5.37633 3.40137C4.87779 3.40137 4.39959 3.60293 4.04714 3.96198C3.69454 4.32088 3.49658 4.80782 3.49658 5.31548C3.49712 5.82285 3.69533 6.30951 4.04765 6.6683C4.40011 7.0272 4.87789 7.22906 5.37633 7.22958ZM5.37633 4.21649C5.6626 4.21649 5.93707 4.33222 6.13943 4.53829C6.34179 4.74449 6.45558 5.02397 6.45558 5.31547C6.45558 5.60698 6.34179 5.88647 6.13943 6.09252C5.93706 6.29858 5.6626 6.41445 5.37633 6.41445C5.09006 6.41445 4.81559 6.29858 4.61323 6.09252C4.41073 5.88645 4.29708 5.60698 4.29708 5.31547C4.29735 5.02411 4.41127 4.74476 4.6135 4.5387C4.81587 4.33277 5.09023 4.21678 5.37633 4.2165L5.37633 4.21649Z" fill="#040404" stroke="#040404" stroke-width="0.3"/>
</svg>
