<svg width="31" height="28" viewBox="0 0 31 28" fill="none" xmlns="http://www.w3.org/2000/svg">
<path d="M1.75 15.1094C2.625 15.1094 3.5 14.4531 3.5 13.3594C3.5 12.4844 2.84375 11.6094 1.75 11.6094C0.875 11.6094 0 12.2656 0 13.3594C0 14.2344 0.875 15.1094 1.75 15.1094Z" fill="#ACACAC"/>
<path d="M1.75 3.5C2.625 3.5 3.5 2.84375 3.5 1.75C3.5 0.875 2.84375 0 1.75 0C0.875 0 0 0.65625 0 1.75C0 2.84375 0.875 3.5 1.75 3.5Z" fill="#ACACAC"/>
<path d="M1.75 27.5332C2.625 27.5332 3.5 26.877 3.5 25.7832C3.5 24.9082 2.84375 24.0332 1.75 24.0332C0.875 24.0332 0 24.6895 0 25.7832C0 26.877 0.875 27.5332 1.75 27.5332Z" fill="#ACACAC"/>
<path d="M30.4971 24.4041H10.4971V26.8146H30.4971V24.4041Z" fill="#ACACAC"/>
<path d="M30.4971 0.37085H10.4971V2.78144H30.4971V0.37085Z" fill="#ACACAC"/>
<path d="M30.4971 11.7947H10.4971V14.2053H30.4971V11.7947Z" fill="#ACACAC"/>
</svg>
