<svg width="18" height="18" viewBox="0 0 18 18" fill="none" xmlns="http://www.w3.org/2000/svg">
<path d="M2.80374 0H15.1963C16.7103 0 18.0001 1.29414 18.0001 2.94121V15.0588C18.0001 16.7059 16.7104 18 15.1963 18H2.80374C1.23365 18 0 16.7059 0 15.0588V2.94121C0 1.29414 1.23365 0 2.80374 0V0ZM15.1963 0.999936H2.80374C1.79441 0.999936 0.953321 1.88223 0.953321 2.94108V15.0587C0.953321 16.1175 1.79437 16.9998 2.80374 16.9998H15.1963C16.2057 16.9998 17.0467 16.1175 17.0467 15.0587V2.94108C17.0467 1.88226 16.2057 0.999936 15.1963 0.999936Z" fill="black"/>
<path d="M10.9347 8.99991L7.34608 6.64695V11.353L10.9347 8.99991ZM7.12149 5.35297L12.0562 8.58816C12.3365 8.76457 12.3365 9.23517 12.0562 9.4117L7.12149 12.6469C6.84117 12.8822 6.39258 12.6469 6.39258 12.2352V5.76447C6.39258 5.35275 6.78505 5.11746 7.12149 5.35275V5.35297Z" fill="black"/>
</svg>
