<svg width="28" height="28" viewBox="0 0 28 28" fill="none" xmlns="http://www.w3.org/2000/svg">
<path d="M26.2664 24.9097H1.72773C1.04806 24.9097 0.49707 25.4607 0.49707 26.1403C0.49707 26.82 1.04806 27.371 1.72773 27.371H26.2664C26.9461 27.371 27.4971 26.82 27.4971 26.1403C27.4971 25.4607 26.9461 24.9097 26.2664 24.9097Z" fill="#040404"/>
<path d="M26.2664 0.371094H1.72773C1.04806 0.371094 0.49707 0.922079 0.49707 1.60175C0.49707 2.28143 1.04806 2.83242 1.72773 2.83242H26.2664C26.9461 2.83242 27.4971 2.28143 27.4971 1.60175C27.4971 0.922079 26.9461 0.371094 26.2664 0.371094Z" fill="#040404"/>
<path d="M26.2664 12.0352H1.72773C1.04806 12.0352 0.49707 12.5861 0.49707 13.2658C0.49707 13.9455 1.04806 14.4965 1.72773 14.4965H26.2664C26.9461 14.4965 27.4971 13.9455 27.4971 13.2658C27.4971 12.5861 26.9461 12.0352 26.2664 12.0352Z" fill="#040404"/>
</svg>
