<svg width="20" height="22" viewBox="0 0 20 22" fill="none" xmlns="http://www.w3.org/2000/svg">
<path d="M2.44517 10.3623H17.555C18.3533 10.3623 19.0002 11.1312 19.0002 11.7543V19.6079C19.0002 20.3768 18.3533 20.9999 17.555 20.9999H2.44517C1.64688 20.9999 1 20.231 1 19.6079V11.7543C1 10.9854 1.64688 10.3623 2.44517 10.3623V10.3623Z" stroke="#C49900" stroke-width="2" stroke-linecap="round" stroke-linejoin="round"/>
<path d="M15.1169 10.3626V5.92798C15.1169 4.62111 14.5778 3.36743 13.6187 2.44347C12.6591 1.51922 11.3579 1 10.0008 1C8.64408 1 7.34291 1.51922 6.38333 2.44347C5.4238 3.36738 4.88477 4.62111 4.88477 5.92798V10.3674" stroke="#C49900" stroke-width="2" stroke-linecap="round" stroke-linejoin="round"/>
<line x1="10.0996" y1="14.1643" x2="10.0996" y2="16.943" stroke="#C49900" stroke-width="2" stroke-linecap="round"/>
</svg>
