<svg width="12" height="18" viewBox="0 0 12 18" fill="none" xmlns="http://www.w3.org/2000/svg">
<path d="M4.4175 10.3425C4.41891 10.6749 4.52462 10.9985 4.71973 11.2676C4.91485 11.5367 5.18951 11.7378 5.505 11.8425V13.2675H6.505V11.8425C6.82029 11.7375 7.09475 11.5363 7.28981 11.2673C7.48487 10.9982 7.59072 10.6748 7.5925 10.3425C7.5925 9.92147 7.42525 9.51768 7.12754 9.21997C6.82982 8.92226 6.42604 8.755 6.005 8.755C5.58397 8.755 5.18018 8.92226 4.88247 9.21997C4.58475 9.51768 4.4175 9.92147 4.4175 10.3425ZM6.005 9.755C6.16082 9.755 6.31025 9.8169 6.42043 9.92708C6.53061 10.0373 6.5925 10.1867 6.5925 10.3425C6.59184 10.4981 6.52974 10.6472 6.4197 10.7572C6.30967 10.8672 6.16062 10.9293 6.005 10.93C5.84919 10.93 5.69975 10.8681 5.58958 10.7579C5.4794 10.6477 5.4175 10.4983 5.4175 10.3425C5.4175 10.2649 5.43286 10.1881 5.4627 10.1165C5.49254 10.0449 5.53625 9.97992 5.59134 9.9253C5.64642 9.87068 5.71178 9.82751 5.78364 9.79828C5.8555 9.76905 5.93243 9.75434 6.01 9.755H6.005ZM10.4425 7.03L10.1425 6.93501V2.3975L8.8775 1.135L5.93 0.5L2.86 1.1475L1.6425 2.36501V6.995L1.5275 7.0325L0.5 8.06001V10.9425C0.503043 12.1739 0.85353 13.3794 1.51115 14.4204C2.16878 15.4615 3.10685 16.2958 4.21751 16.8275L5.2925 17.3275H7.0775L7.99 16.855C9.05168 16.3073 9.94188 15.4776 10.5629 14.4571C11.1838 13.4366 11.5115 12.2646 11.51 11.07V8.07L10.4425 7.03ZM2.8925 2.4175L5.9275 1.7775L8.8925 2.4175V6.5425L6.805 5.89H5.025L2.8925 6.5875V2.4175ZM10.26 11.0825C10.2618 12.0477 9.99737 12.9948 9.4959 13.8196C8.99442 14.6443 8.27528 15.3149 7.4175 15.7575L6.2025 16.3875L4.755 15.6975C3.85897 15.2679 3.10221 14.5943 2.57157 13.7541C2.04093 12.914 1.75792 11.9412 1.755 10.9475V8.28L5.91 6.9225L10.265 8.285L10.26 11.0825Z" fill="#A3A3A3"/>
</svg>
