<svg width="212" height="27" viewBox="0 0 212 27" fill="none" xmlns="http://www.w3.org/2000/svg">
<g filter="url(#filter0_d_3737_234779)">
<path d="M21.0977 10.2559V19.3965C20.1797 20.5586 18.9883 21.501 17.5234 22.2236C16.0586 22.9365 14.5303 23.293 12.9385 23.293C11.3955 23.293 9.9502 23.0195 8.60254 22.4727C7.25488 21.9258 6.10254 21.1787 5.14551 20.2314C4.18848 19.2842 3.43164 18.1416 2.875 16.8037C2.32812 15.4658 2.05469 14.0303 2.05469 12.4971C2.05469 10.5049 2.51367 8.68359 3.43164 7.0332C4.34961 5.38281 5.61914 4.08398 7.24023 3.13672C8.87109 2.17969 10.6826 1.70117 12.6748 1.70117C14.1689 1.70117 15.5898 1.98926 16.9375 2.56543C18.2949 3.1416 19.4326 3.93262 20.3506 4.93848L18.3438 6.91602C17.709 6.22266 16.8789 5.65625 15.8535 5.2168C14.8281 4.76758 13.7686 4.54297 12.6748 4.54297C10.5264 4.54297 8.71484 5.30469 7.24023 6.82812C5.77539 8.35156 5.04297 10.2412 5.04297 12.4971C5.04297 14.0498 5.38965 15.4365 6.08301 16.6572C6.77637 17.8682 7.71875 18.8057 8.91016 19.4697C10.1113 20.124 11.4541 20.4512 12.9385 20.4512C14.0029 20.4512 14.9795 20.2754 15.8682 19.9238C16.7666 19.5625 17.5088 19.0889 18.0947 18.5029V13.0977H12.1035V10.2559H21.0977Z" fill="white"/>
<path d="M38.561 13.0977H36.1587V23H33.1558V1.99414H40.5093C42.2085 1.99414 43.5708 2.4043 44.5962 3.22461C45.2407 3.75195 45.7437 4.3916 46.105 5.14355C46.4761 5.88574 46.6616 6.68652 46.6616 7.5459C46.6616 8.40527 46.4761 9.21094 46.105 9.96289C45.7437 10.7051 45.2407 11.3398 44.5962 11.8672C43.8833 12.4531 43.063 12.8242 42.1353 12.9805L49.6645 23H46.0317L38.561 13.0977ZM36.1587 10.2559H40.3628C41.5151 10.2559 42.355 9.99219 42.8823 9.46484C43.3999 8.94727 43.6587 8.30762 43.6587 7.5459C43.6587 6.78418 43.3999 6.14453 42.8823 5.62695C42.3647 5.10938 41.5249 4.85059 40.3628 4.85059H36.1587V10.2559Z" fill="white"/>
<path d="M58.1484 16.7598C57.6113 15.4219 57.3428 14.001 57.3428 12.4971C57.3428 10.9932 57.6113 9.57227 58.1484 8.23438C58.6855 6.89648 59.418 5.75391 60.3457 4.80664C61.2734 3.84961 62.3867 3.09277 63.6855 2.53613C64.9844 1.97949 66.3662 1.70117 67.8311 1.70117C69.7842 1.70117 71.5615 2.1748 73.1631 3.12207C74.7744 4.05957 76.0391 5.35352 76.957 7.00391C77.875 8.6543 78.334 10.4853 78.334 12.4971C78.334 14.5088 77.875 16.3398 76.957 17.9902C76.0391 19.6406 74.7744 20.9395 73.1631 21.8867C71.5615 22.8242 69.7842 23.293 67.8311 23.293C66.3662 23.293 64.9844 23.0146 63.6855 22.458C62.3867 21.9014 61.2734 21.1494 60.3457 20.2021C59.418 19.2451 58.6855 18.0977 58.1484 16.7598ZM60.331 12.4971C60.331 14.7725 61.0439 16.667 62.4697 18.1807C63.8955 19.6943 65.6826 20.4512 67.8311 20.4512C69.9795 20.4512 71.7666 19.6943 73.1924 18.1807C74.6182 16.667 75.3311 14.7725 75.3311 12.4971C75.3311 10.2314 74.6133 8.3418 73.1777 6.82812C71.752 5.30469 69.9697 4.54297 67.8311 4.54297C65.6924 4.54297 63.9053 5.30469 62.4697 6.82812C61.0439 8.3418 60.331 10.2314 60.331 12.4971Z" fill="white"/>
<path d="M98.1709 23.293C96.8916 23.293 95.6855 23.0537 94.5527 22.5752C93.4297 22.0869 92.4629 21.4082 91.6523 20.5391C90.1973 18.957 89.4697 16.877 89.4697 14.2988V1.99414H92.4727V14.4453C92.4727 16.2422 92.9121 17.624 93.791 18.5908C94.9043 19.8311 96.3643 20.4512 98.1709 20.4512C99.9775 20.4512 101.438 19.8311 102.551 18.5908C103.429 17.624 103.869 16.2422 103.869 14.4453V1.99414H106.872V14.2988C106.872 16.8672 106.139 18.9473 104.675 20.5391C103.864 21.4082 102.892 22.0869 101.76 22.5752C100.637 23.0537 99.4404 23.293 98.1709 23.293Z" fill="white"/>
<path d="M134.97 23L122.372 7.5752V23H119.37V1.99414H121.479L134.077 17.4189V1.99414H137.079V23H134.97Z" fill="white"/>
<path d="M163.889 15.793C164.338 14.7578 164.562 13.6592 164.562 12.4971C164.562 11.335 164.338 10.2461 163.889 9.23047C163.439 8.20508 162.814 7.33594 162.014 6.62305C161.33 6.02734 160.515 5.58301 159.567 5.29004C158.62 4.99707 157.434 4.85059 156.008 4.85059H152.858V20.1436H156.008C157.434 20.1436 158.62 20.002 159.567 19.7188C160.515 19.4258 161.33 18.9814 162.014 18.3857C162.814 17.6826 163.439 16.8184 163.889 15.793ZM156.154 23H149.855V1.99414H156.154C159.152 1.99414 161.555 2.6582 163.361 3.98633C164.67 4.96289 165.695 6.19824 166.438 7.69238C167.189 9.17676 167.565 10.7783 167.565 12.4971C167.565 14.2256 167.194 15.8369 166.452 17.3311C165.71 18.8252 164.689 20.0557 163.391 21.0225C161.594 22.3408 159.182 23 156.154 23Z" fill="white"/>
<path d="M194.568 23H191.037L198.508 11.5156L192.238 1.99414H195.93L200.456 8.99609L205.012 1.99414H208.703L202.404 11.5156L209.904 23H206.36L200.456 14.0352L194.568 23Z" fill="white"/>
</g>
<defs>
<filter id="filter0_d_3737_234779" x="0.0546875" y="0.701172" width="211.85" height="25.5918" filterUnits="userSpaceOnUse" color-interpolation-filters="sRGB">
<feFlood flood-opacity="0" result="BackgroundImageFix"/>
<feColorMatrix in="SourceAlpha" type="matrix" values="0 0 0 0 0 0 0 0 0 0 0 0 0 0 0 0 0 0 127 0" result="hardAlpha"/>
<feOffset dy="1"/>
<feGaussianBlur stdDeviation="1"/>
<feComposite in2="hardAlpha" operator="out"/>
<feColorMatrix type="matrix" values="0 0 0 0 0 0 0 0 0 0 0 0 0 0 0 0 0 0 0.25 0"/>
<feBlend mode="normal" in2="BackgroundImageFix" result="effect1_dropShadow_3737_234779"/>
<feBlend mode="normal" in="SourceGraphic" in2="effect1_dropShadow_3737_234779" result="shape"/>
</filter>
</defs>
</svg>
