<svg width="49" height="42" viewBox="0 0 49 42" fill="none" xmlns="http://www.w3.org/2000/svg">
<path d="M47.9483 0.711571C47.8731 0.70633 47.7972 0.717029 47.7258 0.742231L1.274 16.0284C1.08237 16.0971 0.942803 16.2665 0.91086 16.4692C0.879383 16.6715 0.960165 16.875 1.12134 16.9988L12.7762 25.5022L9.44641 37.9292C9.40586 38.0731 9.42415 38.2268 9.49681 38.3563C9.56974 38.4862 9.69134 38.5805 9.83433 38.6188C9.97694 38.657 10.1294 38.6362 10.2575 38.5601C10.3852 38.4843 10.478 38.36 10.5148 38.2151L13.7363 26.1923L22.5457 32.6334L10.4366 38.5069L11.7095 33.7565C11.7499 33.6129 11.7317 33.4589 11.6592 33.329C11.5862 33.1994 11.4647 33.1048 11.322 33.0666C11.1791 33.0283 11.0265 33.0495 10.8985 33.1252C10.7707 33.2014 10.6779 33.3257 10.6412 33.4702L9.05232 39.4C8.99691 39.6113 9.06832 39.8348 9.23532 39.9726C9.40221 40.1109 9.63411 40.1375 9.8287 40.0413L23.5794 33.3795L33.68 40.7442C33.82 40.8442 33.9982 40.873 34.1625 40.8215C34.3271 40.7701 34.4589 40.6446 34.5193 40.4818L48.4123 1.44893C48.4687 1.28751 48.4485 1.10959 48.3582 0.965669C48.2678 0.821748 48.117 0.728542 47.9483 0.711571ZM45.4671 2.62872L13.559 24.7196L2.62357 16.7338L45.4671 2.62872ZM46.6268 3.17403L33.7133 39.4182L14.4851 25.4006L46.6268 3.17403Z" fill="white" stroke="white" stroke-width="0.5"/>
</svg>
