<svg width="42" height="38" viewBox="0 0 42 38" fill="none" xmlns="http://www.w3.org/2000/svg">
<path d="M29.5734 12.2891C27.6832 12.2891 26.1445 13.8277 26.1445 15.718C26.1445 17.6082 27.6832 19.1469 29.5734 19.1469C31.4637 19.1469 33.0023 17.6082 33.0023 15.718C33.0023 13.827 31.4637 12.2891 29.5734 12.2891ZM29.5734 18.0036C28.313 18.0036 27.2878 16.9783 27.2878 15.718C27.2878 14.4576 28.3131 13.4324 29.5734 13.4324C30.8338 13.4324 31.859 14.4576 31.859 15.718C31.859 16.9784 30.8338 18.0036 29.5734 18.0036Z" fill="white" stroke="white"/>
<path d="M11.2883 12.2891C9.39807 12.2891 7.85938 13.8277 7.85938 15.718C7.85938 17.6082 9.39803 19.1469 11.2883 19.1469C13.1785 19.1469 14.7172 17.6082 14.7172 15.718C14.7172 13.827 13.1793 12.2891 11.2883 12.2891ZM11.2883 18.0036C10.0279 18.0036 9.00268 16.9783 9.00268 15.718C9.00268 14.4576 10.0279 13.4324 11.2883 13.4324C12.5487 13.4324 13.5739 14.4576 13.5739 15.718C13.5747 16.9784 12.5495 18.0036 11.2883 18.0036Z" fill="white" stroke="white"/>
<path d="M33.216 1H8.78642C4.49258 1 1 4.49422 1 8.78644V23.5012C1 27.7942 4.49258 31.2868 8.78642 31.2868H28.2419C28.379 32.0673 28.8191 33.5175 30.2246 34.8026C32.0694 36.4896 34.5917 36.6418 34.6994 36.6474C34.7098 36.6482 34.7202 36.6482 34.7289 36.6482C34.9195 36.6482 35.0973 36.5526 35.2041 36.3923C35.3157 36.2241 35.33 36.0081 35.2415 35.8263C35.2368 35.8175 34.7887 34.872 34.6771 33.3007C34.6014 32.2404 34.7297 31.5021 34.8222 31.1306C38.3683 30.39 41 27.1031 41 23.3338V8.7872C41.0016 4.49417 37.5092 1 33.216 1ZM39.8585 23.3338C39.8585 26.6711 37.4651 29.5649 34.2915 30.0663C34.0962 30.0974 33.9312 30.2274 33.8538 30.4107C33.8347 30.4538 33.4034 31.5069 33.5381 33.386C33.5979 34.2039 33.7366 34.8752 33.8753 35.3687C33.0877 35.1941 31.9213 34.805 30.995 33.9608C29.3838 32.4875 29.324 30.7927 29.3217 30.7088C29.3169 30.3971 29.0626 30.1451 28.75 30.1451H8.78681C5.12361 30.1451 2.14268 27.1658 2.14268 23.5026V8.78791C2.14268 5.12388 5.1234 2.14376 8.78681 2.14376H33.2163C36.8779 2.14376 39.8588 5.12449 39.8588 8.78791L39.8585 23.3338Z" fill="white" stroke="white"/>
<path d="M22.7568 21.2344H18.1896" stroke="white" stroke-width="2" stroke-linecap="round"/>
</svg>
