<svg width="20" height="14" viewBox="0 0 20 14" fill="none" xmlns="http://www.w3.org/2000/svg">
<path d="M7.37469 1C6.11389 1 4.88141 1.37387 3.8331 2.07433C2.78479 2.77479 1.96773 3.77038 1.48525 4.9352C1.00276 6.10002 0.876522 7.38175 1.12249 8.61832C1.36846 9.85489 1.97559 10.9907 2.8671 11.8823C3.75862 12.7738 4.89448 13.3809 6.13105 13.6269C7.36761 13.8728 8.64935 13.7466 9.81417 13.2641C10.979 12.7816 11.9746 11.9646 12.675 10.9163C13.3755 9.86795 13.7494 8.63547 13.7494 7.37468C13.7473 5.68463 13.0751 4.06438 11.88 2.86933C10.685 1.67428 9.06474 1.00202 7.37469 1ZM7.37469 12.9873C6.26461 12.9873 5.17947 12.6581 4.25648 12.0414C3.33349 11.4247 2.61411 10.5481 2.1893 9.52254C1.7645 8.49697 1.65335 7.36846 1.86991 6.27971C2.08648 5.19097 2.62103 4.1909 3.40597 3.40596C4.1909 2.62102 5.19098 2.08647 6.27972 1.86991C7.36846 1.65335 8.49697 1.7645 9.52254 2.1893C10.5481 2.61411 11.4247 3.33349 12.0414 4.25648C12.6581 5.17947 12.9873 6.26461 12.9873 7.37468C12.9853 8.86262 12.3933 10.289 11.3412 11.3412C10.289 12.3933 8.86262 12.9853 7.37469 12.9873ZM10.6097 8.95216C10.5782 9.01629 10.5294 9.07029 10.4688 9.10802C10.4082 9.14575 10.3381 9.16568 10.2667 9.16554C10.2087 9.16577 10.1513 9.15274 10.0991 9.12743L7.20703 7.71761C7.1429 7.68619 7.08889 7.63738 7.05116 7.57674C7.01344 7.51611 6.99351 7.44609 6.99365 7.37468V3.34716C6.99365 3.24611 7.0338 3.14919 7.10525 3.07773C7.17671 3.00627 7.27363 2.96613 7.37469 2.96613C7.47574 2.96613 7.57266 3.00627 7.64412 3.07773C7.71557 3.14919 7.75572 3.24611 7.75572 3.34716V7.15749L10.4229 8.46062C10.5113 8.50288 10.5799 8.57751 10.6147 8.66903C10.6494 8.76054 10.6476 8.86193 10.6097 8.95216ZM12.5872 1.38103C12.5872 1.27998 12.6274 1.18306 12.6988 1.1116C12.7703 1.04014 12.8672 1 12.9682 1H18.619C18.72 1 18.8169 1.04014 18.8884 1.1116C18.9599 1.18306 19 1.27998 19 1.38103C19 1.48209 18.9599 1.57901 18.8884 1.65046C18.8169 1.72192 18.72 1.76207 18.619 1.76207H12.9682C12.8672 1.76207 12.7703 1.72192 12.6988 1.65046C12.6274 1.57901 12.5872 1.48209 12.5872 1.38103ZM19 5.37807C19 5.47913 18.9599 5.57604 18.8884 5.6475C18.8169 5.71896 18.72 5.7591 18.619 5.7591H15.3345C15.2334 5.7591 15.1365 5.71896 15.065 5.6475C14.9936 5.57604 14.9534 5.47913 14.9534 5.37807C14.9534 5.27701 14.9936 5.1801 15.065 5.10864C15.1365 5.03718 15.2334 4.99704 15.3345 4.99704H18.619C18.72 4.99704 18.8169 5.03718 18.8884 5.10864C18.9599 5.1801 19 5.27701 19 5.37807ZM19 9.37129C19 9.47235 18.9599 9.56927 18.8884 9.64073C18.8169 9.71218 18.72 9.75233 18.619 9.75233H15.3345C15.2334 9.75233 15.1365 9.71218 15.065 9.64073C14.9936 9.56927 14.9534 9.47235 14.9534 9.37129C14.9534 9.27024 14.9936 9.17332 15.065 9.10186C15.1365 9.03041 15.2334 8.99026 15.3345 8.99026H18.619C18.72 8.99026 18.8169 9.03041 18.8884 9.10186C18.9599 9.17332 19 9.27024 19 9.37129ZM19 13.3683C19 13.4694 18.9599 13.5663 18.8884 13.6378C18.8169 13.7092 18.72 13.7494 18.619 13.7494H12.9682C12.8672 13.7494 12.7703 13.7092 12.6988 13.6378C12.6274 13.5663 12.5872 13.4694 12.5872 13.3683C12.5872 13.2673 12.6274 13.1704 12.6988 13.0989C12.7703 13.0274 12.8672 12.9873 12.9682 12.9873H18.619C18.72 12.9873 18.8169 13.0274 18.8884 13.0989C18.9599 13.1704 19 13.2673 19 13.3683Z" fill="#8E6B0B" stroke="#8E6B0B" stroke-width="0.2"/>
</svg>
