<svg width="18" height="18" viewBox="0 0 18 18" fill="none" xmlns="http://www.w3.org/2000/svg">
<path d="M16.8049 8.70732H15.9473C15.7961 5.13307 12.8669 2.2039 9.29268 2.05249V1.19512C9.29268 1.08741 9.20546 1 9.09756 1H8.90244C8.79473 1 8.70732 1.08741 8.70732 1.19512V2.05249C5.13307 2.2039 2.2039 5.13307 2.05249 8.70732H1.19512C1.08741 8.70732 1 8.79473 1 8.90244V9.09756C1 9.20546 1.08741 9.29268 1.19512 9.29268H2.05249C2.2039 12.8669 5.13307 15.7961 8.70732 15.9473V16.8049C8.70732 16.9128 8.79473 17 8.90244 17H9.09756C9.20546 17 9.29268 16.9128 9.29268 16.8049V15.9473C12.8669 15.7961 15.7961 12.8669 15.9473 9.29268H16.8049C16.9128 9.29268 17 9.20546 17 9.09756V8.90244C17 8.79473 16.9128 8.70732 16.8049 8.70732ZM14.2568 9.29268H15.3614C15.2111 12.5461 12.5461 15.2111 9.29268 15.3616V14.257C9.29268 14.1491 9.20546 14.0619 9.09756 14.0619H8.90244C8.79473 14.0619 8.70732 14.1491 8.70732 14.257V15.3616C5.45385 15.2111 2.78888 12.5461 2.63844 9.29268H3.74302C3.85073 9.29268 3.93815 9.20546 3.93815 9.09756V8.90244C3.93815 8.79473 3.85073 8.70732 3.74302 8.70732H2.63844C2.78888 5.45385 5.45385 2.78888 8.70732 2.63844V3.74302C8.70732 3.85073 8.79473 3.93815 8.90244 3.93815H9.09756C9.20546 3.93815 9.29268 3.85073 9.29268 3.74302V2.63844C12.5461 2.78888 15.2111 5.45385 15.3616 8.70732H14.257C14.1491 8.70732 14.0619 8.79473 14.0619 8.90244V9.09756C14.0617 9.20546 14.1491 9.29268 14.2568 9.29268Z" fill="#8E6B0B" stroke="#8E6B0B" stroke-width="0.3"/>
<path d="M8.99999 7.22223C8.01966 7.22223 7.22217 8.01972 7.22217 9.00005C7.22217 9.98029 8.01966 10.7778 8.99999 10.7778C9.98023 10.7778 10.7777 9.98029 10.7777 9.00005C10.7777 8.01982 9.98023 7.22223 8.99999 7.22223ZM8.99999 10.4991C8.17342 10.4991 7.50088 9.82663 7.50088 9.00005C7.50088 8.17348 8.17342 7.50094 8.99999 7.50094C9.82647 7.50094 10.499 8.17339 10.499 9.00005C10.499 9.82653 9.82647 10.4991 8.99999 10.4991Z" fill="#8E6B0B" stroke="#8E6B0B" stroke-width="0.6"/>
</svg>
