<svg width="75" height="68" viewBox="0 0 75 68" fill="none" xmlns="http://www.w3.org/2000/svg">
<path fill-rule="evenodd" clip-rule="evenodd" d="M0.000195206 43.6086L17.6682 25.5006C18.3598 24.7916 19.3085 24.3915 20.2989 24.3915H54.7013C55.6917 24.3915 56.6403 24.7915 57.332 25.5006L75 43.6086V62.1151C75 65.3652 72.3663 68 69.1178 68H5.88224C2.6336 68 0 65.3651 0 62.1151L0.000195206 43.6086ZM5.51476 42.1304L19.8527 27.3483H55.1467L69.4846 42.1304H51.1018V45.1183C51.1018 48.7749 48.1389 51.7391 44.4844 51.7391H30.5137C26.8591 51.7391 23.8963 48.7749 23.8963 45.1183V42.1304H5.51476ZM2.92989 45.1378H21.094C21.094 50.2529 25.239 54.3999 30.3519 54.3999H44.6488C49.7617 54.3999 53.9068 50.253 53.9068 45.1378H72.0709V61.5515C72.0709 63.4941 70.497 65.0688 68.5553 65.0688H6.44572C4.50402 65.0688 2.93009 63.4941 2.93009 61.5515L2.92989 45.1378ZM38.971 16.9999C38.971 17.8162 38.3126 18.478 37.5004 18.478C36.6882 18.478 36.0298 17.8162 36.0298 16.9999V1.47812C36.0298 0.661776 36.6882 0 37.5004 0C38.3126 0 38.971 0.661766 38.971 1.47812V16.9999ZM48.4803 18.3322C48.2697 19.1207 47.4637 19.589 46.679 19.3775C45.8947 19.1661 45.4289 18.3555 45.6392 17.567L49.6359 2.57383C49.8461 1.78536 50.6525 1.3175 51.4368 1.52853C52.2214 1.73997 52.6869 2.55058 52.4766 3.33903L48.4803 18.3322ZM29.6824 17.567C29.8926 18.3555 29.4268 19.1661 28.6426 19.3775C27.8579 19.589 27.0514 19.1207 26.8413 18.3322L22.845 3.33903C22.6348 2.55055 23.1002 1.73996 23.8848 1.52853C24.6691 1.31748 25.4756 1.78538 25.6857 2.57383L29.6824 17.567Z" fill="#BAB8B2"/>
</svg>
