<svg width="57" height="64" viewBox="0 0 57 64" fill="none" xmlns="http://www.w3.org/2000/svg">
<path d="M56.3196 19.4655C56.4219 19.5721 56.4967 19.6878 56.5532 19.8166L56.5658 19.8508C56.6311 20.0275 56.6575 20.1579 56.6482 20.2866L56.6473 20.2993V20.312V62.4671C56.6473 63.1306 56.1286 63.65 55.5264 63.65H1.47091C0.868695 63.65 0.35 63.1306 0.35 62.4671V1.53294C0.35 0.869357 0.868694 0.35 1.47091 0.35H37.509C37.6448 0.35 37.7885 0.382826 37.9285 0.443576L37.9284 0.443701L37.9375 0.44734C38.0723 0.501397 38.1938 0.590998 38.3005 0.702213L38.3006 0.702318L56.3196 19.4655ZM39.247 5.00012L38.6445 4.37216V5.24245V18.794V19.144H38.9945H51.9976H52.8185L52.2502 18.5517L39.247 5.00012ZM54.0714 61.2988H54.4214L54.4214 60.9488L54.4227 21.8592L54.4227 21.5092H54.0727H37.5249C36.9227 21.5092 36.404 20.9899 36.404 20.3263V3.08056V2.73056H36.054H2.95774H2.60774V3.08056V60.9488V61.2988H2.95774H54.0714Z" fill="#E1BB33" stroke="#FBF7E6" stroke-width="0.7"/>
<path d="M26.5217 30.7141L22.3225 25.5725V30.7141H21.3215V23.7122H22.0246L26.2238 28.8538V23.7122H27.2248V30.7141H26.5217ZM29.2609 30.1135C28.7987 29.648 28.5676 29.0653 28.5676 28.3655C28.5676 27.6656 28.7987 27.0829 29.2609 26.6174C29.7232 26.1487 30.3026 25.9143 30.9992 25.9143C31.6958 25.9143 32.2736 26.1487 32.7326 26.6174C33.1949 27.0829 33.426 27.6656 33.426 28.3655C33.426 29.0653 33.1949 29.648 32.7326 30.1135C32.2736 30.579 31.6958 30.8118 30.9992 30.8118C30.3026 30.8118 29.7232 30.579 29.2609 30.1135ZM29.9348 27.262C29.6581 27.5614 29.5197 27.9293 29.5197 28.3655C29.5197 28.8017 29.6581 29.1695 29.9348 29.469C30.2147 29.7652 30.5695 29.9133 30.9992 29.9133C31.4289 29.9133 31.7821 29.7652 32.0588 29.469C32.3387 29.1695 32.4787 28.8017 32.4787 28.3655C32.4787 27.9293 32.3387 27.5614 32.0588 27.262C31.7821 26.9625 31.4289 26.8127 30.9992 26.8127C30.5695 26.8127 30.2147 26.9625 29.9348 27.262ZM12.2687 42.304V45.1165H11.3166V38.012H12.2346V38.4465C12.6447 38.0917 13.1363 37.9143 13.7092 37.9143C14.1389 37.9143 14.5214 38.0136 14.8566 38.2122C15.2212 38.427 15.5142 38.7249 15.7355 39.1057C15.9569 39.4866 16.0676 39.9065 16.0676 40.3655C16.0676 40.8245 15.9585 41.2428 15.7404 41.6204C15.5223 41.9947 15.231 42.2893 14.8664 42.5042C14.5181 42.7092 14.1242 42.8118 13.6848 42.8118C13.1281 42.8118 12.6561 42.6425 12.2687 42.304ZM12.2687 39.4817V41.2444C12.4283 41.456 12.6219 41.6204 12.8498 41.7375C13.0777 41.8547 13.3137 41.9133 13.5578 41.9133C14.0038 41.9133 14.3749 41.762 14.6711 41.4592C14.9673 41.1565 15.1154 40.7919 15.1154 40.3655C15.1154 39.9423 14.9738 39.5777 14.6906 39.2717C14.4107 38.9657 14.0493 38.8127 13.6066 38.8127C13.3332 38.8127 13.0793 38.8746 12.8449 38.9983C12.6138 39.1187 12.4217 39.2799 12.2687 39.4817ZM20.0715 37.9436L19.9641 38.8518C19.8632 38.8258 19.7395 38.8127 19.593 38.8127C19.3521 38.8127 19.1128 38.8876 18.8752 39.0374C18.6376 39.1871 18.4536 39.3759 18.3234 39.6038V42.7141H17.3713V38.012H18.2893V38.554C18.4162 38.3749 18.6018 38.2236 18.8459 38.0999C19.0933 37.9762 19.3781 37.9143 19.7004 37.9143C19.8339 37.9143 19.9576 37.9241 20.0715 37.9436ZM25.1545 40.5657H21.5363C21.5624 40.9628 21.7202 41.2981 22.01 41.5715C22.2997 41.845 22.648 41.9817 23.0549 41.9817C23.3674 41.9817 23.6262 41.9231 23.8312 41.8059C24.0396 41.6887 24.23 41.5341 24.4025 41.342L25.0227 41.9329C24.8241 42.1835 24.5555 42.3935 24.217 42.5627C23.8817 42.7288 23.4911 42.8118 23.0451 42.8118C22.5926 42.8118 22.1809 42.7076 21.8098 42.4993C21.4387 42.2877 21.1457 41.9947 20.9309 41.6204C20.7193 41.246 20.6135 40.8277 20.6135 40.3655C20.6135 39.6591 20.8283 39.0748 21.258 38.6125C21.6909 38.1471 22.2395 37.9143 22.9035 37.9143C23.5546 37.9143 24.0933 38.1487 24.5197 38.6174C24.9494 39.0829 25.1643 39.6656 25.1643 40.3655C25.1643 40.4403 25.161 40.5071 25.1545 40.5657ZM22.9328 38.7444C22.6268 38.7444 22.3501 38.8388 22.1027 39.0276C21.8586 39.2164 21.6958 39.4622 21.6145 39.7649H24.173C24.1014 39.4687 23.9468 39.2245 23.7092 39.0325C23.4748 38.8404 23.216 38.7444 22.9328 38.7444ZM27.7033 42.7141L25.6623 38.012H26.6437L28.0354 41.2151L29.427 38.012H30.4035L28.3625 42.7141H27.7033ZM31.3557 42.7141V38.012H32.3078V42.7141H31.3557ZM31.3801 36.7864C31.2629 36.6659 31.2043 36.5178 31.2043 36.342C31.2043 36.1663 31.2629 36.0181 31.3801 35.8977C31.5005 35.774 31.6486 35.7122 31.8244 35.7122C32.0002 35.7122 32.1483 35.774 32.2687 35.8977C32.3924 36.0181 32.4543 36.1663 32.4543 36.342C32.4543 36.5178 32.3924 36.6659 32.2687 36.7864C32.1483 36.9036 32.0002 36.9622 31.8244 36.9622C31.6486 36.9622 31.5005 36.9036 31.3801 36.7864ZM38.1428 40.5657H34.5246C34.5507 40.9628 34.7085 41.2981 34.9982 41.5715C35.288 41.845 35.6363 41.9817 36.0432 41.9817C36.3557 41.9817 36.6145 41.9231 36.8195 41.8059C37.0279 41.6887 37.2183 41.5341 37.3908 41.342L38.0109 41.9329C37.8124 42.1835 37.5438 42.3935 37.2053 42.5627C36.87 42.7288 36.4794 42.8118 36.0334 42.8118C35.5809 42.8118 35.1691 42.7076 34.798 42.4993C34.427 42.2877 34.134 41.9947 33.9191 41.6204C33.7076 41.246 33.6018 40.8277 33.6018 40.3655C33.6018 39.6591 33.8166 39.0748 34.2463 38.6125C34.6792 38.1471 35.2277 37.9143 35.8918 37.9143C36.5428 37.9143 37.0816 38.1487 37.508 38.6174C37.9377 39.0829 38.1525 39.6656 38.1525 40.3655C38.1525 40.4403 38.1493 40.5071 38.1428 40.5657ZM35.9211 38.7444C35.6151 38.7444 35.3384 38.8388 35.091 39.0276C34.8469 39.2164 34.6841 39.4622 34.6027 39.7649H37.1613C37.0897 39.4687 36.9351 39.2245 36.6975 39.0325C36.4631 38.8404 36.2043 38.7444 35.9211 38.7444ZM42.215 38.012H42.8742L44.1633 41.2249L45.4523 38.012H46.4338L44.5246 42.7141H43.8605L42.5422 39.4133L41.2238 42.7141H40.5646L38.6506 38.012H39.632L40.9211 41.2249L42.215 38.012Z" fill="#E1BB33"/>
<path d="M26.5217 30.7141L25.9795 31.1569L26.1896 31.4141H26.5217V30.7141ZM22.3225 25.5725L22.8646 25.1297L21.6225 23.6088V25.5725H22.3225ZM22.3225 30.7141V31.4141H23.0225V30.7141H22.3225ZM21.3215 30.7141H20.6215V31.4141H21.3215V30.7141ZM21.3215 23.7122V23.0122H20.6215V23.7122H21.3215ZM22.0246 23.7122L22.5668 23.2694L22.3567 23.0122H22.0246V23.7122ZM26.2238 28.8538L25.6817 29.2965L26.9238 30.8175V28.8538H26.2238ZM26.2238 23.7122V23.0122H25.5238V23.7122H26.2238ZM27.2248 23.7122H27.9248V23.0122H27.2248V23.7122ZM27.2248 30.7141V31.4141H27.9248V30.7141H27.2248ZM27.0638 30.2713L22.8646 25.1297L21.7803 26.0153L25.9795 31.1569L27.0638 30.2713ZM21.6225 25.5725V30.7141H23.0225V25.5725H21.6225ZM22.3225 30.0141H21.3215V31.4141H22.3225V30.0141ZM22.0215 30.7141V23.7122H20.6215V30.7141H22.0215ZM21.3215 24.4122H22.0246V23.0122H21.3215V24.4122ZM21.4824 24.1549L25.6817 29.2965L26.766 28.411L22.5668 23.2694L21.4824 24.1549ZM26.9238 28.8538V23.7122H25.5238V28.8538H26.9238ZM26.2238 24.4122H27.2248V23.0122H26.2238V24.4122ZM26.5248 23.7122V30.7141H27.9248V23.7122H26.5248ZM27.2248 30.0141H26.5217V31.4141H27.2248V30.0141ZM29.2609 30.1135L28.7642 30.6068L29.2609 30.1135ZM29.2609 26.6174L29.7576 27.1107L29.7594 27.1089L29.2609 26.6174ZM32.7326 26.6174L32.2324 27.1072L32.2359 27.1107L32.7326 26.6174ZM32.7326 30.1135L32.2359 29.6203L32.2342 29.622L32.7326 30.1135ZM29.9348 27.262L29.4234 26.7839L29.4206 26.7869L29.9348 27.262ZM29.9348 29.469L29.4206 29.9441L29.426 29.9498L29.9348 29.469ZM32.0588 29.469L31.5474 28.991L31.5472 28.9912L32.0588 29.469ZM32.0588 27.262L31.5446 27.737L31.5474 27.74L32.0588 27.262ZM29.7576 29.6203C29.4349 29.2953 29.2676 28.8942 29.2676 28.3655H27.8676C27.8676 29.2365 28.1624 30.0007 28.7642 30.6068L29.7576 29.6203ZM29.2676 28.3655C29.2676 27.8367 29.4349 27.4356 29.7576 27.1107L28.7642 26.1242C28.1624 26.7302 27.8676 27.4945 27.8676 28.3655H29.2676ZM29.7594 27.1089C30.0818 26.782 30.4778 26.6143 30.9992 26.6143V25.2143C30.1274 25.2143 29.3646 25.5154 28.7625 26.1259L29.7594 27.1089ZM30.9992 26.6143C31.5206 26.6143 31.9139 26.7819 32.2325 27.1072L33.2328 26.1277C32.6333 25.5155 31.8711 25.2143 30.9992 25.2143V26.6143ZM32.2359 27.1107C32.5586 27.4356 32.726 27.8367 32.726 28.3655H34.126C34.126 27.4945 33.8311 26.7302 33.2293 26.1242L32.2359 27.1107ZM32.726 28.3655C32.726 28.8942 32.5586 29.2953 32.2359 29.6203L33.2293 30.6068C33.8311 30.0007 34.126 29.2365 34.126 28.3655H32.726ZM32.2342 29.622C31.916 29.9447 31.5221 30.1118 30.9992 30.1118V31.5118C31.8695 31.5118 32.6312 31.2133 33.2311 30.605L32.2342 29.622ZM30.9992 30.1118C30.4763 30.1118 30.0797 29.9446 29.7576 29.6203L28.7642 30.6068C29.3666 31.2134 30.1289 31.5118 30.9992 31.5118V30.1118ZM29.4206 26.7869C29.0156 27.2253 28.8197 27.7666 28.8197 28.3655H30.2197C30.2197 28.0919 30.3005 27.8976 30.4489 27.737L29.4206 26.7869ZM28.8197 28.3655C28.8197 28.9643 29.0156 29.5057 29.4206 29.944L30.4489 28.994C30.3005 28.8334 30.2197 28.639 30.2197 28.3655H28.8197ZM29.426 29.9498C29.846 30.3942 30.3887 30.6133 30.9992 30.6133V29.2133C30.7503 29.2133 30.5834 29.1362 30.4435 28.9882L29.426 29.9498ZM30.9992 30.6133C31.6098 30.6133 32.1526 30.394 32.5703 29.9468L31.5472 28.9912C31.4116 29.1364 31.248 29.2133 30.9992 29.2133V30.6133ZM32.5702 29.947C32.9796 29.509 33.1787 28.9667 33.1787 28.3655H31.7787C31.7787 28.6367 31.6979 28.83 31.5474 28.991L32.5702 29.947ZM33.1787 28.3655C33.1787 27.7643 32.9796 27.2219 32.5702 26.7839L31.5474 27.74C31.6979 27.901 31.7787 28.0943 31.7787 28.3655H33.1787ZM32.5729 26.7869C32.1559 26.3356 31.6123 26.1127 30.9992 26.1127V27.5127C31.2455 27.5127 31.4083 27.5894 31.5446 27.737L32.5729 26.7869ZM30.9992 26.1127C30.3862 26.1127 29.8427 26.3354 29.4234 26.7839L30.4461 27.74C30.5867 27.5896 30.7529 27.5127 30.9992 27.5127V26.1127ZM12.2687 42.304L12.7294 41.7769L11.5687 40.7625V42.304H12.2687ZM12.2687 45.1165V45.8165H12.9687V45.1165H12.2687ZM11.3166 45.1165H10.6166V45.8165H11.3166V45.1165ZM11.3166 38.012V37.312H10.6166V38.012H11.3166ZM12.2346 38.012H12.9346V37.312H12.2346V38.012ZM12.2346 38.4465H11.5346V39.9777L12.6925 38.9759L12.2346 38.4465ZM14.8566 38.2122L14.4999 38.8145L14.5013 38.8152L14.8566 38.2122ZM15.7404 41.6204L16.3453 41.9727L16.3466 41.9705L15.7404 41.6204ZM14.8664 42.5042L15.2216 43.1074L15.2218 43.1072L14.8664 42.5042ZM12.2687 39.4817L11.7109 39.0588L11.5687 39.2464V39.4817H12.2687ZM12.2687 41.2444H11.5687V41.4787L11.7098 41.6658L12.2687 41.2444ZM12.8498 41.7375L13.1699 41.115L12.8498 41.7375ZM14.6906 39.2717L14.1742 39.7442L14.1769 39.7472L14.6906 39.2717ZM12.8449 38.9983L13.1684 39.6191L13.1717 39.6174L12.8449 38.9983ZM11.5687 42.304V45.1165H12.9687V42.304H11.5687ZM12.2687 44.4165H11.3166V45.8165H12.2687V44.4165ZM12.0166 45.1165V38.012H10.6166V45.1165H12.0166ZM11.3166 38.712H12.2346V37.312H11.3166V38.712ZM11.5346 38.012V38.4465H12.9346V38.012H11.5346ZM12.6925 38.9759C12.9679 38.7377 13.2941 38.6143 13.7092 38.6143V37.2143C12.9784 37.2143 12.3215 37.4457 11.7766 37.9171L12.6925 38.9759ZM13.7092 38.6143C14.0266 38.6143 14.2835 38.6863 14.4999 38.8145L15.2133 37.6099C14.7592 37.3409 14.2511 37.2143 13.7092 37.2143V38.6143ZM14.5013 38.8152C14.7581 38.9666 14.9668 39.176 15.1303 39.4575L16.3408 38.754C16.0616 38.2737 15.6844 37.8874 15.212 37.6091L14.5013 38.8152ZM15.1303 39.4575C15.2869 39.7269 15.3676 40.0246 15.3676 40.3655H16.7676C16.7676 39.7883 16.6269 39.2462 16.3408 38.754L15.1303 39.4575ZM15.3676 40.3655C15.3676 40.7083 15.2876 41.0048 15.1343 41.2703L16.3466 41.9705C16.6294 41.4808 16.7676 40.9407 16.7676 40.3655H15.3676ZM15.1356 41.268C14.9763 41.5414 14.7698 41.7486 14.511 41.9011L15.2218 43.1072C15.6921 42.8301 16.0683 42.4481 16.3453 41.9727L15.1356 41.268ZM14.5112 41.9009C14.2799 42.0372 14.0106 42.1118 13.6848 42.1118V43.5118C14.2379 43.5118 14.7563 43.3813 15.2216 43.1074L14.5112 41.9009ZM13.6848 42.1118C13.2825 42.1118 12.9783 41.9944 12.7294 41.7769L11.8081 42.831C12.3339 43.2906 12.9737 43.5118 13.6848 43.5118V42.1118ZM11.5687 39.4817V41.2444H12.9687V39.4817H11.5687ZM11.7098 41.6658C11.9305 41.9586 12.2048 42.193 12.5297 42.3601L13.1699 41.115C13.0391 41.0477 12.926 40.9534 12.8277 40.823L11.7098 41.6658ZM12.5297 42.3601C12.8515 42.5256 13.1968 42.6133 13.5578 42.6133V41.2133C13.4306 41.2133 13.3038 41.1839 13.1699 41.115L12.5297 42.3601ZM13.5578 42.6133C14.1809 42.6133 14.7359 42.3939 15.1714 41.9488L14.1708 40.9697C14.0138 41.1301 13.8266 41.2133 13.5578 41.2133V42.6133ZM15.1714 41.9488C15.5966 41.5143 15.8154 40.9735 15.8154 40.3655H14.4154C14.4154 40.6103 14.338 40.7987 14.1708 40.9697L15.1714 41.9488ZM15.8154 40.3655C15.8154 39.7689 15.6093 39.2338 15.2044 38.7963L14.1769 39.7472C14.3384 39.9217 14.4154 40.1157 14.4154 40.3655H15.8154ZM15.2071 38.7992C14.7848 38.3377 14.2309 38.1127 13.6066 38.1127V39.5127C13.8678 39.5127 14.0366 39.5938 14.1742 39.7442L15.2071 38.7992ZM13.6066 38.1127C13.2231 38.1127 12.8565 38.2006 12.5182 38.3792L13.1717 39.6174C13.3021 39.5485 13.4433 39.5127 13.6066 39.5127V38.1127ZM12.5214 38.3775C12.2013 38.5444 11.9283 38.7721 11.7109 39.0588L12.8266 39.9046C12.9152 39.7877 13.0263 39.6931 13.1684 39.6191L12.5214 38.3775ZM20.0715 37.9436L20.7666 38.0258L20.8447 37.3659L20.1898 37.2537L20.0715 37.9436ZM19.9641 38.8518L19.7891 39.5296L20.5651 39.7298L20.6592 38.934L19.9641 38.8518ZM18.3234 39.6038L17.7157 39.2565L17.6234 39.4179V39.6038H18.3234ZM18.3234 42.7141V43.4141H19.0234V42.7141H18.3234ZM17.3713 42.7141H16.6713V43.4141H17.3713V42.7141ZM17.3713 38.012V37.312H16.6713V38.012H17.3713ZM18.2893 38.012H18.9893V37.312H18.2893V38.012ZM18.2893 38.554H17.5893V40.7513L18.8603 38.9589L18.2893 38.554ZM18.8459 38.0999L18.5328 37.4737L18.5295 37.4754L18.8459 38.0999ZM19.3763 37.8614L19.2689 38.7696L20.6592 38.934L20.7666 38.0258L19.3763 37.8614ZM20.139 38.174C19.9631 38.1286 19.7766 38.1127 19.593 38.1127V39.5127C19.7023 39.5127 19.7632 39.5229 19.7891 39.5296L20.139 38.174ZM19.593 38.1127C19.1993 38.1127 18.8325 38.2369 18.502 38.4451L19.2484 39.6296C19.3932 39.5384 19.5048 39.5127 19.593 39.5127V38.1127ZM18.502 38.4451C18.1743 38.6516 17.9068 38.922 17.7157 39.2565L18.9312 39.9511C19.0005 39.8298 19.1008 39.7226 19.2484 39.6296L18.502 38.4451ZM17.6234 39.6038V42.7141H19.0234V39.6038H17.6234ZM18.3234 42.0141H17.3713V43.4141H18.3234V42.0141ZM18.0713 42.7141V38.012H16.6713V42.7141H18.0713ZM17.3713 38.712H18.2893V37.312H17.3713V38.712ZM17.5893 38.012V38.554H18.9893V38.012H17.5893ZM18.8603 38.9589C18.9072 38.8927 18.995 38.809 19.1623 38.7243L18.5295 37.4754C18.2085 37.6381 17.9253 37.8571 17.7182 38.1491L18.8603 38.9589ZM19.1589 38.726C19.2943 38.6583 19.4689 38.6143 19.7004 38.6143V37.2143C19.2874 37.2143 18.8923 37.294 18.5328 37.4738L19.1589 38.726ZM19.7004 38.6143C19.8001 38.6143 19.8838 38.6216 19.9532 38.6335L20.1898 37.2537C20.0313 37.2265 19.8676 37.2143 19.7004 37.2143V38.6143ZM25.1545 40.5657V41.2657H25.781L25.8502 40.643L25.1545 40.5657ZM21.5363 40.5657V39.8657H20.7889L20.8378 40.6115L21.5363 40.5657ZM23.8312 41.8059L23.4881 41.1958L23.484 41.1981L23.8312 41.8059ZM24.4025 41.342L24.8854 40.8352L24.3635 40.338L23.8818 40.8743L24.4025 41.342ZM25.0227 41.9329L25.5713 42.3675L25.9681 41.8668L25.5055 41.4261L25.0227 41.9329ZM24.217 42.5627L24.5276 43.1901L24.53 43.1888L24.217 42.5627ZM21.8098 42.4993L21.463 43.1074L21.4671 43.1097L21.8098 42.4993ZM20.9309 41.6204L20.3215 41.9648L20.3237 41.9688L20.9309 41.6204ZM21.258 38.6125L20.7454 38.1358L20.7453 38.136L21.258 38.6125ZM24.5197 38.6174L24.0019 39.0885L24.0054 39.0922L24.5197 38.6174ZM22.1027 39.0276L21.6781 38.4711L21.6745 38.4739L22.1027 39.0276ZM21.6145 39.7649L20.9385 39.5832L20.7014 40.4649H21.6145V39.7649ZM24.173 39.7649V40.4649H25.0624L24.8534 39.6004L24.173 39.7649ZM23.7092 39.0325L23.2655 39.5739L23.2692 39.5769L23.7092 39.0325ZM25.1545 39.8657H21.5363V41.2657H25.1545V39.8657ZM20.8378 40.6115C20.8755 41.1852 21.1113 41.6859 21.5295 42.0806L22.4904 41.0625C22.3291 40.9102 22.2493 40.7404 22.2348 40.5199L20.8378 40.6115ZM21.5295 42.0806C21.9522 42.4795 22.4736 42.6817 23.0549 42.6817V41.2817C22.8224 41.2817 22.6472 41.2104 22.4904 41.0625L21.5295 42.0806ZM23.0549 42.6817C23.4511 42.6817 23.8389 42.6078 24.1785 42.4137L23.484 41.1981C23.4134 41.2384 23.2837 41.2817 23.0549 41.2817V42.6817ZM24.1744 42.416C24.4544 42.2585 24.7038 42.0541 24.9233 41.8098L23.8818 40.8743C23.7562 41.0141 23.6247 41.1189 23.4881 41.1958L24.1744 42.416ZM23.9197 41.8488L24.5398 42.4397L25.5055 41.4261L24.8854 40.8352L23.9197 41.8488ZM24.474 41.4982C24.3496 41.6551 24.1675 41.8049 23.9039 41.9366L24.53 43.1888C24.9435 42.9821 25.2986 42.7119 25.5713 42.3675L24.474 41.4982ZM23.9064 41.9354C23.6845 42.0453 23.4038 42.1118 23.0451 42.1118V43.5118C23.5783 43.5118 24.0789 43.4122 24.5276 43.1901L23.9064 41.9354ZM23.0451 42.1118C22.7048 42.1118 22.4122 42.0347 22.1524 41.8889L21.4671 43.1097C21.9495 43.3805 22.4805 43.5118 23.0451 43.5118V42.1118ZM22.1565 41.8912C21.895 41.7421 21.6914 41.5392 21.538 41.2719L20.3237 41.9688C20.6 42.4502 20.9824 42.8333 21.463 43.1074L22.1565 41.8912ZM21.5403 41.2759C21.3925 41.0145 21.3135 40.7163 21.3135 40.3655H19.9135C19.9135 40.9391 20.0461 41.4775 20.3215 41.9648L21.5403 41.2759ZM21.3135 40.3655C21.3135 39.8131 21.4761 39.4061 21.7707 39.0891L20.7453 38.136C20.1806 38.7435 19.9135 39.5051 19.9135 40.3655H21.3135ZM21.7706 39.0893C22.0646 38.7732 22.4241 38.6143 22.9035 38.6143V37.2143C22.0548 37.2143 21.3173 37.5209 20.7454 38.1358L21.7706 39.0893ZM22.9035 38.6143C23.3636 38.6143 23.7122 38.77 24.0019 39.0885L25.0375 38.1464C24.4744 37.5273 23.7456 37.2143 22.9035 37.2143V38.6143ZM24.0054 39.0922C24.3028 39.4144 24.4643 39.8216 24.4643 40.3655H25.8643C25.8643 39.5096 25.596 38.7514 25.0341 38.1426L24.0054 39.0922ZM24.4643 40.3655C24.4643 40.421 24.4618 40.4612 24.4588 40.4884L25.8502 40.643C25.8602 40.553 25.8643 40.4597 25.8643 40.3655H24.4643ZM22.9328 38.0444C22.4706 38.0444 22.0452 38.1909 21.6781 38.4711L22.5274 39.5841C22.6551 39.4866 22.7831 39.4444 22.9328 39.4444V38.0444ZM21.6745 38.4739C21.3073 38.7578 21.0589 39.1352 20.9385 39.5832L22.2905 39.9466C22.3328 39.7891 22.4099 39.675 22.531 39.5813L21.6745 38.4739ZM21.6145 40.4649H24.173V39.0649H21.6145V40.4649ZM24.8534 39.6004C24.7456 39.1541 24.5062 38.7766 24.1492 38.4881L23.2692 39.5769C23.3874 39.6725 23.4573 39.7832 23.4926 39.9294L24.8534 39.6004ZM24.1529 38.491C23.8028 38.2042 23.3896 38.0444 22.9328 38.0444V39.4444C23.0425 39.4444 23.1468 39.4767 23.2655 39.5739L24.1529 38.491ZM27.7033 42.7141L27.0612 42.9928L27.2441 43.4141H27.7033V42.7141ZM25.6623 38.012V37.312H24.5954L25.0202 38.2907L25.6623 38.012ZM26.6437 38.012L27.2858 37.733L27.1028 37.312H26.6437V38.012ZM28.0354 41.2151L27.3933 41.494L28.0354 42.9718L28.6774 41.494L28.0354 41.2151ZM29.427 38.012V37.312H28.9679L28.7849 37.733L29.427 38.012ZM30.4035 38.012L31.0456 38.2907L31.4705 37.312H30.4035V38.012ZM28.3625 42.7141V43.4141H28.8218L29.0046 42.9928L28.3625 42.7141ZM28.3454 42.4354L26.3044 37.7332L25.0202 38.2907L27.0612 42.9928L28.3454 42.4354ZM25.6623 38.712H26.6437V37.312H25.6623V38.712ZM26.0017 38.2909L27.3933 41.494L28.6774 40.9362L27.2858 37.733L26.0017 38.2909ZM28.6774 41.494L30.069 38.2909L28.7849 37.733L27.3933 40.9362L28.6774 41.494ZM29.427 38.712H30.4035V37.312H29.427V38.712ZM29.7614 37.7332L27.7204 42.4354L29.0046 42.9928L31.0456 38.2907L29.7614 37.7332ZM28.3625 42.0141H27.7033V43.4141H28.3625V42.0141ZM31.3557 42.7141H30.6557V43.4141H31.3557V42.7141ZM31.3557 38.012V37.312H30.6557V38.012H31.3557ZM32.3078 38.012H33.0078V37.312H32.3078V38.012ZM32.3078 42.7141V43.4141H33.0078V42.7141H32.3078ZM31.3801 36.7864L30.8784 37.2745L30.8851 37.2814L30.8919 37.2881L31.3801 36.7864ZM31.3801 35.8977L30.8785 35.4094L30.8784 35.4096L31.3801 35.8977ZM32.2687 35.8977L31.7672 36.386L31.7737 36.3927L31.7804 36.3992L32.2687 35.8977ZM32.2687 36.7864L32.7569 37.2881L32.7571 37.2879L32.2687 36.7864ZM32.0557 42.7141V38.012H30.6557V42.7141H32.0557ZM31.3557 38.712H32.3078V37.312H31.3557V38.712ZM31.6078 38.012V42.7141H33.0078V38.012H31.6078ZM32.3078 42.0141H31.3557V43.4141H32.3078V42.0141ZM31.8818 36.2982C31.8823 36.2988 31.8851 36.3018 31.8889 36.3075C31.8926 36.3133 31.8962 36.3201 31.8992 36.3275C31.9055 36.3435 31.9043 36.3509 31.9043 36.342H30.5043C30.5043 36.6908 30.6277 37.0169 30.8784 37.2745L31.8818 36.2982ZM31.9043 36.342C31.9043 36.3332 31.9055 36.3406 31.8992 36.3566C31.8962 36.364 31.8926 36.3708 31.8889 36.3766C31.8851 36.3823 31.8823 36.3853 31.8818 36.3859L30.8784 35.4096C30.6277 35.6672 30.5043 35.9932 30.5043 36.342H31.9043ZM31.8816 36.386C31.8819 36.3857 31.8793 36.3884 31.8735 36.3924C31.8676 36.3965 31.86 36.4008 31.8512 36.4045C31.832 36.4125 31.8203 36.4122 31.8244 36.4122V35.0122C31.4636 35.0122 31.1334 35.1476 30.8785 35.4094L31.8816 36.386ZM31.8244 36.4122C31.8286 36.4122 31.8168 36.4125 31.7976 36.4045C31.7888 36.4008 31.7812 36.3965 31.7753 36.3924C31.7695 36.3884 31.7669 36.3857 31.7672 36.386L32.7703 35.4094C32.5154 35.1476 32.1852 35.0122 31.8244 35.0122V36.4122ZM31.7804 36.3992C31.7807 36.3995 31.778 36.3969 31.774 36.3911C31.7699 36.3852 31.7656 36.3776 31.762 36.3689C31.7539 36.3496 31.7543 36.3379 31.7543 36.342H33.1543C33.1543 35.9812 33.0189 35.6511 32.7571 35.3962L31.7804 36.3992ZM31.7543 36.342C31.7543 36.3462 31.7539 36.3344 31.762 36.3152C31.7656 36.3065 31.7699 36.2989 31.774 36.293C31.778 36.2871 31.7807 36.2845 31.7804 36.2848L32.7571 37.2879C33.0189 37.033 33.1543 36.7028 33.1543 36.342H31.7543ZM31.7806 36.2847C31.7811 36.2841 31.7842 36.2813 31.7899 36.2776C31.7956 36.2738 31.8025 36.2702 31.8098 36.2673C31.8258 36.261 31.8333 36.2622 31.8244 36.2622V37.6622C32.1732 37.6622 32.4992 37.5388 32.7569 37.2881L31.7806 36.2847ZM31.8244 36.2622C31.8155 36.2622 31.823 36.261 31.839 36.2673C31.8464 36.2702 31.8532 36.2738 31.859 36.2776C31.8646 36.2813 31.8677 36.2841 31.8682 36.2847L30.8919 37.2881C31.1496 37.5388 31.4756 37.6622 31.8244 37.6622V36.2622ZM38.1428 40.5657V41.2657H38.7693L38.8385 40.643L38.1428 40.5657ZM34.5246 40.5657V39.8657H33.7772L33.8261 40.6115L34.5246 40.5657ZM36.8195 41.8059L36.4763 41.1958L36.4722 41.1981L36.8195 41.8059ZM37.3908 41.342L37.8737 40.8352L37.3518 40.338L36.8701 40.8743L37.3908 41.342ZM38.0109 41.9329L38.5596 42.3675L38.9563 41.8668L38.4938 41.4261L38.0109 41.9329ZM37.2053 42.5627L37.5159 43.1901L37.5183 43.1888L37.2053 42.5627ZM34.798 42.4993L34.4513 43.1074L34.4554 43.1097L34.798 42.4993ZM33.9191 41.6204L33.3097 41.9648L33.312 41.9688L33.9191 41.6204ZM34.2463 38.6125L33.7337 38.1358L33.7336 38.136L34.2463 38.6125ZM37.508 38.6174L36.9902 39.0885L36.9936 39.0922L37.508 38.6174ZM35.091 39.0276L34.6663 38.4711L34.6628 38.4739L35.091 39.0276ZM34.6027 39.7649L33.9267 39.5832L33.6897 40.4649H34.6027V39.7649ZM37.1613 39.7649V40.4649H38.0507L37.8417 39.6004L37.1613 39.7649ZM36.6975 39.0325L36.2538 39.5739L36.2575 39.5769L36.6975 39.0325ZM38.1428 39.8657H34.5246V41.2657H38.1428V39.8657ZM33.8261 40.6115C33.8637 41.1852 34.0996 41.6859 34.5178 42.0806L35.4787 41.0625C35.3174 40.9102 35.2376 40.7404 35.2231 40.5199L33.8261 40.6115ZM34.5178 42.0806C34.9405 42.4795 35.4619 42.6817 36.0432 42.6817V41.2817C35.8107 41.2817 35.6354 41.2104 35.4787 41.0625L34.5178 42.0806ZM36.0432 42.6817C36.4394 42.6817 36.8272 42.6078 37.1668 42.4137L36.4722 41.1981C36.4017 41.2384 36.272 41.2817 36.0432 41.2817V42.6817ZM37.1627 42.416C37.4427 42.2585 37.6921 42.0541 37.9116 41.8098L36.8701 40.8743C36.7445 41.0141 36.613 41.1189 36.4763 41.1958L37.1627 42.416ZM36.908 41.8488L37.5281 42.4397L38.4938 41.4261L37.8737 40.8352L36.908 41.8488ZM37.4622 41.4982C37.3379 41.6551 37.1558 41.8049 36.8922 41.9366L37.5183 43.1888C37.9318 42.9821 38.2868 42.7119 38.5596 42.3675L37.4622 41.4982ZM36.8947 41.9354C36.6728 42.0453 36.3921 42.1118 36.0334 42.1118V43.5118C36.5666 43.5118 37.0672 43.4122 37.5159 43.1901L36.8947 41.9354ZM36.0334 42.1118C35.6931 42.1118 35.4005 42.0347 35.1407 41.8889L34.4554 43.1097C34.9378 43.3805 35.4688 43.5118 36.0334 43.5118V42.1118ZM35.1448 41.8912C34.8832 41.7421 34.6797 41.5392 34.5263 41.2719L33.312 41.9688C33.5883 42.4502 33.9707 42.8333 34.4513 43.1074L35.1448 41.8912ZM34.5285 41.2759C34.3808 41.0145 34.3018 40.7163 34.3018 40.3655H32.9018C32.9018 40.9391 33.0343 41.4775 33.3097 41.9648L34.5285 41.2759ZM34.3018 40.3655C34.3018 39.8131 34.4644 39.4061 34.759 39.0891L33.7336 38.136C33.1688 38.7435 32.9018 39.5051 32.9018 40.3655H34.3018ZM34.7589 39.0893C35.0529 38.7732 35.4124 38.6143 35.8918 38.6143V37.2143C35.0431 37.2143 34.3056 37.5209 33.7337 38.1358L34.7589 39.0893ZM35.8918 38.6143C36.3518 38.6143 36.7005 38.77 36.9902 39.0885L38.0258 38.1464C37.4626 37.5273 36.7338 37.2143 35.8918 37.2143V38.6143ZM36.9936 39.0922C37.2911 39.4144 37.4525 39.8216 37.4525 40.3655H38.8525C38.8525 39.5096 38.5843 38.7514 38.0224 38.1426L36.9936 39.0922ZM37.4525 40.3655C37.4525 40.421 37.4501 40.4612 37.4471 40.4884L38.8385 40.643C38.8485 40.553 38.8525 40.4597 38.8525 40.3655H37.4525ZM35.9211 38.0444C35.4588 38.0444 35.0335 38.1909 34.6663 38.4711L35.5157 39.5841C35.6433 39.4866 35.7714 39.4444 35.9211 39.4444V38.0444ZM34.6628 38.4739C34.2956 38.7578 34.0472 39.1352 33.9267 39.5832L35.2787 39.9466C35.3211 39.7891 35.3982 39.675 35.5192 39.5813L34.6628 38.4739ZM34.6027 40.4649H37.1613V39.0649H34.6027V40.4649ZM37.8417 39.6004C37.7338 39.1541 37.4945 38.7766 37.1375 38.4881L36.2575 39.5769C36.3757 39.6725 36.4456 39.7832 36.4809 39.9294L37.8417 39.6004ZM37.1411 38.491C36.791 38.2042 36.3778 38.0444 35.9211 38.0444V39.4444C36.0308 39.4444 36.1351 39.4767 36.2538 39.5739L37.1411 38.491ZM42.215 38.012V37.312H41.7423L41.5657 37.7505L42.215 38.012ZM42.8742 38.012L43.5239 37.7513L43.3476 37.312H42.8742V38.012ZM44.1633 41.2249L43.5136 41.4855L44.1633 43.1047L44.8129 41.4855L44.1633 41.2249ZM45.4523 38.012V37.312H44.979L44.8027 37.7513L45.4523 38.012ZM46.4338 38.012L47.0824 38.2753L47.4735 37.312H46.4338V38.012ZM44.5246 42.7141V43.4141H44.9959L45.1732 42.9774L44.5246 42.7141ZM43.8605 42.7141L43.2105 42.9738L43.3864 43.4141H43.8605V42.7141ZM42.5422 39.4133L43.1923 39.1537L42.5422 37.5261L41.8921 39.1537L42.5422 39.4133ZM41.2238 42.7141V43.4141H41.698L41.8739 42.9738L41.2238 42.7141ZM40.5646 42.7141L39.9163 42.978L40.0938 43.4141H40.5646V42.7141ZM38.6506 38.012V37.312H37.6099L38.0022 38.2759L38.6506 38.012ZM39.632 38.012L40.2817 37.7513L40.1054 37.312H39.632V38.012ZM40.9211 41.2249L40.2714 41.4855L40.9199 43.1017L41.5704 41.4864L40.9211 41.2249ZM42.215 38.712H42.8742V37.312H42.215V38.712ZM42.2246 38.2726L43.5136 41.4855L44.8129 40.9642L43.5239 37.7513L42.2246 38.2726ZM44.8129 41.4855L46.102 38.2726L44.8027 37.7513L43.5136 40.9642L44.8129 41.4855ZM45.4523 38.712H46.4338V37.312H45.4523V38.712ZM45.7852 37.7486L43.876 42.4508L45.1732 42.9774L47.0824 38.2753L45.7852 37.7486ZM44.5246 42.0141H43.8605V43.4141H44.5246V42.0141ZM44.5106 42.4545L43.1923 39.1537L41.8921 39.673L43.2105 42.9738L44.5106 42.4545ZM41.8921 39.1537L40.5738 42.4545L41.8739 42.9738L43.1923 39.673L41.8921 39.1537ZM41.2238 42.0141H40.5646V43.4141H41.2238V42.0141ZM41.213 42.4502L39.2989 37.748L38.0022 38.2759L39.9163 42.978L41.213 42.4502ZM38.6506 38.712H39.632V37.312H38.6506V38.712ZM38.9824 38.2726L40.2714 41.4855L41.5708 40.9642L40.2817 37.7513L38.9824 38.2726ZM41.5704 41.4864L42.8644 38.2735L41.5657 37.7505L40.2718 40.9634L41.5704 41.4864Z" fill="#FBF7E6"/>
</svg>
