<svg width="21" height="24" viewBox="0 0 21 24" fill="none" xmlns="http://www.w3.org/2000/svg">
<path d="M20.9616 7.39832C20.9345 7.32929 20.8966 7.26616 20.8424 7.20867L14.2038 0.172458C14.1549 0.120618 14.0954 0.0746797 14.025 0.045937C13.9599 0.0171943 13.8895 0 13.8191 0H0.541914C0.243861 0 0 0.258684 0 0.574854V23.4251C0 23.7413 0.243861 24 0.541914 24H20.4571C20.7551 24 20.999 23.7413 20.999 23.4251V7.61698C21.0043 7.5423 20.9881 7.47327 20.961 7.39859L20.9616 7.39832ZM14.3664 1.96592L19.157 7.04776H14.3664V1.96592ZM19.921 22.8558H1.08969V1.15521H13.2831V7.62235C13.2831 7.93852 13.5269 8.19721 13.825 8.19721H19.9215L19.921 22.8558Z" fill="#040404"/>
</svg>
