<svg version="1.2" xmlns="http://www.w3.org/2000/svg" viewBox="0 0 57 64" width="57" height="64"><style>.a{fill:#e1bb33;stroke:#fbf7e6;stroke-width:.7}.b{fill:#e1bb33}</style><path fill-rule="evenodd" class="a" d="m56.3 19.5q0.2 0.1 0.3 0.3v0.1q0.1 0.2 0 0.4v42.2c0 0.6-0.5 1.1-1.1 1.1h-54c-0.6 0-1.2-0.5-1.2-1.1v-61c0-0.6 0.6-1.2 1.2-1.2h36q0.2 0.1 0.4 0.1 0.2 0.1 0.4 0.3zm-1.9 41.8v-0.3-39.1-0.4h-16.9c-0.6 0-1.1-0.5-1.1-1.1v-17.6h-33.8v58.5zm-15.2-56.3l-0.6-0.6v14.8h14.2l-0.6-0.6z"/><path fill-rule="evenodd" class="b" d="m26.5 30.7l-4.2-5.1v5.1h-1v-7h0.7l4.2 5.2v-5.2h1v7zm2.8-0.6q-0.7-0.7-0.7-1.7 0-1.1 0.7-1.8 0.7-0.7 1.7-0.7 1 0 1.7 0.7 0.7 0.7 0.7 1.8 0 1-0.7 1.7-0.7 0.7-1.7 0.7-1 0-1.7-0.7zm0.6-2.8q-0.4 0.4-0.4 1.1 0 0.6 0.4 1.1 0.5 0.4 1.1 0.4 0.6 0 1.1-0.4 0.4-0.5 0.4-1.1 0-0.7-0.4-1.1-0.5-0.5-1.1-0.5-0.6 0-1.1 0.5zm-17.6 15v2.8h-1v-7.1h0.9v0.4q0.7-0.5 1.5-0.5 0.7 0 1.2 0.3 0.5 0.3 0.8 0.9 0.4 0.6 0.4 1.3 0 0.7-0.4 1.2-0.3 0.6-0.8 0.9-0.6 0.3-1.2 0.3-0.8 0-1.4-0.5zm0-2.8v1.7q0.2 0.4 0.6 0.5 0.3 0.2 0.7 0.2 0.6 0 1.1-0.4 0.4-0.5 0.4-1.1 0-0.7-0.4-1.1-0.4-0.5-1.1-0.5-0.4 0-0.8 0.2-0.3 0.2-0.5 0.5zm7.8-1.6l-0.1 1q-0.2-0.1-0.4-0.1-0.4 0-0.7 0.2-0.4 0.3-0.6 0.6v3.1h-0.9v-4.7h0.9v0.6q0.2-0.3 0.5-0.5 0.4-0.2 0.9-0.2 0.2 0 0.4 0zm5.1 2.7h-3.7q0.1 0.6 0.5 1 0.4 0.4 1.1 0.4 0.4 0 0.7-0.2 0.3-0.2 0.6-0.5l0.6 0.6q-0.3 0.4-0.8 0.7-0.5 0.2-1.2 0.2-0.6 0-1.2-0.3-0.5-0.3-0.9-0.9-0.3-0.5-0.3-1.2 0-1.1 0.7-1.8 0.6-0.7 1.6-0.7 1 0 1.6 0.7 0.7 0.7 0.7 1.8 0 0.1 0 0.2zm-2.3-1.9q-0.4 0-0.8 0.3-0.4 0.3-0.5 0.8h2.6q-0.1-0.5-0.5-0.8-0.3-0.3-0.8-0.3zm4.8 4l-2-4.7h0.9l1.4 3.2 1.4-3.2h1l-2 4.7zm3.6 0v-4.7h1v4.7zm0-5.9q-0.2-0.2-0.2-0.5 0-0.2 0.2-0.4 0.2-0.2 0.4-0.2 0.3 0 0.5 0.2 0.2 0.2 0.2 0.4 0 0.3-0.2 0.5-0.2 0.2-0.5 0.2-0.2 0-0.4-0.2zm6.8 3.8h-3.7q0.1 0.6 0.5 1 0.4 0.4 1.1 0.4 0.4 0 0.7-0.2 0.3-0.2 0.6-0.5l0.6 0.6q-0.3 0.4-0.8 0.7-0.5 0.2-1.2 0.2-0.6 0-1.2-0.3-0.5-0.3-0.9-0.9-0.3-0.5-0.3-1.2 0-1.1 0.7-1.8 0.6-0.7 1.6-0.7 1 0 1.6 0.7 0.7 0.7 0.7 1.8 0 0.1 0 0.2zm-2.3-1.9q-0.4 0-0.8 0.3-0.4 0.3-0.5 0.8h2.6q-0.1-0.5-0.5-0.8-0.3-0.3-0.8-0.3zm6.3-0.7h0.7l1.3 3.2 1.3-3.2h0.9l-1.9 4.7h-0.6l-1.3-3.3-1.4 3.3h-0.6l-1.9-4.7h0.9l1.3 3.2z"/><path fill-rule="evenodd" class="b" d="m26.5 31.4h-0.3l-0.2-0.2 0.5-0.5zm-3.9-8.1l4.2 5.1-1.1 0.9-4.2-5.1zm0.4 7.4v0.7h-0.7v-0.7zm-1.7 0.7h-0.7v-0.7h0.7zm-0.7-7.7v-0.7h0.7v0.7zm1.4-0.7h0.4l0.2 0.3-0.6 0.4zm4 8.1l-4.2-5.1 1.1-0.9 4.2 5.2zm-0.5-7.5v-0.7h0.7v0.7zm1.7-0.7h0.7v0.7h-0.7zm0.7 7.7v0.7h-0.7v-0.7zm-1-1.8v1.9l-1.2-1.5 0.5-0.4zm-3.9-3.3v5.1h-1.4v-5.1zm-0.7 5.8h-1v-1.4h1zm-1.7-0.7v-7h1.4v7zm0.7-7.7h0.7v1.4h-0.7zm0.3 2.6v-2l1.3 1.5-0.6 0.5zm3.9 3.3v-5.2h1.4v5.2zm0.7-5.9h1v1.4h-1zm1.7 0.7v7h-1.4v-7zm-0.7 7.7h-0.7v-1.4h0.7zm1.6-0.8q-0.9-0.9-0.9-2.2h1.4q0 0.7 0.5 1.2zm1-3.5l-0.5-0.5zm2.4 0l0.5-0.5zm0 2.6v-0.1l0.5 0.5zm-2.8-2.8l0.5 0.5zm0 3.1l0.5-0.4zm2.2-1l0.5 0.5zm0-1.3l0.5-0.4zm-0.6 3.7q-1.3 0-2.2-0.9l1-1q0.5 0.5 1.2 0.5zm-3.1-3.1q0-1.3 0.9-2.3l1 1q-0.5 0.5-0.5 1.3zm0.9-2.3q0.9-0.9 2.2-0.9v1.4q-0.7 0-1.2 0.5zm2.2-0.9q1.4 0 2.3 0.9l-1 1q-0.5-0.5-1.3-0.5zm2.3 0.9q0.9 0.9 0.9 2.3h-1.4q0-0.8-0.5-1.3zm0.9 2.2q0 1.4-0.9 2.3l-1-1q0.5-0.5 0.5-1.3zm-0.9 2.3q-0.9 0.9-2.3 0.9v-1.4q0.8 0 1.3-0.5zm-4-0.5l-0.5 0.5zm1.2-2.4q-0.2 0.3-0.2 0.7h-1.4q0-1 0.6-1.6zm-0.3 0.6q0 0.4 0.3 0.6l-1.1 1q-0.6-0.7-0.6-1.6zm0.3 0.6q0.2 0.3 0.5 0.3v1.4q-0.9 0-1.6-0.7zm0.6 0.2q0.4 0 0.5-0.2l1.1 1q-0.7 0.6-1.6 0.6zm0.5-0.2q0.3-0.2 0.3-0.6h1.4q0 0.9-0.6 1.6zm0.2-0.7q0-0.4-0.2-0.6l1-1q0.6 0.7 0.6 1.6zm-0.2-0.6q-0.2-0.2-0.6-0.2v-1.4q1 0 1.6 0.6zm-0.5-0.2q-0.4 0-0.6 0.3l-1-1q0.6-0.7 1.6-0.7zm-19.5 14.8v-1.5l1.2 1-0.5 0.5zm1.4 2.8v0.7h-0.7v-0.7zm-1.6 0.7h-0.7v-0.7h0.7zm-0.7-7.8v-0.7h0.7v0.7zm1.1-0.1q0.9-0.7 2-0.7v1.4q-0.7 0-1.1 0.4zm1 1l-1.2 1v-1.5h0.7zm1.5 0.8q-0.2-0.2-0.6-0.2v-1.4q1 0 1.6 0.6zm2.2 2.3l-0.6-0.4zm-1.1 1.2l-0.4-0.7zm-3.7-3.6v-0.2l0.2-0.2 0.5 0.4zm0.2 2.2l-0.2-0.2v-0.2h0.7zm1.2-0.9q0.1 0.2 0.3 0.3l-0.6 1.3q-0.5-0.3-0.9-0.7zm1.4-1.1l0.5-0.5zm-1-0.1l-0.3-0.6zm-0.2 2.7v2.8h-1.4v-2.8zm-0.7 3.5h-1v-1.4h1zm-1.7-0.7v-7.1h1.4v7.1zm0.7-7.8h0.9v1.4h-0.9zm1.6 0.7v0.4h-1.4v-0.4zm-0.7-0.7h0.7v0.7h-0.7zm1.5-0.1q0.8 0 1.5 0.4l-0.7 1.2q-0.3-0.2-0.8-0.2zm1.5 0.4q0.7 0.4 1.1 1.1l-1.2 0.7q-0.2-0.4-0.6-0.6zm1.1 1.1q0.5 0.8 0.5 1.6h-1.4q0-0.5-0.3-0.9zm0.5 1.6q0 0.9-0.5 1.6l-1.2-0.7q0.3-0.3 0.3-0.9zm-0.5 1.7q-0.4 0.7-1.1 1.1l-0.7-1.2q0.4-0.2 0.6-0.7zm-1.1 1.2q-0.7 0.4-1.5 0.4v-1.4q0.4 0 0.8-0.2zm-1.5 0.4q-1.1 0-1.9-0.7l0.9-1.1q0.4 0.4 1 0.4zm-0.8-4.1v1.8h-1.4v-1.8zm0.2 1.7q0.2 0.1 0.4 0.1v1.4q-0.5 0-1-0.3zm-0.3 0.7l0.3-0.7zm0.7-0.5q0.4 0 0.6-0.2l1 0.9q-0.6 0.7-1.6 0.7zm0.6-0.2q0.3-0.3 0.3-0.6h1.4q0 0.9-0.7 1.5zm0.3-0.6q0-0.3-0.3-0.6l1.1-0.9q0.6 0.6 0.6 1.5zm0-1.5l0.4-0.6zm-0.9 0.7q-0.2 0-0.4 0.1l-0.7-1.3q0.5-0.2 1.1-0.2zm-0.4 0.1q-0.2 0.1-0.4 0.3l-1.1-0.9q0.3-0.4 0.8-0.7zm7-2.3l0.7 0.1-0.1 0.7-0.7-0.1zm0.5 1.6l-0.1 0.8-0.8-0.2 0.2-0.6zm-1.8 0l-1.3 1.8v-2.2h0.7zm0.2 3.7v0.7h-0.7v-0.7zm-1.7 0.7h-0.7v-0.7h0.7zm-0.7-5.4v-0.7h0.7v0.7zm1.7-0.7h0.7v0.7h-0.7zm-0.7 2.3v-0.2l0.1-0.1 0.6 0.3zm0.9-2.1l0.3 0.6zm2.3 0.6l-0.2 0.9-1.3-0.2 0.1-0.9zm-1 1.5q0 0-0.2 0v-1.4q0.3 0 0.5 0.1zm-0.2-0.1q-0.1 0-0.3 0.2l-0.8-1.2q0.5-0.3 1.1-0.4zm-0.3 0.2q-0.2 0.1-0.3 0.3l-1.2-0.7q0.3-0.5 0.7-0.8zm-0.2 0v3.1h-1.4v-3.1zm-0.7 3.8h-0.9v-1.4h0.9zm-1.6-0.7v-4.7h1.4v4.7zm0.7-5.4h0.9v1.4h-0.9zm1.6 0.7v0.5h-1.4v-0.5zm-1.3 0.1q0.3-0.4 0.8-0.7l0.7 1.3q-0.3 0.1-0.3 0.2zm0.8-0.7q0.5-0.2 1.1-0.2v1.4q-0.3 0-0.5 0.1zm1.2-0.3q0.2 0 0.5 0.1l-0.3 1.3q-0.1 0-0.2 0zm7.3 5.8l-2-4.7 1.3-0.6 2 4.7zm-6.2-2.3l-0.1-0.8h0.8v0.7zm2.6 0.6l0.4 0.6zm0.4-0.3l0.5-0.5 0.5 0.4-0.5 0.6zm1.6 0.5l0.5 0.4-0.4 0.5-0.6-0.4zm-0.9 1.8l-0.3-0.6zm-3.1-0.1l0.3-0.6zm-1.1-1.2l0.6-0.3zm0.4-3.9l0.5 0.5zm2.8 1.8q-0.1-0.2-0.2-0.3l0.8-1.1q0.6 0.4 0.7 1.1zm-2.7-1.8q0.9-0.9 2.2-0.9v1.4q-0.8 0-1.2 0.4zm0.9 2.4h-0.9l0.2-0.9 0.7 0.2zm3.2-0.9l0.2 0.9h-0.9v-0.7zm-1.5-0.1l0.4-0.5zm1.9 1.7h-3.6v-1.4h3.6zm-2.9-0.8q0 0.4 0.2 0.6l-0.9 1q-0.7-0.6-0.7-1.5zm0.2 0.6q0.3 0.2 0.6 0.2v1.4q-0.9 0-1.5-0.6zm0.5 0.2q0.4 0 0.5-0.1l0.7 1.2q-0.6 0.3-1.2 0.3zm0.5-0.1q0.2-0.1 0.4-0.3l1 0.9q-0.3 0.4-0.8 0.7zm1.4-0.4l0.7 0.6-1 1-0.6-0.6zm0.7 1.5q-0.4 0.6-1.1 0.9l-0.6-1.3q0.4-0.2 0.6-0.4zm-1.1 0.8q-0.7 0.3-1.5 0.3v-1.4q0.6 0 0.9-0.2zm-1.5 0.4q-0.8 0-1.6-0.4l0.7-1.3q0.4 0.3 0.9 0.3zm-1.6-0.4q-0.7-0.5-1.1-1.2l1.2-0.7q0.2 0.4 0.6 0.6zm-1.1-1.1q-0.4-0.7-0.4-1.6h1.4q0 0.5 0.2 0.9zm-0.4-1.6q0-1.3 0.8-2.2l1.1 0.9c-0.3 0.3-0.5 0.8-0.5 1.3zm1.8-1.9l0.4 0.6zm1.2-1.3q1.3 0 2.2 0.9l-1.1 1q-0.4-0.5-1.1-0.5zm2.2 0.9q0.8 1 0.8 2.3h-1.4q0-0.8-0.5-1.3zm0.9 2.2q0 0.2-0.1 0.3l-1.4-0.2q0.1 0 0.1-0.1zm-3-0.9q-0.2 0-0.4 0.1l-0.8-1.1q0.5-0.4 1.2-0.4zm-0.4 0.1q-0.2 0.2-0.2 0.4l-1.4-0.4q0.2-0.7 0.8-1.1zm-1-0.5h2.6v1.4h-2.6zm2.4 0l0.6-0.4zm-0.8 0.4q-0.2-0.1-0.3-0.1v-1.4q0.7 0 1.2 0.5zm4.4 3.8h-0.4l-0.2-0.4 0.6-0.3zm-2.6-5.1l-0.5-1h1.1v0.7zm1.6-1h0.5l0.2 0.4-0.7 0.3zm2.1 4.2l-0.7 1.5-0.6-1.5 0.6-0.3zm0.1-3.7l0.2-0.5h0.5v0.7zm1.6-0.4h1l-0.4 1-0.6-0.3zm-1.4 5.7l-0.2 0.4h-0.5v-0.7zm-3.1-2.3l-0.1 0.6h-0.6v-0.7zm-0.2-3.3h1v1.4h-1zm1.6 0.4l1.4 3.2-1.3 0.5-1.4-3.2zm0.1 3.2l1.4-3.2 1.3 0.6-1.4 3.2zm2.1-3.6h0.9v1.4h-0.9zm1.6 0.9l-2.1 4.8-1.2-0.6 2-4.7zm-2.7 5.1h-0.6v-1.4h0.6zm3 0h-0.7v-0.7h0.7zm-0.7-5.4v-0.7h0.7v0.7zm1.7-0.7h0.7v0.7h-0.7zm0.7 5.4v0.7h-0.7v-0.7zm-2.2-5.4l0.5-0.5zm0-1.9l0.5 0.5zm1-0.4q0.5 0 0.9 0.4l-1 1q0 0 0 0 0 0 0 0 0.1 0 0.1 0zm0.9 2.3l-0.5-0.5zm-2.1 5.4v-4.7h1.4v4.7zm0.7-5.4h1v1.4h-1zm1.7 0.7v4.7h-1.4v-4.7zm-0.7 5.4h-1v-1.4h1zm-1.5-6.1q-0.3-0.4-0.3-1h1.4q0 0 0 0-0.1 0-0.1 0 0 0 0 0zm-0.3-0.9q0-0.6 0.3-1l1 1q0 0 0 0 0.1 0 0.1 0 0-0.1 0 0zm0.3-1q0.4-0.4 1-0.4v1.4q0 0 0 0 0 0 0 0 0 0 0 0zm1.9 0q0.4 0.4 0.4 0.9h-1.4q0 0 0 0.1 0 0 0 0 0 0 0 0zm-0.9 1l0.5-0.5zm1.3-0.1q0 0.6-0.4 1l-0.9-1q0 0-0.1 0 0 0 0 0 0 0 0 0zm-0.4 1q-0.4 0.4-0.9 0.4v-1.4q0-0.1 0 0 0 0 0 0 0 0 0 0zm-1 0.3q-0.5 0-0.9-0.3l1-1q0 0 0 0-0.1 0-0.1 0 0-0.1 0-0.1zm8.1 5.4l-1.9-4.7 1.3-0.6 1.9 4.7zm-6.1-2.3v-0.8h0.7v0.7zm2.7 0.6l0.3 0.6zm0.4-0.3l0.5-0.5 0.5 0.5-0.5 0.5zm1.7 0.5l0.4 0.5-0.4 0.5-0.5-0.5zm-1 1.8l-0.3-0.6zm-3.1-0.1l0.4-0.6zm-1.2-1.2l0.6-0.3zm0.4-3.9l0.6 0.5zm2.7 1.8q0-0.2-0.2-0.3l0.9-1.1q0.5 0.4 0.7 1.1zm-2.8-1.8q0.9-0.9 2.2-0.9v1.4q-0.7 0-1.2 0.4zm0.9 2.4h-0.9l0.2-0.9 0.7 0.2zm3.3-0.9l0.2 0.9h-0.9v-0.7zm-1.6 0v-0.1l0.4-0.5zm1.9 1.7h-3.6v-1.4h3.6zm-2.9-0.8q0 0.4 0.3 0.6l-1 1q-0.6-0.6-0.7-1.5zm0.3 0.6q0.2 0.2 0.5 0.2v1.4q-0.9 0-1.5-0.6zm0.6 0.2q0.3 0 0.4-0.1l0.7 1.3q-0.5 0.2-1.1 0.2zm0.4-0.1q0.2-0.1 0.4-0.3l1 0.9q-0.3 0.4-0.7 0.7zm1.4-0.4l0.6 0.6-1 1-0.6-0.6zm0.7 1.5q-0.4 0.6-1 0.9l-0.7-1.3q0.4-0.2 0.6-0.4zm-1 0.8q-0.7 0.3-1.5 0.3v-1.4q0.5 0 0.8-0.2zm-1.5 0.4q-0.8 0-1.5-0.4l0.7-1.3q0.3 0.3 0.8 0.3zm-1.5-0.4q-0.8-0.5-1.2-1.2l1.2-0.7q0.3 0.4 0.7 0.6zm-1.2-1.1q-0.4-0.7-0.4-1.6h1.4q0 0.5 0.2 0.9zm-0.4-1.6c0-0.9 0.3-1.6 0.9-2.2l1 0.9c-0.3 0.3-0.5 0.8-0.5 1.3zm1.8-1.9l0.4 0.6zm1.2-1.3q1.3 0 2.2 0.9l-1.1 1q-0.4-0.5-1.1-0.5zm2.2 0.9q0.8 1 0.8 2.3h-1.4q0-0.8-0.4-1.3zm0.8 2.2q0 0.2 0 0.3l-1.4-0.2q0 0 0-0.1zm-3-0.9q-0.2 0-0.4 0.1l-0.8-1.1q0.6-0.4 1.2-0.4zm-0.4 0.1q-0.1 0.2-0.2 0.4l-1.3-0.4q0.1-0.6 0.7-1.1zm-0.9-0.5h2.5v1.4h-2.5zm2.4 0l0.5-0.4zm-0.8 0.4q-0.1-0.1-0.3-0.1v-1.4q0.7 0 1.2 0.5zm5.3-1.9l0.2-0.4h0.5v0.7zm1.3-0.4h0.5l0.1 0.4-0.6 0.3zm1.9 4.1l-0.6 1.6-0.7-1.6 0.7-0.2zm0-3.8l0.2-0.4h0.4v0.7zm1.7-0.4h1l-0.4 0.9-0.6-0.2zm-1.3 5.6l-0.2 0.5h-0.5v-0.7zm-1.3 0.4h-0.4l-0.2-0.4 0.6-0.3zm-1.9-4.3l0.6-1.6 0.7 1.6-0.7 0.3zm0 3.8l-0.2 0.5h-0.5v-0.7zm-1.3 0.4h-0.4l-0.2-0.4 0.6-0.3zm-2.5-5.1l-0.4-1h1v0.7zm1.7-1h0.4l0.2 0.5-0.6 0.2zm1.9 4.2l-0.7 1.6-0.6-1.6 0.6-0.3zm0.7-4.1h0.6v1.4h-0.6zm1.3 0.4l1.3 3.2-1.3 0.5-1.3-3.2zm0 3.2l1.3-3.2 1.3 0.5-1.3 3.3zm1.9-3.7h1v1.4h-1zm1.7 1l-2 4.7-1.3-0.6 2-4.7zm-2.6 5.2h-0.7v-1.4h0.7zm-1.3-0.5l-1.3-3.3 1.3-0.5 1.3 3.3zm0-3.3l-1.4 3.3-1.3-0.5 1.4-3.3zm-2 3.7h-0.7v-1.4h0.7zm-2.4-2.7l-0.1 0.6h-0.6v-0.7zm-0.2-3.3h1v1.4h-1zm1.7 0.4l1.3 3.2-1.3 0.5-1.3-3.2zm0 3.2l1.2-3.2 1.3 0.5-1.2 3.3z"/></svg>