<svg width="49" height="48" viewBox="0 0 49 48" fill="none" xmlns="http://www.w3.org/2000/svg">
<path d="M14.1718 1H1.60793C1.27235 1 1 1.27235 1 1.60793V17.8024C1 18.1379 1.27235 18.4103 1.60793 18.4103H14.1718C14.5074 18.4103 14.7797 18.1379 14.7797 17.8024V1.60793C14.7797 1.27235 14.5074 1 14.1718 1ZM13.5639 17.1944H2.21586V2.21586H13.5639V17.1944Z" fill="#343538" stroke="#343538" stroke-width="0.5"/>
<path d="M14.1718 21.9922H1.60793C1.27235 21.9922 1 22.2646 1 22.6001V27.5981C1 27.9337 1.27235 28.2061 1.60793 28.2061H14.1718C14.5074 28.2061 14.7797 27.9337 14.7797 27.5981V22.6001C14.7797 22.2646 14.5074 21.9922 14.1718 21.9922ZM13.5639 26.9902H2.21586V23.2081H13.5639V26.9902Z" fill="#343538" stroke="#343538" stroke-width="0.5"/>
<path d="M14.1718 31.7888H1.60793C1.27235 31.7888 1 32.0611 1 32.3967V46.3921C1 46.7276 1.27235 47 1.60793 47H14.1718C14.5074 47 14.7797 46.7276 14.7797 46.3921V32.3967C14.7797 32.0611 14.5074 31.7888 14.1718 31.7888ZM13.5639 45.7841H2.21586V33.0047H13.5639V45.7841Z" fill="#343538" stroke="#343538" stroke-width="0.5"/>
<path d="M31.1938 1H18.6299C18.2943 1 18.022 1.27235 18.022 1.60793V13.1586C18.022 13.4942 18.2943 13.7665 18.6299 13.7665H31.1938C31.5294 13.7665 31.8017 13.4942 31.8017 13.1586V1.60793C31.8017 1.27235 31.5294 1 31.1938 1ZM30.5858 12.5507H19.2378V2.21586H30.5858V12.5507Z" fill="#343538" stroke="#343538" stroke-width="0.5"/>
<path d="M31.1938 17.4141H18.6299C18.2943 17.4141 18.022 17.6864 18.022 18.022V35.7533C18.022 36.0889 18.2943 36.3612 18.6299 36.3612H31.1938C31.5294 36.3612 31.8017 36.0889 31.8017 35.7533V18.022C31.8017 17.6864 31.5294 17.4141 31.1938 17.4141ZM30.5858 35.1454H19.2378V18.63H30.5858V35.1454Z" fill="#343538" stroke="#343538" stroke-width="0.5"/>
<path d="M31.1938 40.0088H18.6299C18.2943 40.0088 18.022 40.2812 18.022 40.6167V46.3921C18.022 46.7276 18.2943 47 18.6299 47H31.1938C31.5294 47 31.8017 46.7276 31.8017 46.3921V40.6167C31.8017 40.2812 31.5294 40.0088 31.1938 40.0088ZM30.5858 45.7841H19.2378V41.2247H30.5858V45.7841Z" fill="#343538" stroke="#343538" stroke-width="0.5"/>
<path d="M47.8105 1H35.2466C34.911 1 34.6387 1.27235 34.6387 1.60793V30.1166C34.6387 30.4522 34.911 30.7245 35.2466 30.7245H47.8105C48.1461 30.7245 48.4184 30.4522 48.4184 30.1166V1.60793C48.4184 1.27235 48.1461 1 47.8105 1ZM47.2025 29.5087H35.8545V2.21586H47.2025V29.5087Z" fill="#343538" stroke="#343538" stroke-width="0.5"/>
<path d="M47.8105 34.6153H35.2466C34.911 34.6153 34.6387 34.8876 34.6387 35.2232V46.3921C34.6387 46.7276 34.911 47 35.2466 47H47.8105C48.1461 47 48.4184 46.7276 48.4184 46.3921V35.2232C48.4184 34.8876 48.1461 34.6153 47.8105 34.6153ZM47.2025 45.7841H35.8545V35.8311H47.2025V45.7841Z" fill="#343538" stroke="#343538" stroke-width="0.5"/>
</svg>
