<svg width="21" height="24" viewBox="0 0 21 24" fill="none" xmlns="http://www.w3.org/2000/svg">
<path d="M5.80591 16.3689H6.84692C7.11564 16.3689 7.31453 16.3012 7.4436 16.1658C7.56632 16.0367 7.62769 15.8875 7.62769 15.7183C7.62769 15.5469 7.56632 15.3966 7.4436 15.2676C7.31665 15.1343 7.11776 15.0676 6.84692 15.0676H5.80591V16.3689ZM6.87866 16.9846H5.80591V19H5.15527V14.4487H6.87866C7.27222 14.4487 7.58854 14.5492 7.82764 14.7502C7.96729 14.8708 8.07625 15.0147 8.15454 15.1819C8.23494 15.349 8.27515 15.5278 8.27515 15.7183C8.27515 15.9087 8.23494 16.0875 8.15454 16.2546C8.07625 16.4218 7.96729 16.5657 7.82764 16.6863C7.59066 16.8852 7.27433 16.9846 6.87866 16.9846ZM12.0933 17.4385C12.1906 17.2142 12.2393 16.9762 12.2393 16.7244C12.2393 16.4726 12.1906 16.2367 12.0933 16.0166C11.9959 15.7944 11.8605 15.6061 11.687 15.4517C11.5389 15.3226 11.3622 15.2263 11.157 15.1628C10.9517 15.0994 10.6947 15.0676 10.3857 15.0676H9.70337V18.3811H10.3857C10.6947 18.3811 10.9517 18.3504 11.157 18.2891C11.3622 18.2256 11.5389 18.1293 11.687 18.0002C11.8605 17.8479 11.9959 17.6606 12.0933 17.4385ZM10.4175 19H9.05273V14.4487H10.4175C11.0671 14.4487 11.5876 14.5926 11.979 14.8804C12.2625 15.092 12.4847 15.3596 12.6455 15.6833C12.8084 16.005 12.8899 16.352 12.8899 16.7244C12.8899 17.0989 12.8095 17.448 12.6487 17.7717C12.4879 18.0955 12.2668 18.3621 11.9854 18.5715C11.596 18.8572 11.0734 19 10.4175 19ZM14.3499 16.2388H15.8447V16.8545H14.3499V19H13.6992V14.4487H16.3018V15.0676H14.3499V16.2388Z" fill="black"/>
<path d="M20.9616 7.39832C20.9345 7.32929 20.8966 7.26616 20.8424 7.20867L14.2038 0.172458C14.1549 0.120618 14.0954 0.0746797 14.025 0.045937C13.9599 0.0171943 13.8895 0 13.8191 0H0.541914C0.243861 0 0 0.258684 0 0.574854V23.4251C0 23.7413 0.243861 24 0.541914 24H20.4571C20.7551 24 20.999 23.7413 20.999 23.4251V7.61698C21.0043 7.5423 20.9881 7.47327 20.961 7.39859L20.9616 7.39832ZM14.3664 1.96592L19.157 7.04776H14.3664V1.96592ZM19.921 22.8558H1.08969V1.15521H13.2831V7.62235C13.2831 7.93852 13.5269 8.19721 13.825 8.19721H19.9215L19.921 22.8558Z" fill="#040404"/>
</svg>
