<svg width="16" height="18" viewBox="0 0 16 18" fill="none" xmlns="http://www.w3.org/2000/svg">
<path fill-rule="evenodd" clip-rule="evenodd" d="M13.1667 6.5C13.1667 9.314 11.2113 10.9327 9.74599 12.5C8.86866 13.4387 8.16666 16.5 8.16666 16.5C8.16666 16.5 7.46666 13.4407 6.59132 12.5047C5.12466 10.938 3.16666 9.31667 3.16666 6.5C3.16666 3.73858 5.40523 1.5 8.16666 1.5C10.9281 1.5 13.1667 3.73858 13.1667 6.5Z" stroke="#737373" stroke-width="1.5" stroke-linecap="round" stroke-linejoin="round"/>
<path fill-rule="evenodd" clip-rule="evenodd" d="M8.16666 8.5C9.27123 8.5 10.1667 7.60457 10.1667 6.5C10.1667 5.39543 9.27123 4.5 8.16666 4.5C7.06209 4.5 6.16666 5.39543 6.16666 6.5C6.16666 7.60457 7.06209 8.5 8.16666 8.5Z" stroke="#737373" stroke-width="1.5" stroke-linecap="round" stroke-linejoin="round"/>
</svg>
