<svg width="30" height="30" viewBox="0 0 30 30" fill="none" xmlns="http://www.w3.org/2000/svg">
<path d="M13.1099 6.30423L12.5528 6.63908L12.5536 6.64035L13.1099 6.30423ZM12.4588 5.22094L11.9015 5.55536L11.9017 5.55579L12.4588 5.22094ZM7.95168 6.52423C7.59269 6.52423 7.30168 6.81524 7.30168 7.17423C7.30168 7.53321 7.59269 7.82423 7.95168 7.82423V6.52423ZM26.087 6.52423H14.6479V7.82423H26.087V6.52423ZM14.6479 6.52423C14.2528 6.52423 13.8743 6.31243 13.6663 5.9681L12.5536 6.64035C12.9967 7.37371 13.7969 7.82423 14.6479 7.82423V6.52423ZM13.667 5.96938L13.016 4.88609L11.9017 5.55579L12.5528 6.63908L13.667 5.96938ZM13.0162 4.88652C12.3772 3.82157 11.2119 3.15649 9.96109 3.15649V4.45649C10.7534 4.45649 11.4964 4.88031 11.9015 5.55536L13.0162 4.88652ZM9.96109 3.15649H3.84864V4.45649H9.96109V3.15649ZM3.84864 3.15649C1.88437 3.15649 0.285545 4.75531 0.285545 6.71958H1.58555C1.58555 5.47328 2.60234 4.45649 3.84864 4.45649V3.15649ZM0.285545 6.71958V23.9063H1.58555V6.71958H0.285545ZM0.285545 23.9063C0.285545 25.8706 1.88437 27.4694 3.84864 27.4694V26.1694C2.60234 26.1694 1.58555 25.1526 1.58555 23.9063H0.285545ZM3.84864 27.4694H26.087V26.1694H3.84864V27.4694ZM26.087 27.4694C28.0512 27.4694 29.6501 25.8706 29.6501 23.9063H28.3501C28.3501 25.1526 27.3333 26.1694 26.087 26.1694V27.4694ZM29.6501 23.9063V10.0873H28.3501V23.9063H29.6501ZM29.6501 10.0873C29.6501 8.12305 28.0512 6.52423 26.087 6.52423V7.82423C27.3333 7.82423 28.3501 8.84102 28.3501 10.0873H29.6501ZM14.6479 6.52423H7.95168V7.82423H14.6479V6.52423Z" fill="black"/>
<path d="M15 13V21" stroke="black" stroke-width="1.5" stroke-linecap="round" stroke-linejoin="round"/>
<path d="M11 17.1H19" stroke="black" stroke-width="1.5" stroke-linecap="round" stroke-linejoin="round"/>
</svg>
