<svg width="56" height="80" viewBox="0 0 56 80" fill="none" xmlns="http://www.w3.org/2000/svg">
<path d="M50.165 80H5.83314C2.58325 80 0 77.3608 0 74.2268V5.7732C0 2.5567 2.66658 0 5.83314 0H50.165C53.4149 0 55.9981 2.63918 55.9981 5.7732V74.2268C56.0814 77.3608 53.4149 80 50.165 80ZM5.83314 1.56701C3.49988 1.56701 1.66661 3.46392 1.66661 5.69072V74.1443C1.66661 76.4536 3.58321 78.268 5.83314 78.268H50.165C52.4982 78.268 54.3315 76.3711 54.3315 74.1443V5.69072C54.3315 3.38144 52.4149 1.56701 50.165 1.56701H5.83314Z" fill="#F18825"/>
<path d="M12.4997 65.6494H11.1664V70.7628H9.4165V58.1443H12.7497C15.4163 58.1443 17.0829 59.4639 17.0829 61.7732C17.0829 64.3299 15.2496 65.6494 12.4997 65.6494ZM12.6664 59.7113H11.0831V64.1649H12.4997C14.2497 64.1649 15.2496 63.4226 15.2496 61.8556C15.333 60.3711 14.4163 59.7113 12.6664 59.7113Z" fill="#F18825"/>
<path d="M22.3325 65.6494H20.9992V70.7628H19.2493V58.1443H22.5825C25.2491 58.1443 26.9157 59.4639 26.9157 61.7732C26.9157 64.3299 25.0824 65.6494 22.3325 65.6494ZM22.4992 59.7113H20.9159V64.1649H22.3325C24.0824 64.1649 25.0824 63.4226 25.0824 61.8556C25.1657 60.3711 24.2491 59.7113 22.4992 59.7113Z" fill="#F18825"/>
<path d="M33.9988 59.7113V70.6804H32.2489V59.7113H28.249V58.1443H37.9154L38.1654 59.7113H33.9988Z" fill="#F18825"/>
<path d="M28.0823 44.2888C19.2493 44.2888 11.9995 37.196 11.9995 28.3713C11.9995 19.629 19.1659 12.4537 28.0823 12.4537C28.5823 12.4537 28.9156 12.7836 28.9156 13.2785C28.9156 13.7733 28.5823 14.1032 28.0823 14.1032C20.1659 14.1032 13.6661 20.5362 13.6661 28.3713C13.6661 36.2063 20.1659 42.6393 28.0823 42.6393C35.9987 42.6393 42.4985 36.2063 42.4985 28.3713C42.4985 27.8764 42.8318 27.5465 43.3318 27.5465C43.8318 27.5465 44.1651 27.8764 44.1651 28.3713C44.0818 37.196 36.9153 44.2888 28.0823 44.2888Z" fill="#F18825"/>
<path d="M47.415 25.8969H30.5823V9.15466H31.4156C40.2486 9.15466 47.4984 16.2474 47.4984 25.0722L47.415 25.8969ZM32.2489 24.2474H45.7484C45.3318 17.0722 39.4986 11.299 32.2489 10.8866V24.2474Z" fill="#F18825"/>
</svg>
