<svg width="21" height="24" viewBox="0 0 21 24" fill="none" xmlns="http://www.w3.org/2000/svg">
<path d="M6.18042 16.3689H7.22144C7.49015 16.3689 7.68905 16.3012 7.81812 16.1658C7.94084 16.0367 8.0022 15.8875 8.0022 15.7183C8.0022 15.5469 7.94084 15.3966 7.81812 15.2676C7.69116 15.1343 7.49227 15.0676 7.22144 15.0676H6.18042V16.3689ZM7.25317 16.9846H6.18042V19H5.52979V14.4487H7.25317C7.64673 14.4487 7.96305 14.5492 8.20215 14.7502C8.3418 14.8708 8.45076 15.0147 8.52905 15.1819C8.60946 15.349 8.64966 15.5278 8.64966 15.7183C8.64966 15.9087 8.60946 16.0875 8.52905 16.2546C8.45076 16.4218 8.3418 16.5657 8.20215 16.6863C7.96517 16.8852 7.64884 16.9846 7.25317 16.9846ZM10.0779 16.3689H11.1189C11.3876 16.3689 11.5865 16.3012 11.7156 16.1658C11.8383 16.0367 11.8997 15.8875 11.8997 15.7183C11.8997 15.5469 11.8383 15.3966 11.7156 15.2676C11.5886 15.1343 11.3897 15.0676 11.1189 15.0676H10.0779V16.3689ZM11.1506 16.9846H10.0779V19H9.42725V14.4487H11.1506C11.5442 14.4487 11.8605 14.5492 12.0996 14.7502C12.2393 14.8708 12.3482 15.0147 12.4265 15.1819C12.5069 15.349 12.5471 15.5278 12.5471 15.7183C12.5471 15.9087 12.5069 16.0875 12.4265 16.2546C12.3482 16.4218 12.2393 16.5657 12.0996 16.6863C11.8626 16.8852 11.5463 16.9846 11.1506 16.9846ZM12.8391 15.0676V14.4487H15.959V15.0676H14.7244V19H14.0737V15.0676H12.8391Z" fill="black"/>
<path d="M20.9616 7.39832C20.9345 7.32929 20.8966 7.26616 20.8424 7.20867L14.2038 0.172458C14.1549 0.120618 14.0954 0.0746797 14.025 0.045937C13.9599 0.0171943 13.8895 0 13.8191 0H0.541914C0.243861 0 0 0.258684 0 0.574854V23.4251C0 23.7413 0.243861 24 0.541914 24H20.4571C20.7551 24 20.999 23.7413 20.999 23.4251V7.61698C21.0043 7.5423 20.9881 7.47327 20.961 7.39859L20.9616 7.39832ZM14.3664 1.96592L19.157 7.04776H14.3664V1.96592ZM19.921 22.8558H1.08969V1.15521H13.2831V7.62235C13.2831 7.93852 13.5269 8.19721 13.825 8.19721H19.9215L19.921 22.8558Z" fill="#040404"/>
</svg>
