<svg width="20" height="18" viewBox="0 0 20 18" fill="none" xmlns="http://www.w3.org/2000/svg">
<path d="M10.3792 2.58333H18.2497C18.4928 2.58333 18.7259 2.67991 18.8979 2.85182C19.0698 3.02373 19.1663 3.25688 19.1663 3.5V16.3333C19.1663 16.5764 19.0698 16.8096 18.8979 16.9815C18.7259 17.1534 18.4928 17.25 18.2497 17.25H1.74967C1.50656 17.25 1.2734 17.1534 1.10149 16.9815C0.929585 16.8096 0.833008 16.5764 0.833008 16.3333V1.66667C0.833008 1.42355 0.929585 1.19039 1.10149 1.01849C1.2734 0.846577 1.50656 0.75 1.74967 0.75H8.54584L10.3792 2.58333ZM2.66634 2.58333V15.4167H17.333V4.41667H9.62017L7.78684 2.58333H2.66634ZM12.7497 9.91667H13.6663V13.5833H6.33301V9.91667H7.24967V9C7.24967 8.27065 7.53941 7.57118 8.05513 7.05546C8.57086 6.53973 9.27033 6.25 9.99967 6.25C10.729 6.25 11.4285 6.53973 11.9442 7.05546C12.4599 7.57118 12.7497 8.27065 12.7497 9V9.91667ZM10.9163 9.91667V9C10.9163 8.75688 10.8198 8.52373 10.6479 8.35182C10.4759 8.17991 10.2428 8.08333 9.99967 8.08333C9.75656 8.08333 9.5234 8.17991 9.35149 8.35182C9.17958 8.52373 9.08301 8.75688 9.08301 9V9.91667H10.9163Z" fill="#937206"/>
</svg>
