<svg width="20" height="15" viewBox="0 0 20 15" fill="none" xmlns="http://www.w3.org/2000/svg">
<path d="M12.0304 0H18.1214C18.3179 0 18.4772 0.157436 18.4772 0.351612V12.1402C18.4772 12.3344 18.3179 12.4918 18.1214 12.4918H12.0304C11.6668 12.4918 11.371 12.7842 11.371 13.1436C11.371 13.3377 11.2117 13.4952 11.0152 13.4952H10H8.98478C8.7883 13.4952 8.629 13.3377 8.629 13.1436C8.629 12.7842 8.33333 12.4918 7.96974 12.4918H1.8786C1.68213 12.4918 1.52283 12.3344 1.52283 12.1402V0.351612C1.52283 0.157436 1.68213 0 1.8786 0H7.96974C8.82802 0 9.57958 0.451598 10 1.12551C10.4205 0.451598 11.1722 0 12.0304 0ZM9.64422 2.3581C9.64422 1.44559 8.89306 0.703224 7.96974 0.703224H2.23438V11.7886H7.96974C8.6026 11.7886 9.13679 12.2147 9.29383 12.792H9.64422V2.3581ZM17.7656 0.703224H12.0304C11.1069 0.703224 10.3558 1.44559 10.3558 2.3581V12.792H10.7062C10.8634 12.2147 11.3974 11.7886 12.0304 11.7886H17.7656V0.703224ZM19.6442 1.25399C19.4477 1.25399 19.2884 1.41143 19.2884 1.6056V13.2934H12.538C12.4437 13.2934 12.3532 13.3305 12.2865 13.3965L11.3755 14.2968H8.62449L7.71367 13.3965C7.64697 13.3305 7.55646 13.2934 7.46213 13.2934H0.711556V1.6056C0.711556 1.41143 0.552255 1.25399 0.355778 1.25399C0.159301 1.25399 0 1.41143 0 1.6056V13.6451C0 13.8392 0.159301 13.9967 0.355778 13.9967H7.31481L8.22563 14.897C8.29234 14.9629 8.38284 15 8.47717 15H11.5228C11.6172 15 11.7077 14.9629 11.7744 14.897L12.6854 13.9967H19.6442C19.8407 13.9967 20 13.8392 20 13.6451V1.6056C20 1.41143 19.8407 1.25399 19.6442 1.25399ZM12.3697 3.46736H16.0291C16.2256 3.46736 16.3849 3.30993 16.3849 3.11575C16.3849 2.92157 16.2256 2.76414 16.0291 2.76414H12.3697C12.1732 2.76414 12.0139 2.92157 12.0139 3.11575C12.0139 3.30993 12.1732 3.46736 12.3697 3.46736ZM16.0291 8.44539H12.3697C12.1732 8.44539 12.0139 8.60282 12.0139 8.797C12.0139 8.99118 12.1732 9.14861 12.3697 9.14861H16.0291C16.2256 9.14861 16.3849 8.99118 16.3849 8.797C16.3849 8.60282 16.2256 8.44539 16.0291 8.44539ZM16.0291 5.52793H12.3697C12.1732 5.52793 12.0139 5.68537 12.0139 5.87955C12.0139 6.07372 12.1732 6.23116 12.3697 6.23116H16.0291C16.2256 6.23116 16.3849 6.07372 16.3849 5.87955C16.3849 5.68537 16.2256 5.52793 16.0291 5.52793ZM7.76909 2.76414H4.10951C3.91304 2.76414 3.75373 2.92157 3.75373 3.11575C3.75373 3.30993 3.91304 3.46736 4.10951 3.46736H7.76909C7.96557 3.46736 8.12487 3.30993 8.12487 3.11575C8.12487 2.92157 7.96557 2.76414 7.76909 2.76414ZM7.76909 8.44539H4.10951C3.91304 8.44539 3.75373 8.60282 3.75373 8.797C3.75373 8.99118 3.91304 9.14861 4.10951 9.14861H7.76909C7.96557 9.14861 8.12487 8.99118 8.12487 8.797C8.12487 8.60282 7.96557 8.44539 7.76909 8.44539ZM7.76909 5.52793H4.10951C3.91304 5.52793 3.75373 5.68537 3.75373 5.87955C3.75373 6.07372 3.91304 6.23116 4.10951 6.23116H7.76909C7.96557 6.23116 8.12487 6.07372 8.12487 5.87955C8.12487 5.68537 7.96557 5.52793 7.76909 5.52793Z" fill="#4A4C4E"/>
</svg>
