<svg width="18" height="16" viewBox="0 0 18 16" fill="none" xmlns="http://www.w3.org/2000/svg">
<path d="M9.39728 0.000271247C5.65687 0.000271247 2.50706 2.59564 1.65398 6.0783L1.12896 5.12565C0.96486 4.83001 0.571209 4.73147 0.308695 4.89555C0.0134526 5.05987 -0.084961 5.45405 0.0789102 5.71691L1.52263 8.27954C1.52263 8.27954 1.52263 8.31231 1.55536 8.31231L1.58809 8.34508C1.58809 8.37785 1.62082 8.37785 1.62082 8.37785L1.68627 8.4434H1.719H1.75173H1.78446H1.81719H1.84991H1.9156H1.98129H2.01401H2.04674H2.07947H2.1122H2.14493C2.14493 8.4434 2.17765 8.4434 2.17765 8.41062H2.21038H2.24311L4.5071 6.53782C4.76961 6.30773 4.80234 5.94656 4.57278 5.68367C4.343 5.4208 3.98231 5.38803 3.71977 5.61789L2.60427 6.53781C3.26042 3.48249 5.98376 1.21549 9.19919 1.21549C12.9396 1.21549 15.9582 4.23808 15.9582 7.98346C15.9582 11.7288 12.9396 14.7514 9.19919 14.7514C8.87099 14.7514 8.57573 15.0143 8.57573 15.3757C8.57573 15.7043 8.83825 16 9.19919 16C13.5958 16 17.1722 12.419 17.1722 8.01643C17.1735 3.61402 13.7941 0 9.39723 0L9.39728 0.000271247Z" fill="#937206"/>
<path d="M9.39733 3.81158C9.06913 3.81158 8.77386 4.07445 8.77386 4.43587V7.98413C8.77386 8.31276 9.03638 8.60841 9.39733 8.60841H12.3175C12.6457 8.60841 12.9409 8.34555 12.9409 7.98413C12.9409 7.6227 12.6784 7.35984 12.3175 7.35984H10.0208V4.43581C10.0208 4.10741 9.72554 3.81152 9.39733 3.81152V3.81158Z" fill="#937206"/>
</svg>
