<svg width="10" height="10" viewBox="0 0 10 10" fill="none" xmlns="http://www.w3.org/2000/svg">
<path d="M8.84091 9.80113C9.10606 10.0663 9.53597 10.0663 9.80113 9.80113C10.0663 9.53597 10.0663 9.10606 9.80113 8.8409L5.96023 5L9.80113 1.1591C10.0663 0.893937 10.0663 0.464028 9.80113 0.198869C9.53597 -0.0662898 9.10606 -0.0662898 8.84091 0.198869L5 4.03977L1.1591 0.19887C0.893936 -0.0662895 0.464028 -0.0662892 0.198869 0.19887C-0.06629 0.464029 -0.0662896 0.893937 0.198869 1.1591L4.03977 5L0.198869 8.8409C-0.0662896 9.10606 -0.0662894 9.53597 0.19887 9.80113C0.464029 10.0663 0.893937 10.0663 1.1591 9.80113L5 5.96023L8.84091 9.80113Z" fill="#937206"/>
</svg>
