<svg width="50" height="50" viewBox="0 0 50 50" fill="none" xmlns="http://www.w3.org/2000/svg">
<path d="M30.7815 38.3228C39.9476 34.4273 44.2203 23.8388 40.3248 14.6727C36.4293 5.50663 25.8407 1.23396 16.6746 5.12946C7.50854 9.02496 3.23588 19.6135 7.13138 28.7796C11.0269 37.9457 21.6154 42.2183 30.7815 38.3228Z" stroke="#2B2825" stroke-width="2.5" stroke-linecap="round" stroke-linejoin="round"/>
<path d="M36.0544 35.133C35.8006 34.8791 35.389 34.8791 35.1351 35.1329C34.8813 35.3868 34.8813 35.7983 35.1351 36.0522L48.1517 49.0707C48.4056 49.3245 48.8171 49.3246 49.071 49.0708C49.3248 48.8169 49.3249 48.4054 49.071 48.1515L36.0544 35.133Z" stroke="#2B2825" stroke-width="1.3" stroke-linecap="round" stroke-linejoin="round"/>
<path d="M23.9419 13.5807C21.3763 13.5807 19.2814 15.2744 18.7735 17.3076C18.6744 17.6419 18.8995 18.0361 19.2379 18.1207C19.5763 18.2052 19.9604 17.9632 20.0302 17.6215C20.3681 16.2685 21.9652 14.877 23.9419 14.877C24.9204 14.877 25.9297 15.2293 26.6578 15.8188C27.3859 16.4085 27.8232 17.1995 27.8232 18.1177C27.8232 19.2322 27.5804 19.7937 27.2456 20.2242C26.9106 20.6548 26.429 20.9761 25.8369 21.399C25.2448 21.8219 24.5727 22.3645 24.0837 23.2725C23.5948 24.1805 23.2933 24.1684 23.2933 25.9418C23.2933 26.2814 23.6023 26.5904 23.9419 26.5904C24.2815 26.5904 24.5905 26.2814 24.5905 25.9418C24.5905 24.3124 24.857 24.5621 25.2188 23.8903C25.5805 23.2185 26.0446 22.8395 26.5868 22.4522C27.1291 22.0649 27.7634 21.6874 28.2792 21.0243C28.7951 20.3611 29.1204 19.4338 29.1204 18.1177C29.1204 16.7674 28.4311 15.604 27.4584 14.8162C26.4856 14.0285 25.2294 13.5807 23.9419 13.5807ZM23.9419 29.1363C23.4045 29.1363 22.969 29.5715 22.969 30.1085C22.969 30.6454 23.4045 31.0807 23.9419 31.0807C24.4792 31.0807 24.9147 30.6454 24.9147 30.1085C24.9147 29.5715 24.4792 29.1363 23.9419 29.1363Z" fill="#2B2825" stroke="#2B2825" stroke-width="1.2"/>
</svg>
