<svg width="85" height="71" viewBox="0 0 85 71" fill="none" xmlns="http://www.w3.org/2000/svg">
<path d="M84.2601 33.5288V21.6958L75.1546 16.4362V5.9176L64.9022 0.00136712L55.7973 5.26095L46.6833 0.00136712L37.5762 5.25958L28.4668 0L19.3573 5.25958L10.2478 0L0 5.91623V17.7501L9.10946 23.0096V32.2136L0 37.4732V49.307L9.10946 54.5652V65.0838L19.3573 71L28.4668 65.7404L37.5762 71L46.6841 65.7404L55.7981 71L64.903 65.7404L74.017 71L84.2603 65.0838V53.2515L75.1548 47.9933V38.7886L84.2601 33.5288ZM81.9834 32.2135L74.0162 36.8159L66.0406 32.2135L66.0414 23.0096L74.017 18.4072L81.9833 23.0096L81.9834 32.2135ZM68.8899 50.2929L64.9021 52.594L56.9357 47.9917V38.787L64.9015 34.1854L72.877 38.7877V47.9925L68.8899 50.2929ZM46.6843 52.594L42.7003 50.2929L38.7148 47.9925V38.7877L46.6843 34.1862L54.6599 38.7885V47.9932L50.672 50.2944L46.6843 52.594ZM28.467 52.594L24.4814 50.2929L20.4967 47.9925V38.7877L28.467 34.1862L36.4372 38.7877V47.9925L32.4517 50.2936L28.467 52.594ZM15.3727 20.7086L19.3583 18.4074L23.3438 20.7086L27.3286 23.0098V32.2137L19.3583 36.8161L11.388 32.2137L11.3872 23.0098L15.3727 20.7086ZM37.5764 18.4074L41.5619 20.7086L45.5459 23.0098V32.2137L37.5764 36.8161L29.6061 32.2137L29.6054 23.0098L37.5764 18.4074ZM55.7977 18.4074L63.7641 23.0098V32.2137L63.2799 32.4928L55.7976 36.816L47.822 32.2136L47.8228 23.0097L51.8107 20.7085L55.7977 18.4074ZM72.8774 7.23317V16.4357L64.9019 21.0381L56.9355 16.4357V7.23102L64.9013 2.62944L72.8774 7.23317ZM54.6593 7.23317V16.4357L46.6837 21.0381L42.7005 18.7369L38.715 16.4365V7.2318L46.6845 2.63022L54.6593 7.23317ZM36.4372 7.23164V16.4356L32.4517 18.7367L28.467 21.0379L24.4814 18.7367L20.4967 16.4356V7.23164L28.467 2.63006L36.4372 7.23164ZM2.27776 7.23164L10.248 2.63006L18.2183 7.23164V16.4356L14.2328 18.7367L10.2488 21.0379L2.27854 16.4364L2.27776 7.23164ZM2.27776 38.7872L10.248 34.1856L18.2183 38.7872V47.9919L10.2488 52.5935L2.27854 47.9919L2.27776 38.7872ZM11.3872 63.7685V54.5638L19.3583 49.9614L27.3293 54.5638V63.7685L19.3591 68.3709L11.3872 63.7685ZM29.6053 63.7685V54.5638L37.5764 49.9614L41.5619 52.2626L45.5459 54.5638V63.7685L37.5764 68.3709L29.6053 63.7685ZM47.8227 63.7685V54.5638L55.7983 49.9614L63.7646 54.5638V63.7685L55.7988 68.3709L47.8227 63.7685ZM81.9841 63.7685L74.017 68.3709L66.0422 63.7685V54.5638L74.0178 49.9614L81.9841 54.5638V63.7685Z" fill="#BAB8B2"/>
</svg>
