<svg width="14" height="14" viewBox="0 0 14 14" fill="none" xmlns="http://www.w3.org/2000/svg">
<path d="M1.22622 10.3332C0.944399 9.84587 0.725329 9.32485 0.574219 8.78255C0.90309 8.61528 1.17928 8.3603 1.37224 8.04581C1.56519 7.73132 1.6674 7.36959 1.66753 7.00062C1.66767 6.63166 1.56574 6.26985 1.37302 5.95522C1.1803 5.64058 0.904298 5.3854 0.575552 5.21788C0.876909 4.12821 1.4507 3.13318 2.24289 2.32655C2.55228 2.5277 2.9113 2.63932 3.2802 2.64907C3.64911 2.65881 4.01352 2.5663 4.33311 2.38177C4.65269 2.19724 4.91499 1.92788 5.09097 1.60351C5.26695 1.27914 5.34976 0.912399 5.33022 0.543882C6.42496 0.260963 7.57371 0.261422 8.66822 0.545215C8.64885 0.913725 8.73182 1.28041 8.90794 1.60469C9.08406 1.92897 9.34646 2.1982 9.6661 2.38259C9.98575 2.56698 10.3502 2.65934 10.7191 2.64945C11.088 2.63956 11.4469 2.5278 11.7562 2.32655C12.1422 2.71988 12.4849 3.16722 12.7729 3.66655C13.0616 4.16588 13.2776 4.68655 13.4249 5.21722C13.096 5.38448 12.8198 5.63946 12.6269 5.95395C12.4339 6.26844 12.3317 6.63018 12.3316 6.99914C12.3314 7.3681 12.4334 7.72992 12.6261 8.04455C12.8188 8.35918 13.0948 8.61437 13.4236 8.78188C13.1222 9.87156 12.5484 10.8666 11.7562 11.6732C11.4468 11.4721 11.0878 11.3604 10.7189 11.3507C10.35 11.3409 9.98558 11.4335 9.666 11.618C9.34641 11.8025 9.08412 12.0719 8.90813 12.3963C8.73215 12.7206 8.64935 13.0874 8.66889 13.4559C7.57415 13.7388 6.4254 13.7383 5.33088 13.4545C5.35025 13.086 5.26728 12.7194 5.09117 12.3951C4.91505 12.0708 4.65265 11.8016 4.333 11.6172C4.01335 11.4328 3.64892 11.3404 3.28004 11.3503C2.91115 11.3602 2.55219 11.472 2.24289 11.6732C1.84888 11.2712 1.50728 10.8209 1.22622 10.3332ZM4.99955 10.4639C5.70997 10.8736 6.24412 11.5312 6.49955 12.3105C6.83222 12.3419 7.16622 12.3425 7.49888 12.3112C7.75449 11.5318 8.28888 10.8742 8.99955 10.4645C9.7097 10.0537 10.5466 9.91954 11.3496 10.0879C11.5429 9.81588 11.7096 9.52588 11.8482 9.22255C11.3012 8.61151 10.999 7.82002 10.9996 6.99988C10.9996 6.15988 11.3129 5.37522 11.8482 4.77722C11.7086 4.47398 11.5412 4.1843 11.3482 3.91188C10.5457 4.08009 9.70941 3.9462 8.99955 3.53588C8.28913 3.12613 7.75499 2.46854 7.49955 1.68922C7.16689 1.65788 6.83288 1.65722 6.50022 1.68855C6.24462 2.46798 5.71022 3.12559 4.99955 3.53522C4.28941 3.94609 3.45254 4.08023 2.64955 3.91188C2.4566 4.18407 2.28964 4.47379 2.15089 4.77722C2.69793 5.38826 3.00014 6.17974 2.99955 6.99988C2.99955 7.83988 2.68622 8.62455 2.15089 9.22255C2.29053 9.52578 2.45791 9.81546 2.65089 10.0879C3.45336 9.91968 4.28969 10.0536 4.99955 10.4639ZM6.99955 8.99988C6.46912 8.99988 5.96041 8.78917 5.58534 8.4141C5.21027 8.03902 4.99955 7.53031 4.99955 6.99988C4.99955 6.46945 5.21027 5.96074 5.58534 5.58567C5.96041 5.2106 6.46912 4.99988 6.99955 4.99988C7.52998 4.99988 8.03869 5.2106 8.41377 5.58567C8.78884 5.96074 8.99955 6.46945 8.99955 6.99988C8.99955 7.53031 8.78884 8.03902 8.41377 8.4141C8.03869 8.78917 7.52998 8.99988 6.99955 8.99988ZM6.99955 7.66655C7.17636 7.66655 7.34593 7.59631 7.47096 7.47129C7.59598 7.34626 7.66622 7.17669 7.66622 6.99988C7.66622 6.82307 7.59598 6.6535 7.47096 6.52848C7.34593 6.40345 7.17636 6.33322 6.99955 6.33322C6.82274 6.33322 6.65317 6.40345 6.52815 6.52848C6.40312 6.6535 6.33289 6.82307 6.33289 6.99988C6.33289 7.17669 6.40312 7.34626 6.52815 7.47129C6.65317 7.59631 6.82274 7.66655 6.99955 7.66655Z" fill="white"/>
</svg>
