<svg width="21" height="24" viewBox="0 0 21 24" fill="none" xmlns="http://www.w3.org/2000/svg">
<path d="M5.34253 18.3049L5.79321 17.8638C6.11483 18.2531 6.48511 18.4478 6.90405 18.4478C7.12199 18.4478 7.30819 18.3843 7.46265 18.2573C7.61922 18.1283 7.69751 17.9643 7.69751 17.7654C7.69751 17.6342 7.66366 17.5189 7.59595 17.4194C7.52824 17.3179 7.43408 17.2332 7.31348 17.1655C7.19499 17.0957 7.07227 17.0343 6.94531 16.9814C6.82048 16.9285 6.67871 16.8682 6.52002 16.8005C6.36133 16.7307 6.2312 16.6619 6.12964 16.5942C5.74455 16.3382 5.552 16.005 5.552 15.5945C5.552 15.2581 5.68319 14.9724 5.94556 14.7375C6.21004 14.5027 6.538 14.3853 6.92944 14.3853C7.37801 14.3853 7.78532 14.5365 8.15137 14.8391L7.76733 15.3152C7.51978 15.1057 7.24894 15.001 6.95483 15.001C6.75171 15.001 6.57503 15.056 6.4248 15.166C6.27669 15.276 6.20264 15.4252 6.20264 15.6135C6.20264 15.7236 6.23649 15.8219 6.3042 15.9087C6.37191 15.9954 6.46501 16.0716 6.5835 16.1372C6.7041 16.2028 6.82682 16.262 6.95166 16.3149C7.07861 16.3678 7.21932 16.4292 7.37378 16.499C7.52824 16.5688 7.65519 16.6376 7.75464 16.7053C8.15031 16.9656 8.34814 17.3126 8.34814 17.7463C8.34814 18.1399 8.21379 18.4583 7.94507 18.7017C7.67635 18.9429 7.33993 19.0635 6.93579 19.0635C6.62264 19.0635 6.32853 18.9989 6.05347 18.8699C5.78052 18.7387 5.54354 18.5504 5.34253 18.3049ZM10.3635 16.8545H9.84302V19H9.19238V14.4487H10.7856C11.1538 14.4487 11.449 14.5376 11.6711 14.7153C11.8108 14.8296 11.9198 14.9682 11.998 15.1311C12.0785 15.2919 12.1187 15.4654 12.1187 15.6516C12.1187 15.8378 12.0785 16.0124 11.998 16.1753C11.9198 16.3361 11.8108 16.4736 11.6711 16.5879C11.5167 16.7148 11.3389 16.7952 11.1379 16.8291L12.7693 19H11.9822L10.3635 16.8545ZM9.84302 16.2388H10.7539C11.0036 16.2388 11.1855 16.1816 11.2998 16.0674C11.4119 15.9552 11.468 15.8167 11.468 15.6516C11.468 15.4866 11.4119 15.348 11.2998 15.2358C11.1877 15.1237 11.0057 15.0676 10.7539 15.0676H9.84302V16.2388ZM12.636 15.0676V14.4487H15.7559V15.0676H14.5212V19H13.8706V15.0676H12.636Z" fill="black"/>
<path d="M20.9616 7.39832C20.9345 7.32929 20.8966 7.26616 20.8424 7.20867L14.2038 0.172458C14.1549 0.120618 14.0954 0.0746797 14.025 0.045937C13.9599 0.0171943 13.8895 0 13.8191 0H0.541914C0.243861 0 0 0.258684 0 0.574854V23.4251C0 23.7413 0.243861 24 0.541914 24H20.4571C20.7551 24 20.999 23.7413 20.999 23.4251V7.61698C21.0043 7.5423 20.9881 7.47327 20.961 7.39859L20.9616 7.39832ZM14.3664 1.96592L19.157 7.04776H14.3664V1.96592ZM19.921 22.8558H1.08969V1.15521H13.2831V7.62235C13.2831 7.93852 13.5269 8.19721 13.825 8.19721H19.9215L19.921 22.8558Z" fill="#040404"/>
</svg>
