<svg width="38" height="37" viewBox="0 0 38 37" fill="none" xmlns="http://www.w3.org/2000/svg">
<path d="M37.9604 13.8213C37.8654 13.5287 37.612 13.3151 37.3076 13.2712L25.1586 11.5054L19.725 0.496832C19.5886 0.220698 19.3079 0.0458984 19.0001 0.0458984C18.6923 0.0458984 18.4111 0.220698 18.2747 0.496832L12.842 11.5054L0.692092 13.2712C0.387669 13.3155 0.134758 13.5291 0.0393355 13.8213C-0.0556646 14.1143 0.0237134 14.4352 0.244113 14.6506L9.03562 23.2196L6.9604 35.32C6.90889 35.6232 7.03344 35.9301 7.28213 36.1108C7.53167 36.292 7.86184 36.3152 8.13375 36.1725L19.0001 30.459L29.8668 36.1721C29.9854 36.2341 30.1142 36.265 30.243 36.265C30.4102 36.265 30.5774 36.213 30.7184 36.1104C30.9671 35.9297 31.0921 35.6228 31.0402 35.3196L28.9645 23.2196L37.756 14.6506C37.9764 14.4352 38.0558 14.1143 37.9604 13.8213ZM27.5311 22.3578C27.3406 22.5436 27.2541 22.8113 27.2984 23.0735L29.1689 33.9782L19.3763 28.8296C19.2585 28.7676 19.1293 28.7367 19.0001 28.7367C18.8709 28.7367 18.7417 28.7676 18.6239 28.8296L8.83127 33.9782L10.7017 23.0735C10.7465 22.8113 10.6595 22.5436 10.4686 22.3578L2.54607 14.6358L13.4951 13.0448C13.7586 13.0064 13.9858 12.8413 14.104 12.6024L19.0001 2.68141L23.897 12.6024C24.0148 12.8413 24.242 13.0064 24.5054 13.0448L35.4541 14.6358L27.5311 22.3578Z" fill="black"/>
</svg>
