<svg version="1.2" baseProfile="tiny-ps" xmlns="http://www.w3.org/2000/svg" viewBox="0 0 20 19" width="20" height="19">
	<title>star-svg</title>
	<style>
		tspan { white-space:pre }
		.shp0 { fill: #ffffff;stroke: #a3a3a3;stroke-width: 0.2 } 
	</style>
	<path id="Layer" fill-rule="evenodd" class="shp0" d="M0.85 7.09L7.03 6.19L9.8 0.59C9.87 0.45 10.01 0.36 10.17 0.36C10.32 0.36 10.47 0.45 10.54 0.59L13.3 6.19L19.48 7.09C19.64 7.11 19.76 7.22 19.81 7.36C19.86 7.51 19.82 7.68 19.71 7.79L15.24 12.15L16.29 18.3C16.32 18.46 16.25 18.61 16.13 18.7C16.06 18.76 15.97 18.78 15.89 18.78C15.82 18.78 15.76 18.77 15.7 18.74L10.17 15.83L4.64 18.74C4.5 18.81 4.33 18.8 4.2 18.71C4.08 18.61 4.01 18.46 4.04 18.3L5.1 12.15L0.62 7.79C0.51 7.68 0.47 7.51 0.52 7.36C0.57 7.22 0.7 7.11 0.85 7.09ZM10.17 1.7L7.68 6.74C7.62 6.87 7.5 6.95 7.37 6.97L1.8 7.78L5.83 11.71C5.92 11.8 5.97 11.94 5.94 12.07L4.99 17.62L9.98 15C10.04 14.97 10.1 14.95 10.17 14.95C10.23 14.95 10.3 14.97 10.36 15L15.34 17.62L14.39 12.07C14.37 11.94 14.41 11.8 14.51 11.71L18.54 7.78L12.97 6.97C12.83 6.95 12.72 6.87 12.66 6.74L10.17 1.7Z" />
</svg>