<svg width="4" height="30" viewBox="0 0 4 30" fill="none" xmlns="http://www.w3.org/2000/svg">
<path fill-rule="evenodd" clip-rule="evenodd" d="M3.91304 15C3.91304 13.9194 3.03708 13.0435 1.95652 13.0435C0.875965 13.0435 0 13.9194 0 15C0 16.0806 0.875965 16.9565 1.95652 16.9565C3.03708 16.9565 3.91304 16.0806 3.91304 15ZM3.91304 1.95652C3.91304 0.875965 3.03708 0 1.95652 0C0.875965 0 0 0.875965 0 1.95652C0 3.03708 0.875965 3.91304 1.95652 3.91304C3.03708 3.91304 3.91304 3.03708 3.91304 1.95652ZM3.91304 28.0435C3.91304 26.9629 3.03708 26.087 1.95652 26.087C0.875965 26.087 0 26.9629 0 28.0435C0 29.124 0.875965 30 1.95652 30C3.03708 30 3.91304 29.124 3.91304 28.0435Z" fill="black"/>
</svg>
