<svg width="24" height="18" viewBox="0 0 24 18" fill="none" xmlns="http://www.w3.org/2000/svg">
<path d="M2.80374 0H21.1963C22.7103 0 24.0001 1.29414 24.0001 2.94121V15.0588C24.0001 16.7059 22.7104 18 21.1963 18H2.80374C1.23365 18 0 16.7059 0 15.0588V2.94121C0 1.29414 1.23365 0 2.80374 0ZM21.1963 0.999936H2.80374C1.79441 0.999936 0.953321 1.88223 0.953321 2.94108V15.0587C0.953321 16.1175 1.79437 16.9998 2.80374 16.9998H21.1963C22.2057 16.9998 23.0467 16.1175 23.0467 15.0587V2.94108C23.0467 1.88226 22.2057 0.999936 21.1963 0.999936Z" fill="black"/>
<path d="M14.9347 8.99991L11.3461 6.64695V11.353L14.9347 8.99991ZM11.1215 5.35297L16.0562 8.58816C16.3365 8.76457 16.3365 9.23517 16.0562 9.4117L11.1215 12.6469C10.8412 12.8822 10.3926 12.6469 10.3926 12.2352V5.76447C10.3926 5.35275 10.7851 5.11746 11.1215 5.35275V5.35297Z" fill="black"/>
</svg>
