<svg width="20" height="19" viewBox="0 0 20 19" fill="none" xmlns="http://www.w3.org/2000/svg">
<path d="M9.79754 0.585866C9.86692 0.445378 10.01 0.356445 10.1666 0.356445C10.3232 0.356445 10.466 0.445378 10.5354 0.585866L13.2998 6.18668L19.4809 7.08503C19.6358 7.10737 19.7646 7.21606 19.813 7.36493C19.8615 7.51401 19.8211 7.67727 19.709 7.78682L15.2362 12.1464L16.2922 18.3026C16.3186 18.4568 16.255 18.613 16.1285 18.7049C16.0568 18.7571 15.9717 18.7835 15.8866 18.7835C15.8211 18.7835 15.7556 18.7678 15.6952 18.7363L10.1666 15.8296L4.63816 18.7365C4.49982 18.8091 4.33184 18.7973 4.20488 18.7051C4.07836 18.6132 4.01499 18.457 4.04119 18.3028L5.097 12.1464L0.624168 7.78682C0.512036 7.67727 0.471651 7.51401 0.519984 7.36493C0.568531 7.21628 0.697204 7.10758 0.852085 7.08503L7.03354 6.18668L9.79754 0.585866Z" fill="white" stroke="white" stroke-width="0.2"/>
</svg>
