<svg width="28" height="24" viewBox="0 0 28 24" fill="none" xmlns="http://www.w3.org/2000/svg">
<path d="M17.9998 0C18.7358 0 19.3332 0.597333 19.3332 1.33333V4H25.9998C26.7358 4 27.3332 4.59733 27.3332 5.33333V22.6667C27.3332 23.4027 26.7358 24 25.9998 24H1.99984C1.26384 24 0.666504 23.4027 0.666504 22.6667V5.33333C0.666504 4.59733 1.26384 4 1.99984 4H8.6665V1.33333C8.6665 0.597333 9.26384 0 9.99984 0H17.9998ZM19.3332 6.66667H8.6665V21.3333H19.3332V6.66667ZM3.33317 6.66667V21.3333H5.99984V6.66667H3.33317ZM16.6665 2.66667H11.3332V4H16.6665V2.66667ZM21.9998 6.66667V21.3333H24.6665V6.66667H21.9998Z" fill="#FFFFFF"/>
</svg>
