<svg width="198" height="128" viewBox="0 0 198 128" fill="none" xmlns="http://www.w3.org/2000/svg">
<path d="M-54 -88H247V155H-54V-88Z" fill="#F8EECC"/>
<g opacity="0.6">
<path opacity="0.05" d="M150.98 147.037C151.526 134.868 156.562 123.335 165.113 114.674C173.663 106.013 185.118 100.842 197.258 100.163C197.081 98.9708 196.954 97.804 196.853 96.6119C196.853 95.9778 196.726 95.369 196.701 94.7603C183.313 95.58 170.697 101.317 161.267 110.873C151.837 120.429 146.254 133.134 145.588 146.556L147.664 146.682C148.778 146.784 149.79 146.885 150.98 147.037Z" fill="black"/>
<path opacity="0.05" d="M199.815 123.119C201.93 123.102 204.039 123.349 206.093 123.854C205.84 123.474 205.612 123.068 205.384 122.687L205.055 122.129C204.828 121.774 204.6 121.394 204.397 121.013C204.195 120.633 203.688 119.745 203.359 119.086C203.359 119.086 203.359 118.857 203.157 118.73L202.701 117.817C201.739 117.817 200.777 117.69 199.79 117.69C191.448 117.744 183.469 121.114 177.607 127.059C171.744 133.005 168.477 141.039 168.524 149.397C168.524 150.371 168.575 151.345 168.676 152.314L169.613 152.77L169.942 152.948L171.917 153.988L172.929 154.571L173.638 155.002L174.727 155.637C174.212 153.587 173.94 151.484 173.917 149.371C173.883 142.451 176.591 135.8 181.447 130.878C186.302 125.956 192.908 123.165 199.815 123.119Z" fill="black"/>
<path opacity="0.05" d="M199.765 111.602H200.094C199.486 109.852 198.929 108.051 198.474 106.199C187.528 106.602 177.148 111.172 169.448 118.976C161.748 126.781 157.307 137.233 157.031 148.204C158.863 148.635 160.671 149.16 162.449 149.776C162.436 149.658 162.436 149.539 162.449 149.421C162.402 139.451 166.304 129.869 173.3 122.779C180.296 115.689 189.814 111.669 199.765 111.602Z" fill="black"/>
<path opacity="0.05" d="M35.9953 147.722C36.5461 135.552 41.5832 124.019 50.1319 115.355C58.6807 106.691 70.1331 101.513 82.2729 100.822C82.0957 99.6554 81.9691 98.4632 81.8678 97.2711C81.8678 96.6623 81.8678 96.0536 81.7159 95.4194C68.3235 96.2447 55.7043 101.986 46.2705 111.546C36.8366 121.106 31.2497 133.813 30.5776 147.24H32.6789C33.7928 147.418 34.8814 147.57 35.9953 147.722Z" fill="black"/>
<path opacity="0.05" d="M84.8302 123.803C86.9459 123.777 89.0561 124.024 91.1086 124.539C90.8555 124.158 90.6276 123.752 90.3998 123.372L90.0707 122.814L89.4124 121.698C89.058 121.064 88.7036 120.429 88.3745 119.77L88.172 119.389L87.7163 118.502C86.7465 118.451 85.7747 118.451 84.8049 118.502C76.5183 118.575 68.5945 121.918 62.7513 127.806C56.9082 133.693 53.6167 141.651 53.5903 149.954C53.5903 150.944 53.5903 151.933 53.7422 152.897C54.0713 153.023 54.4004 153.201 54.7042 153.353L55.008 153.505C55.6662 153.861 56.3498 154.19 56.9827 154.571L58.0206 155.129C58.2477 155.287 58.4844 155.431 58.7295 155.56L59.8181 156.219C59.2888 154.164 59.0166 152.051 59.008 149.929C59.0076 143.044 61.7201 136.437 66.5555 131.544C71.391 126.652 77.9586 123.87 84.8302 123.803Z" fill="black"/>
<path opacity="0.05" d="M84.7541 112.262H85.1085C84.5009 110.487 83.944 108.686 83.463 106.859C72.5262 107.269 62.1558 111.837 54.4618 119.636C46.7677 127.434 42.328 137.877 42.0459 148.838C43.8687 149.295 45.6914 149.828 47.4382 150.411V150.081C47.3978 140.113 51.3026 130.536 58.2971 123.447C65.2916 116.358 74.8054 112.336 84.7541 112.262Z" fill="black"/>
<path opacity="0.05" d="M150.323 31.8291C150.899 19.6818 155.948 8.17971 164.496 -0.454493C173.043 -9.08869 184.481 -14.242 196.6 -14.9185C196.423 -16.1107 196.296 -17.2775 196.195 -18.4696C196.195 -19.1037 196.069 -19.7125 196.043 -20.3213C182.654 -19.507 170.035 -13.7719 160.603 -4.21462C151.172 5.34266 145.591 18.0502 144.93 31.474C145.614 31.474 146.323 31.4741 147.006 31.6263C148.12 31.5755 149.234 31.7023 150.323 31.8291Z" fill="black"/>
<path opacity="0.05" d="M199.182 13.9972C195.231 14.0174 191.374 15.2114 188.1 17.4283C184.826 19.6452 182.282 22.7852 180.789 26.4512C179.297 30.1172 178.923 34.1444 179.715 38.0232C180.508 41.902 182.431 45.4582 185.241 48.2418C188.051 51.0253 191.622 52.9113 195.502 53.6609C199.382 54.4105 203.397 53.9902 207.039 52.4531C210.68 50.9159 213.785 48.3311 215.96 45.0256C218.135 41.7201 219.283 37.8425 219.258 33.8834C219.218 28.5821 217.082 23.5128 213.32 19.7855C209.557 16.0583 204.473 13.9769 199.182 13.9972ZM199.385 48.5697C196.505 48.5897 193.683 47.7533 191.278 46.1663C188.873 44.5793 186.991 42.313 185.872 39.6543C184.752 36.9955 184.445 34.0638 184.989 31.2301C185.533 28.3964 186.904 25.788 188.928 23.7351C190.952 21.6823 193.539 20.2772 196.36 19.6976C199.181 19.118 202.111 19.3899 204.778 20.4791C207.445 21.5683 209.73 23.4257 211.343 25.8163C212.956 28.2068 213.825 31.0231 213.84 33.9087C213.847 35.8174 213.478 37.7087 212.755 39.4746C212.033 41.2405 210.97 42.8464 209.627 44.2008C208.285 45.5551 206.69 46.6313 204.932 47.3678C203.175 48.1044 201.29 48.4869 199.385 48.4936V48.5697Z" fill="black"/>
<path opacity="0.05" d="M194.853 88.7992H196.498C195.698 75.352 189.972 62.6739 180.419 53.1953C170.865 43.7168 158.156 38.1047 144.727 37.4351C144.727 38.0692 144.727 38.7033 144.601 39.3121C144.601 40.5042 144.398 41.6964 144.246 42.8632C156.393 43.415 167.904 48.4619 176.551 57.0272C185.198 65.5925 190.366 77.0671 191.055 89.2304C192.347 89.0782 193.587 88.9006 194.853 88.7992Z" fill="black"/>
<path opacity="0.05" d="M145.867 122.052C146.196 121.418 146.525 120.759 146.88 120.125L147.513 119.009C147.632 118.828 147.741 118.642 147.842 118.451L148.55 117.284C146.507 117.804 144.406 118.068 142.297 118.07C138.876 118.09 135.485 117.435 132.317 116.142C129.149 114.848 126.266 112.943 123.832 110.533C121.399 108.124 119.464 105.257 118.136 102.098C116.809 98.9393 116.115 95.5492 116.095 92.1216C116.08 90.0108 116.327 87.9064 116.829 85.8564L115.741 86.5413L115.057 86.9472L114.019 87.5559C113.386 87.9364 112.703 88.2915 112.045 88.6466H111.766L110.804 89.1286C110.804 90.1178 110.804 91.0816 110.804 92.0709C110.858 100.428 114.221 108.423 120.155 114.297C126.089 120.171 134.108 123.444 142.449 123.397C143.422 123.397 144.394 123.346 145.361 123.245L145.816 122.331L145.867 122.052Z" fill="black"/>
<path opacity="0.05" d="M142.347 129.663C132.392 129.71 122.825 125.796 115.748 118.781C108.671 111.766 104.662 102.224 104.601 92.2492V91.894C102.833 92.5351 101.033 93.0854 99.209 93.5428C99.6177 104.505 104.181 114.899 111.97 122.609C119.759 130.318 130.187 134.764 141.132 135.04C141.563 133.214 142.094 131.413 142.702 129.637H142.347V129.663Z" fill="black"/>
<path opacity="0.05" d="M167.511 98.0828L168.701 97.3472L169.208 97.0428C169.587 96.8145 169.967 96.5863 170.372 96.3834L172.246 95.3434L172.651 95.1405L173.537 94.6839C173.63 93.7145 173.672 92.7408 173.663 91.7669C173.61 83.4115 170.251 75.4184 164.323 69.5411C158.395 63.6637 150.383 60.382 142.044 60.4158C141.056 60.4158 140.069 60.4158 139.107 60.568C138.98 60.8977 138.803 61.2021 138.651 61.5065L138.499 61.8616C138.145 62.5211 137.816 63.1806 137.461 63.8147L136.854 64.8547C136.727 65.0829 136.601 65.3112 136.449 65.5395L135.791 66.6556C137.844 66.1392 139.952 65.8667 142.069 65.8439C148.971 65.8169 155.603 68.5331 160.51 73.3973C165.417 78.2614 168.199 84.8765 168.246 91.7923C168.272 93.912 168.025 96.0263 167.511 98.0828Z" fill="black"/>
<path opacity="0.05" d="M179.663 92.0711C181.436 91.4623 183.208 90.9043 185.056 90.4224C184.647 79.4645 180.088 69.0741 172.304 61.3651C164.521 53.6562 154.099 49.2079 143.158 48.9253C142.702 50.7516 142.171 52.5779 141.563 54.328H141.917C151.853 54.2806 161.404 58.176 168.481 65.1629C175.559 72.1498 179.589 81.6599 179.689 91.6146C179.689 91.7414 179.689 91.8682 179.689 91.9697L179.663 92.0711Z" fill="black"/>
<path opacity="0.05" d="M142.019 71.9317C138.067 71.9519 134.21 73.1459 130.936 75.3628C127.662 77.5796 125.118 80.7197 123.625 84.3857C122.133 88.0517 121.759 92.0789 122.552 95.9577C123.344 99.8365 125.267 103.393 128.077 106.176C130.887 108.96 134.458 110.846 138.338 111.595C142.219 112.345 146.233 111.925 149.875 110.388C153.517 108.85 156.621 106.266 158.797 102.96C160.972 99.6546 162.119 95.777 162.094 91.8178C162.048 86.5186 159.91 81.4532 156.149 77.7274C152.388 74.0016 147.308 71.9181 142.019 71.9317ZM142.221 106.504C139.341 106.524 136.52 105.688 134.115 104.101C131.709 102.514 129.828 100.247 128.708 97.5887C127.589 94.93 127.281 91.9982 127.826 89.1645C128.37 86.3308 129.74 83.7225 131.764 81.6696C133.789 79.6167 136.375 78.2116 139.196 77.632C142.018 77.0524 144.947 77.3244 147.614 78.4136C150.282 79.5027 152.566 81.3601 154.179 83.7507C155.792 86.1413 156.662 88.9576 156.677 91.8432C156.687 93.7585 156.32 95.657 155.598 97.4304C154.875 99.2037 153.812 100.817 152.467 102.179C151.122 103.54 149.523 104.623 147.761 105.365C145.998 106.107 144.108 106.494 142.196 106.504H142.221Z" fill="black"/>
<path opacity="0.05" d="M199.157 7.91016C201.272 7.90644 203.379 8.15333 205.436 8.64573C205.182 8.26525 204.955 7.85944 204.727 7.47896C204.602 7.3021 204.492 7.11548 204.398 6.92093C204.17 6.56582 203.942 6.18534 203.739 5.80486C203.537 5.42439 203.031 4.53661 202.701 3.90249L202.499 3.52203L202.043 2.60889C201.081 2.60889 200.119 2.60889 199.132 2.60889C190.793 2.66924 182.818 6.04119 176.956 11.9851C171.095 17.929 167.826 25.9596 167.867 34.3151C167.866 35.2895 167.917 36.2631 168.018 37.2321L168.955 37.714C169.066 37.744 169.169 37.7958 169.259 37.8662C169.943 38.196 170.601 38.5511 171.259 38.9062L172.272 39.4896L172.98 39.9208L174.069 40.5549C173.554 38.5058 173.282 36.4028 173.259 34.2897C173.226 30.8524 173.869 27.4423 175.154 24.2548C176.438 21.0673 178.338 18.1651 180.744 15.7145C183.15 13.2639 186.015 11.3131 189.174 9.97389C192.334 8.63467 195.726 7.93336 199.157 7.91016Z" fill="black"/>
<path opacity="0.05" d="M199.106 -3.60502H199.436C198.828 -5.3552 198.271 -7.15614 197.79 -8.98242C186.853 -8.57324 176.483 -4.00468 168.789 3.79378C161.095 11.5922 156.655 22.0347 156.373 32.9967C158.204 33.4285 160.013 33.9533 161.791 34.5693C161.778 34.4512 161.778 34.3322 161.791 34.2142C161.744 24.2441 165.646 14.6625 172.642 7.57213C179.638 0.481813 189.156 -3.53794 199.106 -3.60502Z" fill="black"/>
<path opacity="0.05" d="M199.486 65.5139C203.618 65.494 207.706 64.6587 211.517 63.0558C215.327 61.4529 218.785 59.1137 221.693 56.1719C224.601 53.23 226.902 49.7431 228.465 45.9102C230.028 42.0773 230.822 37.9735 230.802 33.833C230.803 32.8503 230.752 31.8681 230.65 30.8907L229.764 30.4595L229.359 30.2566L227.46 29.242L226.296 28.6078C226.144 28.6078 225.967 28.4049 225.789 28.2781C225.612 28.1513 224.979 27.8215 224.6 27.5679C225.115 29.6256 225.387 31.737 225.41 33.8584C225.437 40.7743 222.726 47.4188 217.871 52.3353C213.016 57.2517 206.414 60.0389 199.511 60.0858C197.395 60.1147 195.285 59.8674 193.233 59.3502L193.916 60.4663L194.296 61.1258C194.499 61.4809 194.727 61.836 194.904 62.1911C195.081 62.5462 195.638 63.4847 195.967 64.1442C196.035 64.24 196.095 64.3418 196.144 64.4486C196.296 64.7783 196.473 65.0827 196.625 65.3871C197.576 65.4788 198.531 65.5211 199.486 65.5139Z" fill="black"/>
<path opacity="0.05" d="M93.1585 94.6587C92.0699 94.8109 90.9813 94.9377 89.8674 95.0392L87.7915 95.2167C88.6097 108.63 94.3355 121.271 103.873 130.719C113.411 140.168 126.091 145.761 139.487 146.429C139.487 145.82 139.487 145.186 139.487 144.577C139.487 143.385 139.689 142.193 139.841 141.026C127.719 140.438 116.242 135.376 107.623 126.815C99.0031 118.254 93.8509 106.799 93.1585 94.6587Z" fill="black"/>
<path opacity="0.05" d="M35.3118 32.514C35.8681 20.3455 40.9071 8.81571 49.4547 0.153193C58.0023 -8.50933 69.4516 -13.6894 81.5895 -14.3858C81.4376 -15.5526 81.311 -16.7194 81.1844 -17.9116C81.1844 -18.5457 81.1844 -19.1544 81.0579 -19.7886C67.6654 -18.9633 55.0462 -13.222 45.6123 -3.66224C36.1784 5.89754 30.5915 18.6053 29.9194 32.0321L31.9954 32.1589C33.1093 32.2604 34.2232 32.3618 35.3118 32.514Z" fill="black"/>
<path opacity="0.05" d="M84.1969 14.6823C80.2454 14.7024 76.3886 15.8965 73.1145 18.1133C69.8404 20.3302 67.2962 23.4703 65.8037 27.1363C64.3112 30.8023 63.9375 34.8294 64.73 38.7082C65.5224 42.587 67.4453 46.1432 70.2554 48.9268C73.0656 51.7104 76.6365 53.5963 80.5167 54.3459C84.3968 55.0956 88.4117 54.6752 92.0533 53.1381C95.695 51.601 98.7997 49.0162 100.975 45.7107C103.15 42.4052 104.298 38.5276 104.273 34.5684C104.232 29.2671 102.097 24.1978 98.3344 20.4706C94.5716 16.7434 89.4881 14.662 84.1969 14.6823ZM84.3994 49.2547C81.5194 49.2748 78.6982 48.4383 76.2928 46.8513C73.8873 45.2643 72.0058 42.998 70.8863 40.3393C69.7669 37.6805 69.4597 34.7488 70.0037 31.9151C70.5478 29.0814 71.9186 26.4731 73.9427 24.4202C75.9668 22.3673 78.5532 20.9622 81.3746 20.3826C84.196 19.803 87.1256 20.075 89.7927 21.1642C92.4598 22.2533 94.7444 24.1107 96.3576 26.5013C97.9707 28.8918 98.8398 31.7082 98.8549 34.5938C98.8684 38.4556 97.3554 42.1656 94.6467 44.9129C91.9379 47.6602 88.2537 49.2212 84.3994 49.2547Z" fill="black"/>
<path opacity="0.05" d="M79.8427 89.4589L81.4882 89.3321C80.6645 75.9205 74.937 63.2833 65.4005 53.8359C55.8639 44.3885 43.187 38.7934 29.7928 38.1201C29.7928 38.7542 29.7928 39.3883 29.7928 39.9971C29.7928 41.1893 29.5903 42.356 29.4131 43.5228C41.5574 44.0752 53.0651 49.1231 61.7079 57.6889C70.3507 66.2547 75.5137 77.7291 76.1971 89.8901C77.3364 89.7126 78.6022 89.5857 79.8427 89.4589Z" fill="black"/>
<path opacity="0.05" d="M30.8056 122.687C31.1347 122.028 31.4638 121.393 31.8182 120.759L32.4511 119.643C32.4511 119.44 32.679 119.263 32.7802 119.085L33.4891 117.893C31.4377 118.422 29.3289 118.694 27.2107 118.705C20.3081 118.732 13.6765 116.015 8.76952 111.151C3.86259 106.287 1.08076 99.6722 1.0339 92.7563C1.00797 90.6366 1.25473 88.5224 1.76807 86.4658L0.679482 87.1507L-0.0293651 87.5565L-1.04201 88.1653C-1.70023 88.5204 -2.35844 88.9009 -3.01666 89.2306L-3.29514 89.3828L-4.25714 89.8647C-4.34984 90.8342 -4.3921 91.8079 -4.38373 92.7817C-4.33685 101.139 -0.979938 109.136 4.94921 115.015C10.8784 120.894 18.8946 124.173 27.236 124.133C28.2233 124.133 29.2107 124.133 30.1727 123.981C30.2993 123.676 30.4511 123.372 30.603 123.068L30.8056 122.687Z" fill="black"/>
<path opacity="0.05" d="M27.3621 130.221C17.4089 130.268 7.84313 126.359 0.762468 119.35C-6.31819 112.341 -10.3358 102.805 -10.4094 92.8326C-10.4094 92.8326 -10.4094 92.6044 -10.4094 92.4775C-12.1816 93.1117 -13.979 93.6444 -15.8018 94.1263C-15.3934 105.084 -10.8336 115.475 -3.0502 123.184C4.73321 130.892 15.1555 135.341 26.0963 135.623C26.552 133.797 27.0836 131.996 27.6912 130.221H27.3368H27.3621Z" fill="black"/>
<path opacity="0.05" d="M52.4505 98.7672L53.6403 98.0316L54.1466 97.7272L55.2858 97.0424L57.1845 96.0278L57.5896 95.7995L58.4756 95.3683C58.4756 94.4044 58.4756 93.4152 58.4756 92.426C58.3955 84.1058 55.0388 76.154 49.1358 70.3015C43.2329 64.4489 35.2617 61.1692 26.9572 61.1763C25.9847 61.1757 25.0129 61.2265 24.0458 61.3285L23.5901 62.267C23.541 62.3819 23.4817 62.4923 23.4129 62.5967C23.0838 63.2562 22.7294 63.9157 22.375 64.5752C22.0205 65.2347 21.9952 65.26 21.7927 65.6152L21.3876 66.3L20.7041 67.4161C22.7528 66.8733 24.8634 66.6004 26.9825 66.6044C33.8871 66.5707 40.5226 69.2848 45.431 74.1503C50.3394 79.0159 53.1191 85.6348 53.1593 92.5528C53.16 94.6711 52.9136 96.7823 52.4251 98.8433L52.4505 98.7672Z" fill="black"/>
<path opacity="0.05" d="M64.6776 92.7557C66.4244 92.1216 68.2218 91.5889 70.0699 91.107C69.6628 80.1661 65.1173 69.79 57.3553 62.0837C49.5933 54.3773 39.1962 49.9178 28.2732 49.6099C27.8428 51.4361 27.3112 53.2371 26.7036 55.0126H27.058C37.0109 54.9586 46.5779 58.8666 53.6559 65.8775C60.734 72.8884 64.7439 82.4285 64.8042 92.4006V92.7557H64.6776Z" fill="black"/>
<path opacity="0.05" d="M27.0328 72.6164C23.0813 72.6365 19.2245 73.8306 15.9504 76.0475C12.6764 78.2643 10.1321 81.4044 8.63962 85.0704C7.14714 88.7364 6.77348 92.7635 7.56591 96.6423C8.35833 100.521 10.2813 104.077 13.0914 106.861C15.9015 109.644 19.4725 111.53 23.3526 112.28C27.2327 113.03 31.2476 112.609 34.8892 111.072C38.5309 109.535 41.6356 106.95 43.8107 103.645C45.9858 100.339 47.1334 96.4617 47.1085 92.5025C47.0683 87.2012 44.9331 82.1319 41.1703 78.4047C37.4076 74.6775 32.324 72.5961 27.0328 72.6164ZM27.2354 107.189C24.3553 107.209 21.5341 106.372 19.1287 104.785C16.7233 103.198 14.8417 100.932 13.7223 98.2734C12.6028 95.6146 12.2956 92.6829 12.8397 89.8492C13.3837 87.0155 14.7545 84.4072 16.7786 82.3543C18.8027 80.3014 21.3891 78.8963 24.2105 78.3167C27.032 77.7371 29.9615 78.0091 32.6286 79.0983C35.2957 80.1874 37.5804 82.0448 39.1935 84.4354C40.8066 86.826 41.6757 89.6422 41.6908 92.5279C41.7044 96.3897 40.1913 100.1 37.4826 102.847C34.7738 105.594 31.0896 107.155 27.2354 107.189Z" fill="black"/>
<path opacity="0.05" d="M84.1713 8.59461C86.2869 8.56863 88.3971 8.81584 90.4496 9.33018C90.1965 8.9497 89.9686 8.54388 89.7408 8.16341L89.4117 7.60538C89.1838 7.2249 88.956 6.86979 88.7535 6.48931C88.5509 6.10884 88.0446 5.22104 87.7155 4.56155L87.513 4.18109L87.0573 3.2933C86.0953 3.2933 85.108 3.1665 84.146 3.1665C75.8022 3.22017 67.8208 6.58918 61.954 12.5338C56.0873 18.4785 52.8149 26.5128 52.8554 34.8727C52.8554 35.8366 52.8553 36.8258 53.0072 37.7897L53.9692 38.2463L54.273 38.3985C54.9313 38.7536 55.6148 39.0833 56.2477 39.4638L57.2857 40.0472L57.9945 40.453L59.0831 41.1125C58.5538 39.0574 58.2816 36.9444 58.273 34.822C58.246 27.9061 60.957 21.2616 65.8118 16.3451C70.6665 11.4287 77.2688 8.64156 84.1713 8.59461Z" fill="black"/>
<path opacity="0.05" d="M84.0958 -2.92053H84.4503C83.8174 -4.69608 83.2857 -6.49696 82.8047 -8.32324C71.8679 -7.91406 61.4976 -3.3455 53.8035 4.45295C46.1095 12.2514 41.6698 22.6939 41.3877 33.6558C43.2104 34.1123 45.0079 34.645 46.78 35.2538V34.8987C46.7329 24.9286 50.6355 15.347 57.6314 8.25665C64.6274 1.16634 74.1451 -2.85345 84.0958 -2.92053Z" fill="black"/>
<path opacity="0.05" d="M84.5004 66.2492C92.8397 66.1889 100.815 62.8169 106.676 56.873C112.537 50.9291 115.806 42.8986 115.766 34.543C115.766 33.5687 115.715 32.5951 115.614 31.6261L114.728 31.1948L114.323 30.9919C113.664 30.6622 113.032 30.3324 112.424 29.9773C111.816 29.6222 111.639 29.5461 111.259 29.3178L110.753 29.0135C110.348 28.7852 109.943 28.5569 109.563 28.3032C110.084 30.3594 110.348 32.4724 110.348 34.5938C110.372 38.5555 109.494 42.4706 107.782 46.0416C106.069 49.6126 103.567 52.7457 100.465 55.203C97.3637 57.6603 93.744 59.3772 89.881 60.2232C86.0181 61.0692 82.0135 61.0221 78.1714 60.0856C78.4245 60.4407 78.627 60.8211 78.8549 61.2016C79.0046 61.412 79.1399 61.6324 79.26 61.8611L79.8676 62.901C80.2473 63.5605 80.6017 64.1947 80.9308 64.8795C80.9804 64.9863 81.0397 65.0882 81.108 65.1839L81.5637 66.1224C82.5257 66.2492 83.5131 66.2492 84.5004 66.2492Z" fill="black"/>
<path opacity="0.05" d="M127.234 35.8119C125.411 35.3553 123.614 34.8226 121.841 34.2139C121.841 34.2139 121.841 34.4422 121.841 34.569C121.889 44.5434 117.983 54.1289 110.981 61.2199C103.98 68.3109 94.4556 72.3277 84.5004 72.3881H84.146C84.7895 74.1586 85.3388 75.962 85.7915 77.7908C96.7327 77.388 107.109 72.8222 114.809 65.0231C122.508 57.224 126.951 46.778 127.234 35.8119Z" fill="black"/>
<path opacity="0.05" d="M-21.8269 95.3438C-22.9155 95.5213 -24.0294 95.6481 -25.118 95.7496L-27.2192 95.9271C-26.3901 109.337 -20.6609 121.971 -11.1254 131.417C-1.58995 140.863 11.0838 146.46 24.4761 147.139C24.4761 146.505 24.4761 145.896 24.6027 145.287C24.6027 144.095 24.8305 142.903 24.9824 141.736C12.8333 141.178 1.32233 136.126 -7.32407 127.557C-15.9705 118.987 -21.1379 107.51 -21.8269 95.3438Z" fill="black"/>
<path opacity="0.05" d="M87.5891 89.0782C100.975 88.2529 113.588 82.5143 123.017 72.9593C132.446 63.4043 138.03 50.7029 138.702 37.2828H137.057C135.791 37.2828 134.525 37.0545 133.31 36.9023C132.754 49.0709 127.715 60.6007 119.167 69.2632C110.619 77.9257 99.1701 83.1058 87.0322 83.8022C87.1841 84.9437 87.336 86.1358 87.4373 87.3026L87.5891 89.0782Z" fill="black"/>
<path opacity="0.05" d="M145.208 6.79402C145.537 6.15989 145.867 5.50042 146.221 4.86629L146.854 3.75023C146.973 3.56989 147.083 3.38364 147.183 3.19219L147.892 2.02538C145.838 2.54342 143.731 2.8159 141.613 2.83708C134.711 2.8641 128.079 0.147823 123.172 -4.7163C118.265 -9.58042 115.484 -16.1955 115.437 -23.1113C115.421 -25.2305 115.667 -27.3436 116.171 -29.4019L115.082 -28.717L114.373 -28.3111C114.044 -28.0829 113.715 -27.9053 113.361 -27.7024L111.386 -26.6117L111.108 -26.4849L110.146 -25.9776C110.146 -25.0137 110.019 -24.0498 110.019 -23.0606C110.073 -14.703 113.436 -6.70871 119.37 -0.834682C125.304 5.03935 133.323 8.31243 141.664 8.26519C142.636 8.2651 143.608 8.21431 144.575 8.11301C144.702 7.80863 144.854 7.50425 145.006 7.19987L145.208 6.79402Z" fill="black"/>
<path opacity="0.05" d="M141.689 14.3525C131.734 14.3997 122.167 10.4861 115.09 3.47114C108.012 -3.54382 104.003 -13.0865 103.943 -23.0609V-23.416C102.175 -22.775 100.375 -22.2246 98.5508 -21.7673C98.9529 -10.8049 103.51 -0.408133 111.294 7.30615C119.078 15.0204 129.504 19.4723 140.449 19.7552C140.905 17.9036 141.436 16.1027 142.044 14.3271H141.689V14.3525Z" fill="black"/>
<path opacity="0.05" d="M92.5002 -20.5493C91.4116 -20.3971 90.323 -20.2703 89.2091 -20.1689L87.1079 -19.9913C87.9376 -6.57745 93.6704 6.05998 103.211 15.5069C112.752 24.9538 125.432 30.5479 138.828 31.2207C138.828 30.6119 138.829 30.0032 138.955 29.369C138.955 28.1769 139.158 26.9847 139.31 25.8179C127.164 25.2605 115.657 20.2117 107.011 11.6476C98.3653 3.08346 93.1952 -8.38796 92.5002 -20.5493Z" fill="black"/>
<path opacity="0.05" d="M30.1974 7.47892C30.5265 6.81943 30.8809 6.18531 31.2354 5.55119L31.8683 4.43513C31.8683 4.2322 32.0961 4.05465 32.1974 3.87709L32.9062 2.68494C30.8569 3.22437 28.7467 3.49716 26.6279 3.49659C23.2014 3.51329 19.8053 2.85322 16.6337 1.55409C13.462 0.254951 10.577 -1.65776 8.14361 -4.0747C5.71019 -6.49163 3.77604 -9.36537 2.45176 -12.5317C1.12748 -15.698 0.439044 -19.0948 0.425777 -22.5279C0.399845 -24.6476 0.646599 -26.7618 1.15994 -28.8184L0.0460334 -28.1335L-0.63749 -27.7277L-1.65013 -27.1189L-3.62478 -26.0536L-3.92858 -25.9014L-4.86526 -25.4195C-4.92838 -24.4482 -4.92838 -23.4738 -4.86526 -22.5025C-4.81838 -14.145 -1.46149 -6.14799 4.46764 -0.269215C10.3968 5.60956 18.413 8.88908 26.7544 8.84861C27.7417 8.84861 28.7038 8.84861 29.6911 8.69642C29.6911 8.39204 29.9695 8.08766 30.1214 7.78328C30.153 7.68349 30.1784 7.58185 30.1974 7.47892Z" fill="black"/>
<path opacity="0.05" d="M26.7039 15.0122C16.7507 15.0595 7.18494 11.1501 0.104275 4.14133C-6.97639 -2.86743 -10.994 -12.4035 -11.0676 -22.3758C-11.0676 -22.5027 -11.0676 -22.6041 -11.0676 -22.731C-12.8398 -22.0968 -14.6372 -21.5641 -16.46 -21.0822C-16.0516 -10.1243 -11.4918 0.266136 -3.70841 7.97507C4.075 15.684 14.4973 20.1323 25.4381 20.4149C25.8938 18.5886 26.4254 16.7877 27.033 15.0122H26.6786H26.7039Z" fill="black"/>
<path opacity="0.05" d="M-22.3587 -19.8643C-23.4473 -19.6867 -24.5612 -19.5599 -25.6751 -19.4584L-27.751 -19.2809C-26.9218 -5.87119 -21.1927 6.76285 -11.6572 16.2091C-2.12175 25.6554 10.552 31.2523 23.9443 31.9311C23.9443 31.2969 23.9443 30.6882 23.9443 30.0794C23.9443 28.8873 24.1721 27.6951 24.324 26.5283C12.1954 25.9454 0.712177 20.8814 -7.90894 12.3139C-16.5301 3.74637 -21.6779 -7.71728 -22.3587 -19.8643Z" fill="black"/>
<path opacity="0.05" d="M-30.6367 67.0109C-22.2951 66.9505 -14.3175 63.5794 -8.45225 57.6363C-2.58697 51.6931 0.687592 43.6626 0.653873 35.3047C0.653873 34.3155 0.653877 33.3516 0.501984 32.3877L-0.384075 31.9312L-0.814442 31.7283C-1.44734 31.4239 -2.08025 31.0688 -2.71315 30.739L-3.85238 30.0796L-4.38401 29.7752L-5.57387 29.0649C-5.05858 31.1141 -4.78666 33.217 -4.76376 35.3301C-4.73676 42.2484 -7.44699 48.8955 -12.301 53.8159C-17.155 58.7364 -23.7573 61.5292 -30.662 61.5828C-32.7763 61.5835 -34.8834 61.3366 -36.9404 60.8472L-36.2569 61.9633L-35.8518 62.6228L-35.2442 63.6627L-34.181 65.6158L-34.0291 65.9456C-33.8519 66.25 -33.7 66.5543 -33.5481 66.8841C-32.4848 66.9602 -31.624 67.0109 -30.6367 67.0109Z" fill="black"/>
<path opacity="0.05" d="M12.1221 36.496C10.2991 36.0642 8.49927 35.5393 6.72976 34.9233V35.2784C6.77022 45.2465 2.86544 54.8243 -4.12905 61.9131C-11.1235 69.002 -20.6374 73.0239 -30.586 73.0977H-30.9404C-30.3328 74.8479 -29.7759 76.6488 -29.3202 78.4751C-18.379 78.0722 -8.00235 73.5064 -0.302969 65.7073C7.39641 57.9082 11.8396 47.4621 12.1221 36.496Z" fill="black"/>
<path opacity="0.05" d="M-27.4215 89.9404C-14.0332 89.1157 -1.41739 83.378 8.01593 73.8235C17.4492 64.269 23.0388 51.5674 23.7169 38.1451H22.0714C20.8056 38.1451 19.5398 37.9422 18.3246 37.7646C17.7682 49.9332 12.7292 61.463 4.18163 70.1255C-4.36597 78.788 -15.8152 83.9681 -27.9531 84.6645C-27.8012 85.8313 -27.6746 86.9981 -27.5734 88.1902C-27.624 88.6722 -27.5734 89.3063 -27.4215 89.9404Z" fill="black"/>
</g>
</svg>
