<svg width="38" height="37" viewBox="0 0 38 37" fill="none" xmlns="http://www.w3.org/2000/svg">
<path d="M37.9606 13.8213C37.8656 13.5287 37.6122 13.3151 37.3078 13.2712L25.1588 11.5054L19.7252 0.496832C19.5888 0.220698 19.3081 0.0458984 19.0003 0.0458984C18.6925 0.0458984 18.4113 0.220698 18.2749 0.496832L12.8421 11.5054L0.692275 13.2712C0.387852 13.3155 0.134941 13.5291 0.0395186 13.8213C-0.0554815 14.1143 0.0238965 14.4352 0.244296 14.6506L9.03581 23.2196L6.96058 35.32C6.90907 35.6232 7.03363 35.9301 7.28232 36.1108C7.53185 36.292 7.86203 36.3152 8.13394 36.1725L19.0003 30.459L29.867 36.1721C29.9856 36.2341 30.1144 36.265 30.2432 36.265C30.4104 36.265 30.5776 36.213 30.7186 36.1104C30.9673 35.9297 31.0923 35.6228 31.0403 35.3196L28.9647 23.2196L37.7562 14.6506C37.9766 14.4352 38.056 14.1143 37.9606 13.8213Z" fill="#EBC03F"/>
</svg>
