<svg width="38" height="37" viewBox="0 0 38 37" fill="none" xmlns="http://www.w3.org/2000/svg">
<path d="M37.9602 13.8212C37.8652 13.5286 37.6119 13.3149 37.3075 13.271L25.1586 11.5053L19.725 0.496828C19.5886 0.220697 19.3079 0.0458984 19.0001 0.0458984C18.6923 0.0458984 18.4111 0.220697 18.2747 0.496828L12.842 11.5053L0.692269 13.271C0.387848 13.3154 0.13494 13.529 0.0395183 13.8212C-0.055481 14.1142 0.0238962 14.4351 0.244294 14.6504L9.03572 23.2193L6.96052 35.3197C6.90901 35.6229 7.03356 35.9298 7.28225 36.1105C7.53178 36.2917 7.86196 36.3149 8.13386 36.1722L19.0001 30.4587L29.8667 36.1717C29.9854 36.2338 30.1141 36.2646 30.2429 36.2646C30.4101 36.2646 30.5773 36.2127 30.7183 36.1101C30.967 35.9294 31.092 35.6224 31.0401 35.3193L28.9644 23.2193L37.7559 14.6504C37.9763 14.4351 38.0556 14.1142 37.9602 13.8212Z" fill="#EBC03F"/>
</svg>
