<svg width="60" height="60" viewBox="0 0 60 60" fill="none" xmlns="http://www.w3.org/2000/svg">
<circle cx="30" cy="30" r="30" fill="black"/>
<path d="M23.6228 37.3221C23.8832 36.2746 24.8017 35.5006 25.8947 35.5006C27.1903 35.5006 28.2406 36.5879 28.2406 37.9292C28.2406 39.2705 27.1903 40.3579 25.8947 40.3579C24.8017 40.3579 23.8832 39.5839 23.6228 38.5364H19.4436C19.1197 38.5364 18.8571 38.2645 18.8571 37.9292C18.8571 37.5939 19.1197 37.3221 19.4436 37.3221H23.6228ZM29.4874 28.8218C29.7479 27.7743 30.6663 27.0003 31.7594 27.0003C33.055 27.0003 34.1053 28.0876 34.1053 29.429C34.1053 30.7703 33.055 31.8576 31.7594 31.8576C30.6663 31.8576 29.7479 31.0836 29.4874 30.0361H19.4436C19.1197 30.0361 18.8571 29.7643 18.8571 29.429C18.8571 29.0936 19.1197 28.8218 19.4436 28.8218H29.4874ZM24.7957 21.5358C25.0561 20.4883 25.9746 19.7144 27.0677 19.7144C28.3633 19.7144 29.4135 20.8017 29.4135 22.143C29.4135 23.4843 28.3633 24.5717 27.0677 24.5717C25.9746 24.5717 25.0561 23.7977 24.7957 22.7502H19.4436C19.1197 22.7502 18.8571 22.4783 18.8571 22.143C18.8571 21.8077 19.1197 21.5358 19.4436 21.5358H24.7957ZM32.3459 22.7502C32.022 22.7502 31.7594 22.4783 31.7594 22.143C31.7594 21.8077 32.022 21.5358 32.3459 21.5358H40.5564C40.8803 21.5358 41.1429 21.8077 41.1429 22.143C41.1429 22.4783 40.8803 22.7502 40.5564 22.7502H32.3459ZM37.0376 30.0361C36.7137 30.0361 36.4511 29.7643 36.4511 29.429C36.4511 29.0936 36.7137 28.8218 37.0376 28.8218H40.5564C40.8803 28.8218 41.1429 29.0936 41.1429 29.429C41.1429 29.7643 40.8803 30.0361 40.5564 30.0361H37.0376ZM31.1729 38.5364C30.849 38.5364 30.5865 38.2645 30.5865 37.9292C30.5865 37.5939 30.849 37.3221 31.1729 37.3221H40.5564C40.8803 37.3221 41.1429 37.5939 41.1429 37.9292C41.1429 38.2645 40.8803 38.5364 40.5564 38.5364H31.1729ZM27.0677 23.3573C27.7155 23.3573 28.2406 22.8137 28.2406 22.143C28.2406 21.4724 27.7155 20.9287 27.0677 20.9287C26.4199 20.9287 25.8947 21.4724 25.8947 22.143C25.8947 22.8137 26.4199 23.3573 27.0677 23.3573ZM31.7594 30.6433C32.4072 30.6433 32.9323 30.0996 32.9323 29.429C32.9323 28.7583 32.4072 28.2146 31.7594 28.2146C31.1116 28.2146 30.5865 28.7583 30.5865 29.429C30.5865 30.0996 31.1116 30.6433 31.7594 30.6433ZM25.8947 39.1435C26.5425 39.1435 27.0677 38.5999 27.0677 37.9292C27.0677 37.2586 26.5425 36.7149 25.8947 36.7149C25.2469 36.7149 24.7218 37.2586 24.7218 37.9292C24.7218 38.5999 25.2469 39.1435 25.8947 39.1435Z" fill="white"/>
</svg>
